<?xml version="1.0" standalone="no"?>
<!DOCTYPE svg PUBLIC "-//W3C//DTD SVG 20010904//EN"
 "http://www.w3.org/TR/2001/REC-SVG-20010904/DTD/svg10.dtd">
<svg version="1.0" xmlns="http://www.w3.org/2000/svg"
 width="1299.000000pt" height="482.000000pt" viewBox="0 0 1299.000000 482.000000"
 preserveAspectRatio="xMidYMid meet">

<g transform="translate(0.000000,482.000000) scale(0.100000,-0.100000)"
fill="#000000" stroke="none">
<path d="M10144 4769 c-37 -11 -57 -32 -73 -78 -14 -43 -14 -116 0 -143 10
-18 3 -29 -59 -92 -38 -39 -72 -78 -75 -86 -2 -8 1 -29 9 -47 9 -24 10 -42 2
-70 -6 -21 -13 -69 -17 -108 l-6 -69 -32 29 c-29 27 -32 34 -25 65 11 50 -3
148 -25 179 -41 54 -124 71 -178 35 -25 -16 -75 -112 -75 -144 0 -11 -4 -20
-10 -20 -5 0 -10 8 -10 17 0 9 -8 25 -17 35 -10 11 -16 32 -15 49 3 37 -23 84
-55 98 -38 17 -69 13 -101 -14 -23 -19 -38 -24 -68 -21 -42 3 -90 -9 -114 -30
-11 -9 -20 -10 -34 -2 -22 12 -82 13 -114 1 -20 -8 -30 -3 -57 24 -43 43 -96
46 -140 7 -43 -38 -77 -49 -87 -29 -5 8 -21 26 -36 40 -32 30 -90 34 -137 9
-22 -11 -31 -12 -34 -3 -2 6 -15 25 -30 41 -31 35 -90 46 -136 27 -16 -7 -50
-14 -75 -16 -25 -2 -54 -4 -65 -5 -11 -1 -46 -1 -77 0 -57 2 -58 3 -58 31 0
15 -9 40 -21 55 -16 21 -29 26 -62 26 -67 -1 -113 -54 -96 -110 4 -14 7 -38 8
-55 l0 -30 -16 26 c-22 37 -49 51 -97 51 l-41 0 3 38 c3 31 -1 44 -22 64 -48
49 -131 24 -162 -49 -10 -25 -21 -34 -47 -39 -59 -11 -98 -70 -68 -101 5 -6
12 -35 15 -65 l7 -55 -45 -28 c-50 -31 -63 -56 -46 -87 13 -24 8 -84 -10 -122
-9 -19 -21 -28 -37 -28 -62 0 -88 -61 -40 -95 19 -13 20 -17 7 -25 -17 -11
-25 -12 -142 -10 -68 1 -97 -3 -136 -20 -47 -20 -52 -21 -80 -6 -38 20 -65 20
-100 2 -36 -19 -61 -48 -72 -82 l-8 -29 -7 33 c-5 19 -22 45 -44 63 -35 30
-38 30 -124 27 -83 -4 -89 -6 -121 -37 -18 -18 -38 -47 -43 -64 -6 -23 -16
-33 -38 -38 -17 -4 -38 -10 -47 -14 -16 -6 -18 -1 -18 35 0 57 -35 118 -79
136 -77 32 -226 10 -252 -37 -6 -13 -21 -19 -43 -19 -26 0 -41 -8 -59 -30 -14
-16 -29 -30 -33 -30 -3 0 0 7 7 16 7 9 17 39 21 68 4 28 10 67 14 86 5 30 1
40 -22 63 -23 23 -35 27 -84 27 -31 0 -76 7 -101 15 -40 14 -46 20 -63 68 -10
28 -36 76 -59 106 -38 52 -40 58 -41 130 -1 42 -7 85 -13 96 -7 11 -14 31 -17
45 -6 31 -53 60 -96 60 -17 0 -38 7 -46 15 -19 19 -57 19 -109 0 -22 -8 -52
-15 -66 -15 -14 0 -40 -5 -58 -11 -24 -8 -39 -8 -61 1 -36 15 -113 6 -135 -16
-8 -8 -30 -21 -50 -29 -33 -14 -35 -14 -35 4 0 53 -44 91 -105 91 -25 0 -63
-32 -75 -65 -8 -20 -14 -23 -48 -18 -25 3 -50 0 -70 -11 -39 -20 -42 -20 -42
4 0 52 -78 77 -139 45 -25 -12 -31 -12 -47 0 -48 36 -104 -4 -130 -91 -10 -35
-26 -63 -49 -82 -45 -40 -65 -72 -70 -116 -3 -22 -24 -64 -55 -108 -27 -39
-50 -80 -50 -90 0 -37 -16 -9 -19 33 -2 44 -19 91 -43 123 -13 17 -13 21 4 38
13 13 18 33 18 68 0 67 -30 126 -76 147 -33 16 -35 20 -33 58 3 55 -8 83 -39
99 -61 32 -128 20 -171 -30 -34 -38 -41 -91 -20 -138 10 -21 7 -29 -26 -69
l-38 -45 -24 28 c-13 16 -36 31 -51 35 -23 5 -33 18 -56 70 -32 73 -52 85
-145 85 -36 0 -65 6 -80 16 -16 12 -36 15 -68 11 -77 -8 -133 -66 -143 -144
-5 -45 -9 -50 -65 -89 l-60 -41 -27 25 c-30 28 -109 52 -148 45 -35 -6 -86
-48 -116 -94 -13 -21 -30 -39 -38 -39 -15 0 -77 -65 -95 -99 -14 -24 -25 -168
-23 -276 l2 -80 -49 53 -48 52 20 41 c23 46 25 101 10 203 -9 62 -14 73 -47
102 -68 58 -177 69 -263 26 -50 -26 -66 -45 -100 -117 -21 -45 -28 -76 -29
-125 -1 -57 -29 -218 -40 -229 -5 -5 -3 -8 -30 44 -12 22 -43 57 -70 77 -61
47 -65 58 -20 58 25 0 38 6 46 19 27 52 -7 202 -57 249 -32 29 -106 30 -167 1
-77 -36 -100 -77 -111 -199 -4 -36 -15 -109 -26 -162 -23 -119 -25 -230 -4
-248 8 -7 15 -25 15 -39 l0 -27 -88 4 c-74 4 -98 1 -159 -21 l-72 -25 -12 37
c-6 20 -20 50 -31 68 -25 41 -16 87 15 79 34 -8 81 36 116 109 65 134 30 263
-84 311 -91 38 -196 -6 -242 -103 l-13 -28 6 30 c14 65 -1 92 -70 127 -85 43
-203 31 -297 -32 -103 -67 -130 -158 -90 -300 12 -41 21 -77 21 -81 0 -3 -35
-19 -77 -34 -138 -49 -163 -69 -204 -159 -13 -28 -27 -53 -30 -56 -43 -36
-120 -347 -106 -433 16 -103 35 -158 69 -199 57 -70 57 -72 52 -231 -4 -110
-1 -162 11 -212 8 -36 15 -87 15 -113 0 -66 82 -405 120 -496 68 -162 192
-188 479 -101 47 14 88 25 92 25 9 0 16 -37 24 -132 3 -37 10 -90 16 -118 9
-44 8 -55 -10 -93 -12 -24 -21 -50 -21 -59 0 -9 -20 -43 -44 -75 -24 -33 -49
-69 -55 -81 -14 -26 -14 -83 0 -142 6 -25 11 -71 11 -102 1 -49 -5 -67 -38
-125 -24 -41 -55 -79 -81 -98 -63 -46 -77 -81 -67 -172 l9 -75 50 -20 c28 -11
64 -32 80 -47 32 -29 100 -71 116 -71 22 0 6 31 -23 46 -18 9 -48 30 -66 45
-18 16 -55 40 -82 54 -47 24 -50 28 -51 65 -1 22 -2 46 -3 53 -5 29 18 66 58
94 49 34 108 125 126 193 13 47 8 127 -12 192 -16 53 -3 97 46 156 24 30 49
72 56 95 20 69 29 82 76 110 50 30 59 33 47 14 -4 -6 -10 -57 -13 -112 -5 -79
-12 -115 -35 -170 -27 -64 -30 -80 -30 -190 -1 -99 -5 -130 -23 -178 -27 -72
-28 -126 -2 -177 13 -26 20 -59 20 -97 0 -51 -4 -64 -30 -93 -30 -36 -38 -64
-20 -75 6 -3 14 4 19 17 17 45 146 148 234 188 23 11 61 20 84 20 23 0 76 7
118 17 67 14 77 14 93 1 84 -74 441 -99 752 -53 14 2 35 4 48 4 13 1 22 7 22
17 0 15 -10 16 -85 10 -46 -4 -94 -9 -107 -12 -13 -4 -86 -7 -163 -9 -150 -4
-336 19 -408 48 -46 20 -49 48 -9 118 22 41 31 49 47 43 11 -4 88 -9 170 -11
156 -5 240 4 372 38 71 19 72 19 119 -1 26 -12 66 -38 89 -59 36 -33 97 -67
175 -98 l25 -10 -33 -17 c-18 -9 -31 -23 -29 -29 5 -14 19 -13 73 7 48 18 58
15 189 -42 50 -22 131 -50 180 -62 160 -40 175 -51 200 -150 44 -174 72 -240
100 -240 19 0 19 19 0 40 -8 9 -30 73 -49 143 -19 69 -40 136 -47 148 -10 20
-7 26 27 56 106 92 334 240 352 229 27 -16 140 -388 149 -489 3 -32 9 -60 13
-62 4 -2 17 3 29 12 22 15 23 20 16 97 -14 180 -55 424 -95 568 -27 97 -70
310 -70 346 0 10 8 12 27 8 133 -27 365 -49 579 -53 l241 -5 -18 -90 c-22
-107 -48 -199 -60 -214 -5 -6 -35 -21 -67 -32 -146 -54 -222 -201 -282 -546
-19 -115 -17 -148 9 -132 6 4 11 19 11 35 0 48 49 282 75 362 48 142 124 231
218 254 l27 7 0 -89 c0 -136 35 -385 62 -437 7 -13 13 -15 21 -7 21 21 33 11
62 -49 53 -112 96 -132 163 -75 37 31 54 31 100 0 49 -33 82 -32 152 7 54 30
61 32 92 20 48 -17 78 -15 113 8 20 13 47 20 79 20 37 0 64 8 110 34 34 18 82
37 108 40 62 9 86 38 127 157 35 100 108 233 150 273 l26 24 61 -19 c45 -14
76 -33 123 -75 109 -99 169 -205 212 -378 15 -60 26 -86 37 -86 19 0 11 50
-28 173 -67 209 -205 366 -358 407 -41 10 -131 84 -119 97 3 3 59 -9 124 -25
271 -70 461 -90 681 -69 97 9 272 44 287 58 24 23 -22 23 -127 1 -89 -19 -150
-25 -288 -28 -199 -3 -257 3 -460 52 -215 51 -241 59 -252 78 -15 27 -4 29 39
8 53 -27 184 -68 300 -92 68 -15 152 -23 278 -27 157 -5 198 -3 320 17 77 12
144 27 150 32 23 21 -22 24 -123 6 -186 -33 -468 -30 -627 6 -169 39 -324 95
-363 132 -35 34 -43 64 -58 212 -17 171 -40 319 -59 373 -8 20 -12 39 -9 42 2
2 28 -4 57 -14 85 -29 207 -50 367 -64 41 -4 86 -9 100 -11 21 -3 594 -16 667
-14 36 0 52 -47 68 -207 27 -259 56 -467 70 -498 16 -37 41 -176 55 -309 11
-103 14 -116 32 -116 21 0 -25 380 -53 432 -14 26 -59 346 -52 365 3 7 9 13
13 13 19 0 28 -32 34 -125 3 -55 20 -167 36 -250 17 -82 38 -203 48 -268 16
-113 33 -153 40 -94 2 16 -9 105 -24 198 -15 93 -25 172 -22 175 3 3 28 2 56
-2 82 -11 111 -42 168 -185 44 -111 64 -142 81 -125 3 3 12 70 19 148 7 79 18
175 23 213 6 39 14 143 17 233 4 91 12 169 18 177 9 12 23 9 85 -21 41 -19 92
-37 113 -40 l38 -7 0 -54 c0 -166 -44 -380 -106 -509 -41 -86 -55 -176 -35
-226 19 -51 34 -33 26 32 -8 66 -1 94 52 208 54 117 81 255 98 487 19 265 21
282 57 335 32 47 68 71 118 77 30 4 44 11 47 24 7 24 58 55 105 64 50 9 202
-12 261 -37 63 -27 143 -115 194 -214 65 -127 111 -262 179 -534 69 -272 78
-348 54 -469 -10 -56 -2 -83 18 -59 19 24 33 177 23 253 -12 83 -76 353 -124
518 -33 115 -33 117 -13 117 12 0 55 9 95 20 40 12 75 19 77 17 2 -2 -3 -37
-11 -78 -15 -78 -14 -192 4 -399 6 -63 11 -167 11 -230 0 -115 8 -149 29 -135
14 8 6 245 -16 480 -16 164 0 314 43 396 24 48 89 55 200 24 50 -14 51 -15 52
-55 2 -54 22 -90 73 -134 48 -41 124 -69 183 -68 l41 1 0 -122 c0 -119 1 -125
39 -217 49 -123 70 -156 115 -186 32 -21 37 -29 33 -54 -5 -35 -20 -37 -77
-11 -72 33 -158 107 -417 361 -71 69 -135 126 -143 128 -32 7 -12 -28 51 -87
36 -35 71 -77 79 -94 7 -18 16 -81 19 -142 10 -169 16 -205 34 -205 15 0 14
45 -5 248 -3 34 -3 62 0 62 3 0 57 -48 119 -106 134 -126 237 -201 287 -210
20 -4 44 -11 53 -15 10 -5 19 -5 22 0 3 5 17 105 31 223 18 153 39 271 75 418
61 256 52 246 205 234 325 -26 792 0 938 52 39 14 60 12 41 -5 -11 -9 -159
-45 -258 -62 -83 -14 -656 -18 -763 -5 -64 7 -73 6 -73 -8 0 -9 1 -16 3 -17
41 -9 269 -25 342 -24 55 1 159 4 230 5 204 4 343 23 496 66 27 7 33 -61 9
-105 -31 -60 -39 -99 -50 -256 -19 -271 -23 -468 -11 -499 6 -16 15 -26 19
-22 4 4 7 62 8 129 1 67 4 169 8 227 3 58 9 146 12 195 3 50 10 110 15 135 12
53 45 110 65 110 8 0 31 -16 52 -35 20 -19 59 -55 86 -80 26 -25 85 -66 130
-92 66 -38 92 -47 143 -51 57 -4 64 -7 85 -37 12 -19 72 -67 132 -107 78 -52
117 -85 137 -117 16 -24 26 -47 24 -51 -3 -5 -32 1 -66 11 -79 25 -124 24
-149 -1 -17 -17 -20 -33 -20 -114 0 -95 12 -152 30 -141 5 3 7 45 3 103 -6
105 3 142 36 142 9 0 71 -16 137 -35 138 -40 219 -52 335 -50 193 4 268 45
339 185 16 32 38 61 47 64 10 3 59 8 108 11 l90 7 82 -41 c45 -23 104 -62 131
-86 53 -48 212 -239 212 -256 0 -5 7 -9 15 -9 32 0 11 41 -80 153 -74 90 -170
182 -212 202 -2 1 6 42 16 91 20 89 44 243 56 361 6 55 10 63 33 72 15 5 39
21 53 34 38 34 109 159 109 190 0 15 4 57 10 94 56 381 68 550 42 604 -9 19
-20 37 -25 40 -5 3 3 23 18 44 46 69 70 167 70 290 0 96 -4 120 -29 187 -15
42 -34 79 -42 82 -7 3 -12 11 -10 18 3 7 23 70 46 141 70 216 68 371 -4 451
-24 25 -42 36 -62 36 -27 0 -30 4 -42 52 -14 61 -54 114 -107 144 -22 13 -52
45 -75 80 -66 104 -111 134 -201 134 -60 0 -91 -15 -143 -69 -38 -39 -40 -42
-38 -106 2 -66 13 -131 31 -178 9 -22 6 -31 -15 -57 -32 -37 -44 -38 -44 -2 0
15 -9 58 -20 95 -10 38 -22 101 -25 140 -10 124 -89 255 -178 295 -39 17 -99
15 -149 -5 -77 -29 -84 -41 -109 -189 -16 -96 -7 -138 31 -154 17 -7 30 -17
30 -22 0 -5 -19 -28 -43 -51 -23 -23 -51 -59 -62 -80 -14 -26 -24 -35 -35 -31
-35 15 -107 15 -149 1 -24 -9 -49 -13 -55 -11 -23 9 -56 135 -61 227 -4 101
-17 145 -56 204 -29 42 -96 83 -136 83 -19 0 -20 3 -12 41 12 53 0 91 -49 150
-20 25 -51 67 -69 92 -41 59 -90 77 -162 58 -46 -11 -81 -8 -81 9 0 5 -16 18
-36 30 -29 19 -45 22 -87 17 -28 -4 -56 -2 -62 3 -6 5 -22 11 -35 14 -47 8
-61 18 -54 35 3 9 9 24 11 34 8 25 -36 115 -59 123 -34 10 -149 -39 -161 -69
-3 -7 3 -31 13 -53 10 -21 20 -55 24 -74 6 -35 5 -37 -40 -58 l-47 -23 7 28
c18 81 18 124 2 167 -9 24 -24 47 -32 50 -12 5 -10 12 11 41 53 69 40 156 -29
189 -38 18 -38 18 -82 5z m96 -61 c23 -37 20 -68 -9 -108 -20 -27 -48 -34 -42
-10 14 56 14 59 -15 67 -16 4 -34 6 -41 5 -6 -1 -15 7 -19 20 -9 29 27 58 72
58 28 0 38 -6 54 -32z m-101 -100 c6 -16 5 -27 -4 -37 -20 -21 -40 -7 -43 28
-2 25 1 31 18 31 12 0 24 -9 29 -22z m-6339 -53 c40 -21 38 -31 -10 -39 -22
-3 -48 -15 -57 -26 -10 -11 -23 -20 -30 -20 -6 0 -18 -9 -26 -20 -8 -11 -17
-17 -20 -13 -13 13 -6 68 11 89 36 45 82 55 132 29z m3958 -45 c11 -20 11 -31
1 -55 l-12 -30 -7 32 c-9 40 -27 63 -49 63 -14 0 -14 2 -1 10 24 16 53 7 68
-20z m317 3 c12 -11 15 -25 11 -46 -3 -17 -8 -32 -10 -34 -7 -8 -96 50 -96 62
0 33 68 46 95 18z m2418 -23 c14 -37 14 -41 -4 -62 l-18 -23 -1 23 c0 12 -4
23 -10 23 -5 1 -13 2 -17 3 -5 1 -27 6 -50 10 -24 4 -43 12 -43 17 0 13 72 48
101 49 21 0 29 -7 42 -40z m-7308 24 c16 -6 45 -54 45 -74 0 -5 -6 -10 -14
-10 -8 0 -29 -17 -47 -37 -19 -23 -34 -33 -37 -25 -8 26 -36 43 -63 40 -16 -1
-29 1 -29 5 -1 28 2 36 20 56 10 13 36 29 57 37 45 16 47 16 68 8z m1640 -4
c9 -14 -13 -40 -33 -40 -8 0 -24 -7 -34 -17 -17 -15 -18 -15 -18 5 0 42 66 82
85 52z m551 -8 c8 -5 3 -17 -15 -39 l-27 -33 -22 30 -22 29 32 10 c43 12 41
12 54 3z m4851 -1 c7 -1 17 -20 23 -43 9 -33 8 -55 -5 -113 -22 -93 -27 -100
-53 -86 -59 31 -138 -5 -164 -74 -9 -26 -18 -35 -35 -35 -19 0 -23 5 -23 34 0
18 5 47 11 65 9 25 17 31 39 31 35 0 136 78 121 93 -7 7 -28 -2 -65 -27 -58
-41 -90 -42 -101 -4 -7 21 10 43 100 129 37 35 44 38 90 34 28 -2 55 -4 62 -4z
m-6884 -17 c10 -10 -33 -44 -54 -44 -22 0 -33 16 -25 35 5 15 66 21 79 9z
m1164 -11 c7 -17 -27 -51 -89 -88 -27 -17 -32 -26 -30 -49 3 -22 0 -27 -15
-24 -10 2 -17 11 -17 21 1 9 2 28 3 41 4 72 127 155 148 99z m-679 -15 c2 -12
-8 -22 -31 -32 -19 -7 -42 -24 -52 -37 l-17 -24 7 23 c5 17 1 24 -17 31 -14 6
-17 10 -7 10 8 1 25 13 38 27 25 29 74 31 79 2z m483 -4 c-12 -15 -21 -33 -21
-40 0 -8 -4 -14 -10 -14 -5 0 -10 6 -10 14 0 17 38 66 51 66 6 0 1 -12 -10
-26z m779 16 c17 -9 17 -12 3 -48 l-15 -38 -39 39 c-21 22 -39 41 -39 43 0 1
15 5 33 7 17 2 33 5 35 5 2 1 12 -2 22 -8z m157 0 c61 -22 76 -110 19 -110
-14 0 -28 5 -31 10 -3 6 -19 17 -35 25 -26 13 -30 13 -54 -6 l-26 -20 0 23 c1
32 30 67 65 77 17 5 30 10 31 10 1 1 14 -4 31 -9z m261 -15 c21 -19 -11 -75
-42 -75 -31 0 -49 -23 -48 -60 1 -25 -3 -30 -22 -30 -31 0 -46 19 -46 57 0 96
99 164 158 108z m2196 9 c13 -33 4 -42 -23 -25 -14 9 -9 41 8 41 5 0 12 -7 15
-16z m-4306 -26 c16 -20 41 -102 34 -113 -3 -5 -10 5 -14 22 -5 17 -21 44 -37
59 -30 28 -32 44 -7 44 8 0 18 -6 24 -12z m5110 -25 c12 -13 22 -32 23 -41 1
-9 2 -30 3 -45 2 -16 -3 -31 -10 -34 -20 -7 -54 16 -54 37 0 19 -9 24 -41 21
-8 -1 -21 10 -29 24 -7 14 -17 25 -22 25 -19 0 -6 19 25 33 39 20 75 13 105
-20z m-3819 8 c22 -22 36 -88 22 -105 -5 -6 -24 -13 -41 -14 -25 -2 -33 3 -43
25 -6 16 -23 37 -36 49 l-24 20 28 22 c34 27 69 28 94 3z m151 4 c0 -22 -37
-55 -60 -55 -13 0 -20 7 -20 19 0 22 25 45 39 37 5 -4 12 -2 16 4 9 15 25 12
25 -5z m3187 -13 c8 -20 -27 -47 -39 -29 -4 6 -8 22 -8 34 0 17 4 20 21 16 11
-3 23 -13 26 -21z m-2999 -19 c17 -23 16 -26 -17 -51 l-29 -21 -16 24 c-9 14
-31 31 -48 38 l-31 13 33 16 c37 18 87 10 108 -19z m2630 17 c41 -25 66 -79
53 -113 -13 -34 -39 -43 -33 -11 3 19 -1 26 -24 34 -15 6 -34 19 -41 30 -8 11
-28 20 -50 22 -46 4 -53 22 -16 42 38 21 72 20 111 -4z m2760 14 c27 -8 28
-24 3 -55 -23 -28 -30 -24 -38 25 -6 37 -3 40 35 30z m-2212 -99 c1 -93 1 -95
-22 -95 -21 0 -24 5 -24 40 0 32 -7 48 -35 79 -27 29 -32 41 -23 49 15 12 43
19 78 21 25 1 25 1 26 -94z m124 76 c0 -41 -9 -49 -46 -41 -48 11 -53 19 -25
41 31 25 71 25 71 0z m-4982 -11 c53 -33 44 -53 -48 -106 -25 -14 -58 -44 -73
-66 -27 -38 -30 -39 -45 -24 -21 21 -23 122 -2 161 28 53 110 70 168 35z
m1172 10 c0 -5 -5 -10 -11 -10 -5 0 -7 5 -4 10 3 6 8 10 11 10 2 0 4 -4 4 -10z
m3361 0 c34 -19 21 -27 -41 -26 -33 0 -60 3 -60 5 0 2 8 10 18 17 21 16 56 18
83 4z m-3984 -17 c4 -9 -3 -34 -16 -56 -34 -59 -30 -113 18 -237 29 -74 37
-106 29 -111 -10 -6 -107 -1 -116 6 -1 1 4 22 12 46 9 24 16 52 16 61 0 22
-46 75 -81 94 -19 9 -29 22 -29 37 0 41 41 147 63 162 30 21 96 20 104 -2z
m5580 2 c27 -19 34 -49 16 -74 -16 -24 -33 -27 -33 -7 0 7 -14 27 -31 44 -29
28 -30 31 -12 41 24 14 35 14 60 -4z m-754 -26 c23 -28 22 -64 -3 -89 -25 -25
-44 -27 -31 -2 16 30 -5 54 -41 47 -21 -5 -35 -2 -49 11 -25 23 -24 30 9 49
35 20 92 12 115 -16z m-5624 -16 c14 -50 -2 -68 -29 -33 -28 37 -25 70 6 70 7
0 18 -17 23 -37z m1218 -19 c-3 -3 -19 1 -38 8 l-32 14 34 17 34 16 3 -25 c2
-14 1 -28 -1 -30z m1225 -33 c-5 -34 -10 -36 -45 -20 -32 15 -64 78 -34 66 8
-3 27 6 43 20 l29 25 6 -30 c3 -16 4 -43 1 -61z m3422 68 c24 -19 27 -27 24
-72 -2 -28 -8 -52 -14 -54 -7 -2 -22 17 -34 42 -12 25 -34 53 -47 62 -24 16
-24 17 -7 30 25 18 47 16 78 -8z m-3758 -10 c18 -17 21 -26 13 -40 -21 -39
-60 -11 -51 37 5 29 10 30 38 3z m4588 0 c35 -27 33 -40 -4 -27 -17 5 -36 8
-43 6 -13 -5 -49 27 -39 36 12 13 61 5 86 -15z m-6088 -16 c6 -22 -9 -109 -20
-121 -2 -1 -14 -5 -27 -7 -13 -3 -36 -7 -51 -11 -26 -5 -28 -3 -28 28 0 35 15
64 58 111 33 35 60 35 68 0z m865 14 c9 -7 21 -22 28 -34 10 -20 6 -30 -40
-89 -44 -56 -55 -65 -76 -59 -17 4 -30 -1 -49 -20 -14 -14 -26 -25 -28 -25 -3
0 19 100 35 162 5 21 19 47 31 58 24 22 74 26 99 7z m3819 -16 c7 -18 26 -35
51 -46 47 -22 38 -41 -13 -29 -18 4 -39 8 -47 8 -8 1 -19 16 -23 35 -16 59 10
85 32 32z m-3456 3 c17 -17 15 -26 -17 -61 -14 -16 -27 -21 -44 -17 -28 8 -53
-11 -53 -40 0 -18 -3 -16 -16 9 -8 17 -27 40 -42 51 -24 19 -25 24 -12 39 21
25 48 34 112 34 39 1 61 -4 72 -15z m2926 -30 c0 -39 2 -39 -38 -18 -37 18
-41 41 -9 53 33 13 47 3 47 -35z m1492 32 c9 -8 13 -32 12 -62 -1 -27 -2 -61
-3 -76 l-1 -27 -35 22 c-19 12 -38 32 -41 45 -3 12 -19 33 -35 46 -16 14 -29
29 -29 35 0 29 106 43 132 17z m1112 -1 c-4 -8 -8 -15 -10 -15 -2 0 -4 7 -4
15 0 8 4 15 10 15 5 0 7 -7 4 -15z m129 -2 c12 -7 8 -51 -8 -90 -8 -19 -15
-46 -15 -59 0 -45 -90 -60 -142 -23 -27 20 -29 26 -26 72 3 55 -12 72 -30 33
-7 -16 -27 -29 -62 -41 -54 -18 -64 -17 -55 6 8 20 138 89 152 81 6 -4 13 -18
14 -32 7 -43 33 -35 59 20 l25 50 40 -6 c22 -3 43 -8 48 -11z m-5489 -1 c3 -5
-8 -9 -25 -10 -16 0 -27 4 -24 9 8 11 42 12 49 1z m226 -40 c11 -29 10 -35 -6
-53 -17 -19 -19 -19 -25 -2 -4 10 -8 31 -8 46 -1 18 -6 27 -13 24 -9 -2 -12
-19 -10 -48 1 -24 5 -82 8 -129 l5 -85 -37 37 -37 36 13 46 c7 25 10 55 7 67
-7 25 28 84 58 97 23 11 27 8 45 -36z m2269 18 c12 -17 27 -28 33 -24 19 12
-4 -39 -26 -58 -42 -35 -56 -19 -56 63 0 58 15 64 49 19z m709 7 c15 -12 16
-27 0 -27 -6 0 -22 -10 -35 -21 l-22 -22 -11 28 c-16 41 -5 63 28 57 15 -2 33
-9 40 -15z m-4802 5 c20 -13 32 -47 40 -110 8 -73 -9 -86 -27 -19 -6 23 -22
56 -35 74 -32 42 -17 81 22 55z m432 -48 c-2 -27 -8 -40 -21 -42 -26 -5 -32
25 -13 65 21 44 39 32 34 -23z m4062 33 c3 0 17 3 31 7 24 5 26 3 21 -19 -2
-13 0 -38 6 -54 8 -23 7 -32 -3 -41 -11 -9 -17 -4 -30 23 -9 19 -32 43 -51 53
-32 18 -42 33 -28 47 4 3 16 1 28 -5 11 -7 23 -12 26 -11z m126 -37 c-4 -64
-36 -48 -36 17 0 45 1 46 19 29 12 -11 18 -28 17 -46z m1030 5 c2 -81 3 -85
33 -103 21 -12 27 -22 21 -31 -12 -20 -86 45 -101 86 -8 26 -17 34 -45 39 -37
7 -46 14 -36 30 14 22 48 34 87 31 l40 -2 1 -50z m1594 33 c44 -30 49 -55 32
-165 -18 -110 -10 -140 38 -149 24 -5 30 -12 30 -33 0 -14 -11 -43 -25 -64
-14 -20 -30 -47 -35 -59 -6 -17 -9 2 -9 65 -1 93 -16 145 -48 168 -12 8 -23
32 -27 57 -3 24 -14 55 -23 68 -21 33 -34 106 -21 122 16 19 51 14 88 -10z
m-7693 -34 c13 -20 22 -25 42 -21 24 5 27 1 44 -51 26 -83 21 -132 -12 -132
-9 0 -34 -22 -55 -50 -21 -27 -42 -50 -47 -50 -18 0 -21 31 -5 49 16 18 22 93
10 125 -11 28 -34 -2 -34 -44 l0 -38 -51 -4 c-31 -2 -53 1 -56 8 -2 6 -3 48
-1 95 l3 83 54 38 c59 41 76 40 108 -8z m5836 16 c27 -32 51 -118 46 -160 -3
-17 -11 -26 -26 -28 -19 -3 -23 1 -23 26 0 52 -19 89 -55 106 -18 9 -40 16
-48 16 -28 0 -29 19 -3 45 35 35 77 33 109 -5z m537 -10 c0 -3 -7 -15 -15 -26
-13 -18 -14 -16 -14 26 0 42 1 44 14 26 8 -11 15 -23 15 -26z m250 15 c-26
-28 -40 -32 -40 -12 0 19 21 37 44 37 18 0 18 -1 -4 -25z m-6860 -20 c56 -54
32 -110 -51 -121 -40 -6 -47 -4 -61 18 -9 13 -34 30 -57 37 -23 6 -41 15 -41
20 0 11 30 44 60 65 38 26 112 17 150 -19z m1480 8 c13 -14 10 -15 -31 -9 -25
4 -58 2 -72 -3 -38 -15 -34 3 6 23 35 18 73 13 97 -11z m851 -3 c16 -9 49 -58
49 -75 0 -3 -7 -5 -15 -5 -8 0 -30 -24 -48 -52 -43 -67 -57 -79 -106 -85 -34
-5 -41 -2 -56 21 -13 19 -15 36 -10 63 9 52 45 112 75 129 30 16 84 18 111 4z
m3459 -5 c7 -9 19 -14 27 -11 9 4 13 -4 13 -25 0 -27 -2 -29 -27 -23 -16 4
-31 9 -34 13 -4 3 -9 18 -13 34 -7 31 13 38 34 12z m1209 -11 c22 -28 28 -54
12 -54 -6 0 -13 5 -16 11 -4 6 -25 24 -47 40 l-41 29 36 0 c27 0 41 -7 56 -26z
m-5419 2 c0 -26 -13 -76 -19 -76 -4 0 -15 16 -26 36 -16 30 -17 37 -4 45 21
13 49 11 49 -5z m4830 -6 c20 -20 27 -64 12 -74 -20 -12 -52 25 -52 60 0 39
11 43 40 14z m1777 -22 c30 -28 29 -36 -4 -44 -16 -3 -47 -13 -71 -22 -41 -14
-44 -14 -70 5 -50 37 -37 78 31 93 41 8 84 -3 114 -32z m-7652 -5 c-8 -43 -20
-55 -52 -46 -18 4 -23 1 -23 -15 0 -15 -10 -22 -40 -30 -42 -10 -54 0 -21 18
11 5 29 26 41 45 19 31 64 61 94 64 4 1 5 -16 1 -36z m1402 2 c31 -35 29 -78
-2 -110 -14 -14 -27 -25 -29 -25 -2 0 -28 11 -57 25 -30 13 -69 25 -87 27 -17
1 -32 6 -32 10 0 5 22 31 49 59 48 50 52 52 93 46 29 -4 50 -14 65 -32z m4786
-20 c12 -35 13 -50 3 -78 l-12 -35 -24 19 c-14 10 -40 21 -58 25 -18 3 -35 11
-38 16 -8 13 42 83 69 95 32 15 44 7 60 -42z m-1723 26 c14 -27 13 -51 -4 -51
-14 0 -46 41 -46 60 0 18 39 11 50 -9z m146 2 c42 -27 47 -55 18 -110 -36 -68
-70 -110 -94 -116 -28 -7 -70 48 -73 98 -3 51 19 57 38 11 20 -47 50 -50 41
-5 -5 27 2 76 19 127 6 16 21 15 51 -5z m360 2 c7 -16 8 -55 5 -95 -3 -25 -3
-25 -16 5 -17 35 -19 105 -5 105 6 0 13 -7 16 -15z m214 -5 c0 -11 -12 -26
-28 -34 -41 -21 -53 -39 -57 -88 -2 -24 -4 -46 -4 -50 -1 -5 -12 -8 -25 -8
-13 0 -40 -11 -60 -25 l-37 -25 7 37 c12 70 45 115 119 165 39 26 73 47 78 47
4 1 7 -8 7 -19z m-4232 -19 c46 -25 52 -68 23 -171 l-18 -65 -114 3 c-112 4
-149 12 -149 34 0 22 132 209 153 217 23 9 70 1 105 -18z m5455 2 c34 -26 57
-67 44 -79 -3 -3 -20 -8 -39 -10 -18 -3 -54 -18 -80 -34 -29 -17 -48 -24 -48
-17 0 7 -9 29 -20 49 -23 44 -15 74 28 101 39 24 74 21 115 -10z m-6294 3 c6
-8 17 -39 23 -70 10 -48 10 -60 -6 -92 l-17 -37 -23 34 c-23 34 -44 49 -101
70 -29 11 -29 11 -9 19 26 10 54 48 54 72 0 14 8 18 34 18 18 0 39 -6 45 -14z
m1927 3 c5 -8 28 -10 72 -6 62 6 66 5 91 -22 27 -29 91 -140 91 -159 0 -5 -22
-9 -49 -8 -42 1 -54 6 -94 44 -52 47 -57 49 -57 25 1 -10 23 -42 51 -72 38
-40 53 -51 62 -42 11 11 57 16 57 6 0 -12 -85 -81 -106 -87 -16 -4 -40 2 -73
19 -128 63 -170 203 -89 291 24 25 34 27 44 11z m2339 1 c3 -5 1 -10 -4 -10
-6 0 -11 5 -11 10 0 6 2 10 4 10 3 0 8 -4 11 -10z m1333 -2 c20 -20 13 -36
-18 -40 -31 -5 -40 5 -32 35 5 20 32 23 50 5z m1145 -31 c23 -23 55 -66 70
-95 25 -47 27 -55 15 -79 -13 -27 -17 -28 -86 -29 l-72 0 -25 41 c-13 24 -28
60 -33 81 -6 22 -12 46 -16 54 -10 28 38 69 82 70 14 0 39 -17 65 -43z m457
-68 c0 -17 -6 -20 -32 -17 -30 3 -33 6 -36 39 -2 19 2 48 8 63 l10 28 25 -46
c14 -26 25 -56 25 -67z m-8398 70 c36 -18 55 -49 43 -69 -3 -5 -11 -10 -17
-10 -6 0 -19 -6 -27 -14 -14 -13 -23 -12 -71 4 -30 11 -69 19 -85 20 -39 0
-100 -31 -126 -65 -31 -38 -33 -25 -6 37 28 64 73 105 125 113 20 4 42 8 47 9
21 6 82 -7 117 -25z m6128 16 c-7 -8 -16 -15 -21 -15 -5 0 -9 7 -9 15 0 9 9
15 21 15 18 0 19 -2 9 -15z m-3525 -5 c4 -6 15 -8 26 -5 17 6 19 3 13 -22 -9
-39 -8 -38 -54 -53 -57 -19 -74 0 -26 30 30 18 34 25 26 41 -11 20 3 28 15 9z
m3945 -5 c24 -12 30 -23 35 -62 9 -73 34 -172 51 -205 17 -32 13 -58 -8 -58
-36 0 -168 160 -168 203 0 8 -12 36 -26 63 -24 45 -25 49 -8 61 24 17 88 16
124 -2z m1550 -18 c0 -15 -11 -29 -31 -41 -29 -17 -31 -17 -44 1 -18 24 0 40
73 62 1 1 2 -9 2 -22z m-8636 -2 c13 -14 13 -19 -5 -50 -12 -20 -23 -63 -27
-102 l-7 -67 -54 -37 c-93 -64 -132 -110 -157 -186 l-24 -68 6 60 c4 33 12 87
19 120 8 33 17 94 20 135 8 95 20 131 49 159 48 45 150 65 180 36z m5792 -43
c-16 -15 -26 -21 -22 -14 13 22 -5 35 -24 17 -11 -10 -20 -12 -24 -6 -4 5 10
21 31 35 33 23 39 24 52 11 14 -13 12 -18 -13 -43z m752 -2 c20 -30 23 -43 18
-95 -6 -70 -32 -100 -75 -90 -29 6 -171 147 -171 169 0 29 37 59 81 66 65 9
119 -9 147 -50z m371 25 c16 -14 35 -42 41 -63 7 -20 30 -77 52 -126 40 -86
40 -90 29 -141 -7 -29 -21 -61 -32 -71 -20 -18 -21 -18 -35 1 -8 10 -14 23
-14 28 0 10 -83 147 -112 186 -10 14 -34 35 -53 48 -36 25 -48 64 -32 114 16
53 105 66 156 24z m328 3 c-3 -8 -6 -5 -6 6 -1 11 2 17 5 13 3 -3 4 -12 1 -19z
m349 -19 c3 -6 -8 -42 -25 -79 -57 -124 -51 -172 25 -186 19 -3 34 -12 34 -18
0 -33 -35 -109 -63 -136 -56 -54 -72 -34 -62 77 6 61 -2 158 -21 249 -5 25 -1
37 14 52 11 11 28 32 37 46 14 21 21 24 35 16 11 -6 22 -15 26 -21z m-6704 15
c8 -7 -22 -94 -32 -94 -4 0 -11 7 -14 16 -3 9 -15 14 -28 12 -29 -4 -35 -40
-14 -73 20 -31 10 -58 -38 -105 l-36 -34 5 79 c4 44 8 94 11 111 4 30 44 76
74 87 21 7 65 8 72 1z m1112 -4 c37 -14 66 -47 66 -75 0 -22 -5 -25 -50 -31
-28 -4 -54 -12 -58 -18 -3 -6 -7 -36 -8 -66 0 -30 -1 -72 -2 -93 l-2 -38 -47
7 c-34 5 -59 17 -86 40 -20 19 -42 34 -47 34 -32 0 8 138 57 197 39 47 117 66
177 43z m4004 -12 c5 -7 18 -36 27 -63 21 -60 15 -109 -13 -101 -11 4 -30 -7
-55 -33 -53 -55 -97 -73 -190 -78 -84 -4 -99 2 -90 38 5 19 17 25 67 33 43 8
185 79 186 94 0 21 -36 13 -104 -23 -37 -19 -78 -35 -92 -35 l-26 0 19 30 c18
28 82 107 111 137 18 17 146 18 160 1z m1405 -18 c14 -16 28 -38 31 -47 13
-46 26 -142 26 -195 0 -51 -2 -58 -19 -58 -11 0 -23 -5 -27 -11 -8 -14 -68 -5
-124 17 -38 15 -40 18 -35 53 12 76 12 129 0 174 -11 43 -10 48 9 65 47 43
105 43 139 2z m1723 -14 c-3 -12 -6 -36 -6 -53 0 -28 -4 -33 -24 -33 -37 0
-42 29 -20 112 4 14 9 15 30 6 19 -9 24 -17 20 -32z m208 23 c59 -47 75 -131
31 -174 -39 -40 -59 -29 -60 34 0 28 -6 38 -34 53 -19 11 -52 21 -73 23 -21 1
-41 5 -44 8 -11 11 22 47 56 61 50 21 93 19 124 -5z m-8374 -11 c15 -16 20
-35 20 -73 0 -55 -14 -76 -57 -89 -21 -7 -28 -22 -24 -53 1 -7 -1 -13 -4 -13
-12 0 -75 29 -75 35 0 9 22 49 30 55 9 6 50 95 50 107 0 10 29 53 35 53 2 0
13 -10 25 -22z m1236 4 c14 -22 29 -90 18 -79 -12 12 -43 97 -35 97 3 0 11 -8
17 -18z m-1096 -46 c-9 -25 -14 -28 -42 -22 -40 8 -53 20 -44 41 4 11 12 14
26 10 11 -4 29 0 42 10 28 19 35 4 18 -39z m7674 21 c50 4 59 3 49 -7 -21 -23
-111 -22 -157 2 -36 18 -38 22 -21 28 13 5 28 1 44 -11 19 -15 34 -17 85 -12z
m-6034 14 c0 -6 -5 -13 -11 -17 -6 -3 -22 -31 -35 -60 -25 -57 -49 -74 -38
-26 9 37 23 63 47 90 21 23 37 29 37 13z m-3685 -21 c36 -13 75 -48 75 -66 0
-21 -48 -86 -86 -117 -22 -18 -34 -37 -34 -53 0 -21 -5 -24 -33 -24 -55 0
-133 -28 -182 -65 -31 -24 -47 -31 -50 -23 -13 40 -35 140 -35 162 0 55 63
136 133 173 59 30 152 36 212 13z m983 -19 c21 -67 13 -111 -19 -111 -18 0
-23 15 -21 65 1 32 14 85 21 85 4 0 13 -17 19 -39z m2859 28 c36 -13 78 -54
93 -90 10 -23 8 -37 -13 -91 -14 -35 -28 -89 -32 -122 -4 -32 -10 -54 -14 -49
-3 6 -16 15 -28 22 -13 6 -23 18 -23 26 0 37 -64 -13 -76 -59 -6 -24 -11 -26
-55 -26 -27 0 -66 -7 -86 -15 -20 -8 -38 -13 -41 -10 -3 3 14 45 37 94 29 61
44 107 47 147 7 71 20 111 48 143 36 40 88 51 143 30z m4834 -4 c38 -20 83
-90 75 -119 -3 -11 -15 -49 -27 -84 -18 -50 -25 -61 -38 -56 -9 4 -31 8 -49 8
-33 1 -34 1 -29 41 3 22 8 52 12 67 6 24 3 29 -29 45 -50 23 -58 58 -22 90 31
27 65 29 107 8z m127 -29 c2 -28 0 -37 -10 -34 -7 3 -14 22 -16 42 -2 28 0 37
10 34 7 -3 14 -22 16 -42z m420 32 c7 -7 12 -29 12 -51 0 -29 7 -45 28 -66 27
-28 28 -28 9 -53 l-19 -26 -44 22 -44 21 0 76 c0 42 3 79 7 82 10 11 38 8 51
-5z m-6663 -17 c47 -22 68 -44 84 -90 21 -62 16 -71 -34 -71 -64 0 -103 -19
-157 -78 -51 -56 -69 -59 -92 -13 -11 22 -11 40 -1 106 16 96 22 113 48 143
26 28 94 30 152 3z m1575 0 c0 -25 -25 -34 -41 -15 -10 13 -10 17 2 25 23 14
39 10 39 -10z m3090 7 c0 -7 3 -22 5 -33 8 -32 -8 -49 -33 -36 -21 11 -21 13
-5 46 17 35 33 46 33 23z m-5784 -40 c18 -13 38 -33 43 -46 23 -49 5 -128 -37
-166 -12 -10 -24 -33 -28 -51 -6 -32 -6 -32 -65 -33 -77 0 -136 -29 -193 -94
-71 -82 -101 -150 -101 -233 1 -38 7 -83 14 -100 17 -37 21 -55 13 -55 -4 0
-29 13 -57 28 -71 39 -72 68 -5 195 62 117 80 168 114 323 52 228 99 284 225
262 25 -5 60 -18 77 -30z m7598 17 c14 -13 26 -29 26 -35 0 -17 -48 -11 -102
12 -49 21 -49 22 -26 34 36 20 72 16 102 -11z m-7504 -11 c12 -31 13 -114 1
-132 -5 -9 -10 6 -13 42 -3 32 -12 63 -21 74 -13 14 -14 21 -5 30 18 18 27 15
38 -14z m2510 8 c27 -22 14 -37 -42 -47 -43 -8 -42 -9 -27 34 13 36 36 40 69
13z m384 -21 l38 -38 -48 -27 c-44 -25 -48 -25 -66 -10 -10 10 -18 20 -18 25
0 6 51 89 55 89 0 0 18 -17 39 -39z m-4079 9 c45 -22 75 -64 75 -106 0 -35
-74 -107 -102 -98 -24 7 -45 -11 -63 -53 -12 -28 -19 -33 -48 -33 -56 0 -80
27 -85 97 -5 71 8 116 45 160 48 55 108 67 178 33z m3975 -5 c-13 -14 -28 -25
-34 -25 -6 1 3 12 19 25 39 32 45 32 15 0z m5578 -1 c29 -19 52 -72 52 -119
l0 -36 -52 29 c-29 16 -79 40 -110 52 l-57 23 16 29 c29 47 97 57 151 22z
m-1759 -6 c-1 -13 -5 -36 -8 -53 -7 -30 -8 -29 -17 15 -7 31 -7 47 0 52 19 13
26 9 25 -14z m1533 0 c21 1 38 -2 38 -6 0 -19 -30 -47 -52 -48 -13 0 -52 -4
-87 -8 l-64 -8 17 23 c9 13 16 31 16 41 0 20 45 29 75 14 11 -5 36 -8 57 -8z
m-562 -24 c0 -8 -4 -14 -10 -14 -5 0 -10 9 -10 21 0 11 5 17 10 14 6 -3 10
-13 10 -21z m-4863 -19 c75 -31 130 -94 148 -167 6 -22 3 -27 -17 -33 -12 -4
-30 -14 -39 -22 -11 -9 -26 -12 -43 -7 -20 5 -26 12 -26 35 0 98 -38 165 -112
199 -21 9 -35 19 -32 22 7 7 76 -8 121 -27z m3140 -74 c12 -6 37 -11 55 -12
33 0 33 0 -10 -14 -23 -7 -54 -21 -68 -30 -25 -16 -27 -16 -57 12 -46 41 -47
43 -47 103 l0 54 53 -51 c28 -28 62 -56 74 -62z m1533 98 c13 -9 13 -11 0 -16
-24 -10 -80 -72 -84 -96 -3 -12 -8 -66 -11 -119 -7 -97 -7 -98 -40 -118 -44
-27 -46 -26 -30 20 8 21 16 91 19 154 2 63 9 123 15 135 24 45 94 66 131 40z
m364 -5 c3 -8 2 -12 -4 -9 -6 3 -10 10 -10 16 0 14 7 11 14 -7z m882 1 c10 -8
28 -15 38 -15 18 0 18 -1 1 -20 -17 -19 -17 -21 -1 -39 15 -16 15 -22 4 -40
-16 -26 -19 -26 -41 -1 -9 11 -28 20 -42 20 -23 0 -25 3 -25 48 0 27 3 52 7
55 11 12 38 8 59 -8z m-7995 -7 c2 -36 10 -54 30 -69 32 -24 16 -42 -30 -34
-47 9 -58 18 -66 62 -4 25 -2 38 7 44 20 13 58 11 59 -3z m5518 -8 c88 -44
114 -107 102 -240 -5 -56 -54 -48 -81 13 -11 23 -25 50 -33 59 -19 23 -79 48
-117 48 -34 0 -38 13 -16 64 16 38 60 76 88 76 10 0 36 -9 57 -20z m-5625 -6
c9 -23 7 -92 -2 -98 -11 -6 -46 23 -67 57 -14 22 -15 30 -5 42 17 20 66 19 74
-1z m263 -6 c-3 -8 -6 -5 -6 6 -1 11 2 17 5 13 3 -3 4 -12 1 -19z m653 16 c0
-3 -12 -26 -27 -52 l-28 -47 -3 39 c-4 52 3 66 33 66 14 0 25 -3 25 -6z m4204
-20 c19 -9 36 -26 39 -38 2 -12 8 -28 11 -37 5 -12 -1 -19 -24 -28 -28 -9 -39
-7 -96 24 -36 19 -67 35 -69 35 -15 0 -1 -31 22 -48 l27 -20 -19 -83 c-21 -98
-29 -111 -64 -107 -25 3 -26 5 -24 63 4 83 22 185 39 213 11 17 21 21 38 16
14 -3 36 1 53 10 15 8 29 15 30 16 1 0 18 -7 37 -16z m1394 -42 c-2 -8 -13
-21 -25 -29 -19 -13 -24 -12 -42 6 -11 11 -18 27 -16 36 3 8 7 22 10 30 4 12
10 11 40 -6 21 -12 35 -28 33 -37z m-4422 21 c46 -23 70 -62 77 -119 6 -58 -7
-82 -55 -104 -24 -11 -55 -33 -71 -49 -47 -50 -140 -54 -171 -7 -43 66 0 260
64 294 33 17 108 10 156 -15z m4921 1 l26 -16 -53 -22 c-43 -17 -58 -29 -75
-61 -21 -40 -22 -41 -51 -29 -37 15 -59 57 -44 84 12 22 57 55 85 63 31 9 85
0 112 -19z m-5697 -20 c66 -5 106 -12 116 -21 19 -20 18 -58 -6 -123 -12 -30
-23 -61 -25 -67 -2 -8 -23 7 -49 35 -37 38 -47 45 -58 34 -10 -10 -7 -17 18
-37 17 -13 39 -36 48 -50 17 -25 17 -27 -1 -41 -58 -47 -59 -47 -96 -23 -18
13 -50 46 -71 75 -20 29 -45 55 -55 59 -29 9 -30 24 -11 99 18 74 31 89 66 76
12 -5 68 -12 124 -16z m-1091 -58 c2 -63 -3 -88 -30 -158 -38 -97 -40 -101
-62 -92 -13 5 -14 10 -6 27 6 11 15 53 20 94 11 85 54 203 74 203 1 0 3 -33 4
-74z m1281 60 c0 -7 -7 -19 -15 -26 -16 -13 -20 -3 -9 24 8 20 24 21 24 2z
m926 -51 c17 -87 55 -165 97 -202 21 -18 37 -38 37 -45 -1 -17 -25 -48 -37
-48 -6 0 -42 30 -80 68 -65 62 -70 71 -76 119 -3 28 -15 70 -26 92 l-21 40 27
21 c45 35 65 24 79 -45z m136 -16 c15 -8 62 -45 104 -84 42 -38 88 -78 102
-87 32 -21 20 -27 -63 -29 -111 -4 -116 -2 -165 49 -37 38 -50 62 -68 122 -33
111 -31 118 21 77 23 -19 54 -41 69 -48z m5136 62 c142 -48 196 -105 174 -186
-25 -93 -26 -95 -84 -96 -29 0 -60 -2 -68 -3 -8 -2 -25 0 -37 5 -20 7 -23 15
-23 64 0 51 -3 59 -40 99 -52 56 -54 97 -5 124 25 14 16 15 83 -7z m1380 10
c7 0 35 -21 61 -46 57 -53 91 -124 97 -204 3 -31 17 -103 32 -161 15 -64 23
-113 18 -125 -6 -16 -11 -11 -25 31 -25 74 -47 103 -94 125 -59 26 -87 24
-178 -15 -12 -5 -14 0 -11 28 2 19 -5 63 -17 98 -22 66 -28 100 -32 184 -3 61
3 71 44 82 28 8 48 8 105 3z m-6243 -11 c3 -5 -1 -23 -10 -39 -19 -38 -19
-108 0 -145 9 -16 13 -31 10 -34 -17 -18 -155 89 -155 121 0 8 13 26 29 39 16
14 34 34 40 46 9 16 21 22 46 22 18 0 37 -4 40 -10z m192 -16 l27 -27 -47 -44
c-26 -24 -47 -48 -47 -54 0 -5 -11 -7 -25 -3 -16 4 -34 0 -50 -10 -23 -15 -25
-15 -35 3 -17 32 -11 63 20 114 29 46 31 47 80 47 42 0 56 -5 77 -26z m3063
-5 c6 -10 7 -19 2 -19 -5 0 -14 12 -20 26 -14 29 2 24 18 -7z m1291 14 c9 -11
15 -52 17 -127 3 -90 1 -120 -13 -151 l-18 -40 -7 32 c-11 47 -35 80 -80 108
-84 53 -95 154 -19 184 40 16 105 13 120 -6z m169 9 c0 -5 -13 -18 -29 -30
-16 -12 -40 -40 -52 -62 -12 -22 -26 -40 -31 -40 -4 0 -8 20 -8 44 0 24 -3 51
-6 59 -4 11 8 17 53 24 32 6 61 11 66 12 4 0 7 -3 7 -7z m-6513 -24 c12 -10
18 -9 28 5 21 29 28 3 15 -58 l-11 -55 -57 0 c-31 -1 -74 -7 -95 -14 -37 -14
-38 -13 -48 12 -11 29 1 66 34 109 18 23 25 25 70 20 27 -4 56 -12 64 -19z
m3838 3 c-3 -6 -11 -11 -17 -11 -6 0 -6 6 2 15 14 17 26 13 15 -4z m-4976 -6
c16 -8 45 -33 64 -56 l35 -41 -20 -35 c-27 -46 -57 -59 -99 -44 -58 20 -80 14
-126 -34 l-43 -46 -30 18 c-32 18 -50 11 -34 -14 11 -18 51 -40 156 -85 43
-18 78 -38 78 -44 0 -6 -17 -29 -38 -52 -41 -45 -77 -54 -86 -24 -4 11 -18 25
-31 32 -14 8 -25 22 -25 34 -1 32 -33 96 -74 144 -31 38 -36 51 -36 93 0 60
19 99 55 119 25 13 31 12 89 -18 34 -18 68 -32 75 -32 13 0 13 4 -5 67 -4 15
-1 22 13 26 34 9 54 7 82 -8z m1602 -116 c-25 -51 -41 -97 -41 -119 0 -24 -7
-43 -20 -55 -20 -18 -20 -17 -20 16 0 75 45 200 94 260 l21 26 3 -23 c2 -12
-15 -60 -37 -105z m3019 127 c0 -2 -3 -11 -6 -20 -9 -23 -24 -20 -24 4 0 11 7
20 15 20 8 0 15 -2 15 -4z m-6516 -33 c10 -54 11 -95 1 -94 -31 3 -76 25 -85
41 -8 15 -3 24 28 49 46 37 49 38 56 4z m10368 -5 c15 -10 40 -40 54 -65 23
-38 28 -62 34 -156 5 -67 15 -131 26 -159 10 -26 16 -49 14 -51 -3 -3 -25 -2
-50 2 l-45 6 -5 60 c-3 35 -13 73 -23 89 -22 34 -105 73 -170 82 -44 6 -48 9
-41 28 8 24 10 98 3 135 -3 22 2 27 41 43 54 21 121 16 162 -14z m-1234 -5
c14 -11 32 -33 38 -49 l12 -29 -76 0 c-65 0 -82 -4 -110 -23 -39 -28 -58 -19
-68 34 -5 26 -2 40 11 55 39 42 144 48 193 12z m-6512 -13 c59 -29 84 -89 84
-202 0 -46 7 -110 15 -143 18 -75 18 -80 3 -68 -20 15 -56 23 -138 29 -104 8
-132 -11 -180 -124 -20 -47 -37 -76 -41 -69 -13 23 -14 419 -1 463 12 43 69
109 106 124 38 16 108 11 152 -10z m5415 -26 c35 6 38 4 48 -26 6 -17 11 -46
11 -64 0 -28 -4 -34 -35 -44 -44 -15 -65 -7 -65 22 0 13 -14 52 -30 86 -17 35
-30 66 -30 69 0 3 14 -7 32 -22 26 -22 38 -26 69 -21z m-7202 21 c66 -17 94
-43 133 -119 l30 -59 -17 -46 c-10 -25 -21 -50 -26 -55 -7 -8 -37 47 -77 147
-6 15 -17 27 -23 27 -19 0 -4 -62 37 -145 l37 -77 -27 -55 c-27 -55 -27 -55
-47 -37 -32 29 -65 91 -90 173 -21 65 -40 93 -54 79 -6 -5 42 -152 62 -193 9
-16 26 -45 40 -62 l24 -33 -31 -32 c-30 -32 -31 -32 -42 -13 -6 11 -42 50 -80
86 -63 61 -68 69 -68 108 0 45 27 187 39 210 14 24 104 111 115 111 6 0 35 -7
65 -15z m8697 -16 c-6 -33 -78 -128 -84 -111 -6 18 68 142 85 142 3 0 3 -14
-1 -31z m544 11 c0 -11 -23 -53 -51 -95 -54 -81 -79 -133 -79 -165 0 -29 -16
-25 -30 9 -13 33 -6 100 16 143 8 15 14 38 14 53 0 14 4 25 10 25 5 0 7 -6 4
-13 -3 -8 2 -20 11 -27 13 -11 19 -10 35 5 11 10 25 33 32 51 13 37 38 46 38
14z m-9729 -18 c-13 -43 -47 -105 -70 -126 -17 -15 -23 -16 -36 -6 -23 19 -43
5 -55 -39 -6 -23 -16 -41 -23 -41 -21 0 -64 34 -96 74 -34 42 -34 54 -3 37 23
-12 83 -14 131 -5 27 6 30 10 28 37 -2 24 2 30 19 32 12 1 41 16 65 33 24 18
44 32 45 32 2 0 -1 -13 -5 -28z m1695 14 c20 -21 17 -28 -6 -16 -11 6 -20 15
-20 20 0 14 9 12 26 -4z m72 -14 c5 -30 -10 -28 -25 4 -10 22 -9 25 5 22 9 -2
18 -13 20 -26z m4745 -34 c-9 -119 -52 -170 -158 -185 -62 -8 -88 1 -104 38
-14 32 -14 33 31 73 44 40 202 136 224 136 7 0 10 -21 7 -62z m518 18 c-38
-39 -52 -84 -41 -128 4 -18 10 -68 13 -110 4 -72 2 -80 -23 -109 -25 -31 -27
-31 -51 -16 -13 9 -45 21 -71 28 -27 6 -48 14 -48 18 0 13 78 238 90 261 24
45 62 74 119 90 41 11 45 0 12 -34z m-331 -80 c-17 -54 -34 -96 -36 -93 -5 5
34 185 43 200 3 5 9 5 15 -1 5 -5 -3 -46 -22 -106z m130 107 c0 -5 -7 -17 -15
-27 -20 -26 -19 -78 2 -114 15 -26 15 -33 2 -68 -13 -33 -20 -39 -48 -42 l-33
-3 7 102 c4 57 12 111 18 120 16 25 67 49 67 32z m55 -22 c3 -5 -5 -29 -17
-52 -18 -36 -23 -39 -28 -23 -7 17 1 51 16 75 7 12 21 11 29 0z m331 -6 c12
-8 29 -31 39 -51 17 -36 17 -39 -1 -72 -21 -38 -11 -65 25 -70 16 -3 21 -10
21 -35 0 -46 -12 -58 -59 -61 -32 -3 -44 1 -51 15 -6 10 -37 32 -70 50 -111
59 -132 148 -52 216 32 27 115 32 148 8z m-898 -20 c-20 -14 -41 -25 -45 -25
-9 0 -43 36 -43 45 0 3 28 5 62 5 l63 0 -37 -25z m3482 -5 c0 -32 -31 -100
-46 -100 -20 0 -17 37 6 88 19 43 40 49 40 12z m750 -3 c0 -19 7 -56 15 -83 8
-27 15 -50 15 -50 0 -1 -9 -4 -20 -7 -11 -3 -27 2 -36 10 -15 16 -15 39 2 131
8 42 24 41 24 -1z m727 1 c22 -15 53 -51 75 -87 36 -62 36 -63 21 -106 -14
-43 -41 -64 -63 -50 -6 4 -8 15 -5 25 4 12 -2 27 -14 39 -25 25 -44 27 -61 6
-18 -22 -23 -20 -81 30 -29 24 -67 49 -86 56 -18 6 -33 13 -33 15 0 16 39 58
74 80 52 32 118 29 173 -8z m-10222 -10 c-8 -45 -25 -60 -25 -22 0 25 15 54
27 54 2 0 1 -15 -2 -32z m3614 -14 c-8 -10 -15 -12 -22 -5 -7 7 -4 17 9 32 16
18 19 19 22 5 2 -9 -2 -24 -9 -32z m1521 31 c40 -21 57 -53 38 -71 -12 -13
-21 -12 -63 7 -57 25 -123 22 -164 -8 -32 -24 -80 -109 -81 -142 0 -13 -3 -22
-6 -18 -12 12 7 75 36 119 31 46 98 90 157 103 18 3 35 11 38 16 8 12 11 12
45 -6z m1302 -93 c40 -5 63 12 78 57 7 22 17 38 21 35 11 -6 27 -67 32 -119
l4 -40 -51 -12 c-81 -19 -93 -17 -140 30 l-44 42 11 58 11 58 26 -53 c20 -42
30 -54 52 -56z m788 61 c0 -7 5 -13 10 -13 20 0 8 -33 -83 -220 -7 -14 -22
-26 -34 -28 -30 -4 -94 24 -89 40 49 149 91 247 109 255 26 12 87 -12 87 -34z
m37 25 c-3 -8 -6 -5 -6 6 -1 11 2 17 5 13 3 -3 4 -12 1 -19z m173 7 c19 -10
30 -24 31 -38 5 -86 7 -82 -38 -85 -38 -3 -41 -1 -45 25 -6 42 3 113 14 113 5
0 22 -7 38 -15z m745 9 c26 -11 47 -61 39 -99 -6 -36 -23 -45 -42 -22 -10 12
-26 127 -17 127 2 0 11 -3 20 -6z m-8069 -73 c32 -36 52 -62 44 -59 -34 14
-125 53 -128 54 -7 4 11 75 18 72 4 -2 34 -32 66 -67z m3929 26 c31 -54 31
-82 2 -127 l-22 -35 -3 46 c-2 36 -9 52 -35 76 -18 17 -47 34 -65 37 -28 7
-33 4 -43 -18 -7 -14 -16 -26 -20 -26 -5 0 -12 -14 -17 -32 l-8 -32 -27 30
c-43 47 -31 96 28 113 17 5 65 10 107 10 l77 1 26 -43z m-5526 22 c56 -12 91
-45 91 -85 0 -37 -40 -113 -71 -136 -15 -11 -30 -30 -33 -42 -6 -19 -9 -17
-28 19 -46 88 -82 116 -172 135 -31 6 -56 15 -56 20 0 17 69 65 117 82 57 20
85 22 152 7z m2144 -7 c23 -26 39 -73 32 -99 -6 -26 -43 -30 -107 -12 -65 17
-38 39 50 39 31 0 42 4 42 15 0 8 -9 15 -19 15 -46 0 -64 23 -39 48 16 16 22
15 41 -6z m747 -2 c11 -11 24 -20 29 -20 6 0 -3 -24 -18 -53 -16 -30 -33 -86
-40 -132 -17 -101 -26 -81 -35 78 -4 65 -10 125 -13 133 -8 22 53 18 77 -6z
m3506 -20 c-24 -23 -54 -62 -66 -87 -25 -53 -32 -48 -51 30 -14 60 -5 72 66
85 96 18 100 17 51 -28z m1939 16 c46 -1 51 -3 62 -31 18 -47 15 -79 -12 -126
-14 -24 -28 -65 -31 -91 -7 -48 -7 -48 -44 -48 -21 0 -52 -3 -70 -6 l-32 -7 4
162 3 163 35 -8 c19 -4 58 -7 85 -8z m-5150 -17 c47 -23 54 -46 38 -141 -10
-59 -12 -124 -7 -223 l6 -140 -34 33 c-70 67 -139 61 -224 -20 -31 -29 -59
-48 -68 -45 -7 3 -37 -10 -66 -30 -47 -31 -110 -63 -125 -63 -4 0 2 12 12 28
31 44 131 224 148 265 9 21 21 77 27 125 10 89 35 157 68 187 48 44 160 56
225 24z m2758 3 c25 -28 33 -78 13 -85 -22 -9 -76 -96 -76 -124 0 -13 -4 -23
-9 -23 -25 0 -42 16 -65 63 -15 31 -38 60 -56 71 -27 15 -31 22 -25 45 4 14 7
27 8 27 1 1 18 11 37 23 47 28 149 30 173 3z m3370 -19 c48 -26 102 -86 92
-103 -2 -4 -33 -10 -68 -12 -72 -6 -158 -46 -215 -99 -31 -29 -34 -30 -51 -15
-10 9 -22 16 -28 16 -17 0 -19 14 -13 89 5 75 22 103 85 143 41 27 129 18 198
-19z m-6928 21 c19 -5 20 -14 22 -239 2 -184 6 -242 18 -271 12 -28 13 -45 5
-74 -8 -31 -4 -72 25 -223 19 -101 35 -192 35 -200 0 -13 -6 -14 -37 -5 -23 6
-76 8 -133 4 -52 -4 -108 -8 -125 -9 -24 -2 -31 2 -33 20 -5 35 15 61 67 88
49 24 95 70 105 102 2 10 10 43 16 75 6 31 21 68 35 84 40 46 46 92 19 152
-27 61 -101 144 -161 179 -24 14 -43 32 -43 40 0 9 14 41 30 72 17 31 39 77
50 104 14 33 25 47 40 48 11 1 25 3 30 4 6 1 15 3 20 4 18 2 11 23 -10 28 -11
3 -20 9 -20 14 0 10 16 11 45 3z m2100 -112 c15 -13 25 -26 22 -29 -11 -10
-75 29 -113 68 l-39 40 24 20 24 20 27 -48 c16 -26 40 -58 55 -71z m559 100
c3 -5 -17 -15 -45 -23 -54 -17 -54 -17 -37 11 13 20 71 29 82 12z m1173 -4 c6
-7 13 -37 17 -67 5 -38 16 -64 38 -92 17 -22 29 -41 26 -44 -10 -11 -35 7 -47
31 -11 26 -39 28 -32 3 2 -8 6 -22 9 -33 11 -41 -23 -8 -43 41 -24 60 -39 79
-74 96 -31 15 -38 39 -16 61 20 19 108 22 122 4z m2803 -22 c0 -7 -7 -21 -15
-32 -13 -18 -14 -16 -15 25 0 37 2 42 15 31 8 -7 15 -18 15 -24z m-5192 4 c8
0 32 -14 54 -31 36 -29 38 -33 24 -48 -13 -13 -20 -13 -34 -3 -9 6 -34 21 -55
33 -27 14 -37 25 -33 35 3 9 6 21 6 27 0 8 4 7 12 -1 7 -7 18 -12 26 -12z
m510 -33 c38 -37 40 -50 10 -69 -43 -28 -145 -52 -166 -39 -14 8 33 120 60
143 24 21 44 13 96 -35z m892 33 c0 -16 -7 -20 -37 -20 -35 0 -36 0 -18 20 10
11 26 20 37 20 11 0 18 -7 18 -20z m4390 -27 c0 -17 -6 -23 -22 -24 -13 0 -33
-2 -45 -5 -33 -6 -28 6 14 43 40 33 53 29 53 -14z m-3060 15 c46 -14 78 -44
101 -93 18 -40 26 -115 12 -115 -9 0 -63 100 -63 116 0 23 -39 47 -65 40 -28
-7 -69 -85 -80 -154 -12 -68 -15 -73 -35 -62 -39 21 -50 41 -50 94 0 64 32
132 77 162 36 24 55 26 103 12z m3580 -2 c0 -8 -12 -28 -27 -45 -16 -17 -33
-53 -40 -79 -10 -43 -11 -44 -12 -14 -1 33 16 74 51 125 22 30 28 33 28 13z
m-8780 -35 c-74 -94 -124 -266 -102 -353 6 -23 9 -45 6 -47 -8 -8 -138 30
-146 42 -18 27 -29 93 -23 133 7 47 60 142 108 193 40 42 100 70 150 71 l39 0
-32 -39z m606 21 c6 -4 16 -16 21 -27 6 -11 33 -27 59 -35 l49 -17 -27 -17
c-42 -28 -87 -30 -149 -7 -30 12 -64 27 -75 35 -18 14 -18 15 10 45 23 23 39
31 65 31 20 0 41 -4 47 -8z m-414 -16 c55 -20 136 -75 143 -97 8 -23 -30 -143
-52 -164 -8 -8 -19 -13 -24 -9 -19 12 -47 -8 -61 -44 -17 -44 -77 -78 -153
-89 -90 -12 -117 12 -116 103 0 68 15 123 52 199 53 108 113 136 211 101z
m3562 -7 c28 -22 34 -39 13 -39 -22 0 -87 -61 -107 -101 -15 -29 -20 -58 -20
-123 0 -90 -6 -100 -47 -85 -13 5 -29 6 -37 3 -23 -9 -60 63 -59 115 1 48 33
149 59 188 40 61 145 84 198 42z m344 9 c7 -7 12 -21 12 -31 0 -18 -1 -18 -25
-3 -13 9 -38 16 -55 16 -29 0 -38 9 -23 23 11 12 78 8 91 -5z m-1296 -20 c-7
-7 -12 -8 -12 -2 0 6 3 14 7 17 3 4 9 5 12 2 2 -3 -1 -11 -7 -17z m3568 12 c0
-5 -4 -10 -10 -10 -5 0 -10 5 -10 10 0 6 5 10 10 10 6 0 10 -4 10 -10z m-7573
-126 c6 -72 -6 -100 -51 -119 -51 -22 -58 -36 -51 -102 11 -87 -12 -55 -31 45
-18 95 -8 152 31 178 13 8 34 40 47 71 l23 55 14 -33 c7 -19 16 -61 18 -95z
m3606 115 c51 -14 104 -63 117 -107 6 -21 10 -77 8 -127 -2 -74 -6 -89 -18
-86 -33 8 -107 4 -144 -9 -58 -19 -122 -82 -145 -145 -17 -45 -19 -75 -18
-203 1 -83 -1 -154 -5 -158 -13 -13 -86 16 -107 42 -15 19 -25 23 -45 18 -25
-6 -26 -4 -26 34 0 23 12 66 29 103 23 48 30 80 31 129 2 95 1 100 -15 100
-20 0 -19 13 4 58 10 20 35 86 55 146 44 130 66 162 131 192 55 26 91 29 148
13z m1500 4 c-7 -2 -19 -2 -25 0 -7 3 -2 5 12 5 14 0 19 -2 13 -5z m1697 -15
c0 -13 -7 -32 -15 -42 -20 -27 -19 -73 2 -85 27 -15 76 17 119 79 l25 35 -6
-30 c-7 -32 -64 -153 -76 -160 -4 -3 -20 -2 -35 1 -23 5 -39 22 -72 77 -31 51
-40 73 -30 76 7 2 27 19 43 36 37 39 45 42 45 13z m867 -6 c40 -41 81 -162 54
-162 -16 0 -106 43 -113 54 -4 6 -8 39 -8 74 0 55 2 62 19 62 11 0 32 -13 48
-28z m350 -78 c-5 -86 -9 -108 -24 -120 -10 -7 -21 -14 -25 -14 -4 0 -19 -23
-34 -50 -15 -28 -28 -49 -29 -48 -3 3 12 182 19 238 3 19 5 45 5 57 1 16 10
25 34 32 62 18 60 21 54 -95z m327 53 c-9 -26 -19 -47 -22 -48 -48 -6 -82 -8
-82 -4 0 22 31 57 68 78 26 14 48 24 49 23 2 -1 -4 -24 -13 -49z m3019 29 c19
-13 45 -34 56 -45 34 -34 73 -46 87 -27 15 21 36 20 32 -1 -2 -9 -14 -20 -28
-23 -41 -10 -32 -36 11 -32 48 4 56 -11 20 -37 -29 -21 -29 -21 -24 -1 7 26
-18 27 -42 0 -25 -28 -79 -44 -104 -31 -33 18 -70 140 -62 209 2 18 14 15 54
-12z m-1163 -14 c69 -30 85 -53 85 -124 l0 -61 -47 -13 c-93 -28 -144 -112
-137 -231 3 -42 1 -58 -8 -57 -7 1 -28 2 -47 3 -30 1 -37 7 -55 44 -37 76 -62
334 -39 402 10 32 20 42 48 52 48 16 146 9 200 -15z m-10533 -8 c53 -19 83
-56 83 -101 0 -45 -19 -80 -85 -154 -66 -74 -69 -99 -26 -216 16 -43 32 -96
35 -119 4 -22 23 -67 42 -98 19 -31 34 -61 34 -67 0 -5 -39 16 -87 48 -169
109 -203 122 -203 74 0 -18 -194 -237 -211 -240 -4 -1 -12 13 -19 29 -7 17
-18 34 -24 38 -27 17 -54 72 -70 143 -19 85 -12 170 24 290 27 89 114 272 145
303 20 20 53 36 195 89 23 9 120 -2 167 -19z m3633 -4 c0 -14 -7 -20 -22 -20
-20 0 -21 1 -3 20 10 11 20 20 22 20 1 0 3 -9 3 -20z m1407 -10 c-14 -36 -31
-34 -35 3 -3 23 0 27 21 27 24 0 25 -2 14 -30z m1216 19 c52 -14 74 -52 96
-167 7 -34 5 -47 -9 -65 -9 -12 -20 -29 -23 -37 -5 -13 -9 38 -11 142 -1 50
-27 69 -91 65 -46 -2 -50 -4 -56 -32 -4 -16 -13 -46 -21 -65 -8 -19 -18 -44
-22 -54 -9 -26 -14 -18 -26 45 -13 67 -7 98 28 137 37 41 71 49 135 31z m960
4 c4 -3 -11 -24 -34 -46 -22 -22 -42 -37 -45 -34 -8 8 15 49 39 70 22 18 30
21 40 10z m86 -59 c-16 -41 -23 -12 -8 33 10 29 14 33 17 17 1 -11 -2 -34 -9
-50z m1803 43 c19 -31 -16 -128 -94 -254 l-52 -85 -53 4 c-65 6 -75 14 -43 38
14 10 50 41 80 69 30 28 60 51 67 51 7 0 17 9 23 20 9 17 8 20 -7 20 -26 -1
-55 -19 -110 -70 -66 -62 -99 -82 -131 -78 -21 2 -28 9 -30 30 -3 22 17 48
115 153 l117 127 56 -7 c30 -4 58 -12 62 -18z m772 1 c-12 -13 -36 -45 -54
-71 l-32 -49 -28 30 c-15 16 -41 37 -58 46 -55 29 -34 53 48 58 30 2 75 4 100
6 l45 3 -21 -23z m-6334 -35 c14 -7 32 -13 40 -14 10 0 8 -3 -5 -9 -27 -11
-105 -12 -105 -1 0 5 -3 24 -7 42 l-6 34 29 -20 c16 -10 40 -25 54 -32z m767
31 c3 -9 -2 -24 -13 -34 -19 -19 -20 -19 -64 2 l-45 21 38 7 c20 4 40 10 44
13 12 12 34 7 40 -9z m623 -14 c4 -14 10 -39 13 -57 l6 -32 -44 22 c-39 19
-44 25 -39 47 12 54 52 66 64 20z m686 -1 c52 -48 114 -200 114 -278 0 -26 -7
-73 -15 -105 -17 -65 -77 -185 -104 -210 -10 -9 -51 -26 -92 -37 -80 -22 -163
-20 -225 6 -46 19 -88 78 -84 118 6 61 4 162 -4 253 -11 114 -3 155 36 200 56
64 107 79 253 78 86 -1 98 -3 121 -25z m-1001 1 c22 -11 46 -20 55 -20 21 0
177 -53 217 -73 44 -23 83 -73 83 -108 0 -62 -64 -169 -102 -169 -16 0 -19 4
-14 23 18 59 18 87 2 112 -24 37 -60 48 -146 45 -41 -2 -121 -3 -176 -4 l-102
-1 -55 58 c-30 31 -61 57 -67 57 -6 0 -10 6 -8 12 3 8 19 12 41 10 58 -5 142
16 189 48 24 16 43 30 43 30 1 0 18 -9 40 -20z m1306 3 c8 -10 20 -28 27 -40
14 -27 34 -152 25 -166 -3 -6 -9 -24 -12 -41 -6 -29 -10 -31 -76 -43 -104 -18
-115 -17 -115 10 0 12 -15 66 -33 119 -30 87 -32 99 -19 123 18 35 64 54 133
55 42 0 60 -4 70 -17z m2954 -21 c-15 -16 -16 -15 -4 12 7 15 15 23 17 16 3
-7 -3 -19 -13 -28z m1241 27 c8 -6 28 -36 45 -66 25 -43 29 -59 22 -76 -9 -20
-13 -15 -41 46 -27 59 -54 89 -68 75 -2 -3 9 -31 26 -64 25 -49 30 -71 30
-129 0 -78 -6 -94 -38 -100 -13 -2 -35 -13 -50 -24 -15 -11 -48 -22 -72 -26
-25 -4 -59 -13 -77 -20 -33 -14 -33 -14 -33 14 0 25 6 31 59 50 52 19 111 62
111 81 0 19 -16 16 -49 -9 -20 -15 -55 -35 -79 -44 -43 -16 -43 -16 -52 9 -6
14 -10 31 -10 38 0 7 -7 33 -16 59 l-16 46 40 58 c22 32 46 64 54 70 7 7 42
13 77 15 35 2 77 4 94 6 16 1 36 -3 43 -9z m-9704 -23 c29 -14 41 -29 59 -73
22 -54 22 -56 3 -66 -44 -23 -100 -94 -119 -150 -19 -55 -34 -68 -61 -49 -20
13 -34 50 -34 89 0 35 4 41 35 56 54 26 70 59 68 144 0 40 2 71 5 69 4 -2 23
-11 44 -20z m10782 -13 c-4 -21 -9 -43 -13 -50 -6 -12 -87 -73 -96 -73 -13 0
20 48 56 81 22 20 39 46 39 58 0 11 5 21 10 21 7 0 8 -14 4 -37z m-8816 13 c2
-2 -6 -21 -17 -42 -12 -21 -21 -46 -21 -55 0 -20 -20 -29 -63 -29 -18 0 -63
-9 -101 -20 -38 -11 -71 -18 -72 -17 -10 9 89 116 116 125 17 6 43 21 57 32
20 15 35 19 62 15 19 -3 36 -7 39 -9z m1890 -72 c16 -16 41 -37 55 -47 36 -24
52 -58 82 -174 14 -54 33 -117 41 -140 9 -23 14 -49 10 -58 -7 -20 -115 -70
-125 -59 -4 5 -15 39 -24 76 -27 105 -35 122 -51 109 -11 -10 -10 -25 11 -94
13 -45 27 -93 31 -107 4 -15 16 -26 28 -28 14 -2 28 -18 40 -45 10 -23 30 -53
45 -67 25 -25 25 -27 19 -130 -9 -136 -33 -190 -84 -190 -26 0 -41 8 -61 31
-59 70 -116 229 -96 266 19 36 32 135 19 150 -9 11 -8 21 6 44 10 17 18 45 18
63 0 59 -53 151 -109 188 -27 17 -28 20 -28 110 -1 51 -4 114 -8 139 l-8 46
80 -27 c49 -16 91 -38 109 -56z m559 64 c-3 -8 -6 -5 -6 6 -1 11 2 17 5 13 3
-3 4 -12 1 -19z m2933 -53 c10 -12 10 -21 0 -45 l-12 -30 -30 23 c-62 46 -88
76 -88 100 l0 25 59 -29 c32 -16 65 -36 71 -44z m452 -30 l-8 -90 -13 45 c-7
25 -22 62 -32 82 -10 20 -19 40 -19 42 0 9 65 24 72 17 5 -4 4 -47 0 -96z
m3903 35 c7 -14 16 -42 20 -62 7 -34 5 -38 -21 -44 -37 -9 -55 5 -78 60 -19
44 -19 48 -2 82 l17 37 25 -24 c14 -13 32 -35 39 -49z m-8696 -34 c-9 -8 -10
-7 -5 7 3 10 7 35 8 55 1 35 2 35 5 -7 3 -26 -1 -48 -8 -55z m5745 64 c-10
-47 2 -80 29 -77 21 2 22 -1 19 -70 -3 -67 -1 -73 28 -107 17 -19 32 -47 33
-63 2 -26 -1 -28 -40 -31 l-43 -3 0 40 c0 52 -12 82 -49 120 -39 40 -41 94 -6
169 27 58 37 67 29 22z m500 -8 c66 -31 92 -59 129 -139 19 -42 22 -65 21
-178 0 -134 -13 -196 -49 -232 -37 -36 -177 -45 -218 -13 -14 11 -46 62 -72
113 -46 92 -58 107 -130 162 -66 50 -105 92 -105 112 0 35 56 109 111 145 114
76 198 84 313 30z m-2888 -11 c14 -22 28 -58 31 -81 8 -54 -16 -288 -32 -320
l-13 -25 -7 30 c-20 96 -40 155 -67 198 -28 44 -30 53 -26 110 10 126 62 165
114 88z m232 -29 c19 -35 32 -65 30 -67 -2 -3 -15 -6 -27 -7 -20 -3 -26 5 -41
47 -34 98 -34 97 -14 93 9 -1 33 -31 52 -66z m1110 25 c25 -39 64 -177 51
-177 -5 0 -9 4 -9 8 0 5 -20 23 -44 41 -43 32 -43 33 -29 62 12 23 12 36 4 61
-13 38 -13 38 -2 38 5 0 18 -15 29 -33z m-742 15 c24 -15 -3 -49 -50 -62 -26
-7 -49 -11 -51 -8 -7 6 24 40 55 61 27 19 30 20 46 9z m4052 -37 c55 -46 81
-164 53 -237 -6 -15 -8 -34 -5 -42 3 -9 -16 -37 -51 -73 -31 -32 -77 -82 -101
-110 -25 -29 -52 -53 -59 -53 -7 0 -19 16 -25 35 -7 20 -26 55 -44 78 -20 28
-36 64 -44 106 l-13 64 38 39 c21 22 50 47 66 56 30 18 34 27 13 35 -8 3 -33
-9 -57 -26 -35 -26 -41 -28 -35 -12 22 53 -2 63 -29 12 -11 -20 -22 -37 -25
-37 -3 0 -11 10 -19 22 -12 20 -11 24 13 44 24 21 112 76 176 110 42 23 114
18 148 -11z m-7794 -12 c-12 -51 -77 -213 -85 -213 -4 0 -13 16 -19 35 -7 20
-27 58 -45 84 -41 62 -38 98 9 106 68 11 82 12 114 14 30 1 32 -1 26 -26z
m2616 17 c11 -7 7 -10 -17 -10 -18 0 -33 5 -33 10 0 13 30 13 50 0z m2370 -4
c0 -14 21 -26 46 -26 8 0 31 -7 52 -16 l37 -15 -24 -20 c-34 -28 -54 -24 -95
21 -35 39 -47 70 -26 70 6 0 10 -6 10 -14z m-3620 -16 c0 -11 -4 -20 -9 -20
-5 0 -7 9 -4 20 3 11 7 20 9 20 2 0 4 -9 4 -20z m1470 -10 c0 -6 -66 -30 -84
-30 -3 0 -6 7 -6 15 0 8 9 15 19 15 11 0 22 4 25 9 7 10 46 3 46 -9z m459
-130 c5 -47 9 -55 29 -58 16 -3 22 -10 22 -29 0 -25 -2 -25 -52 -20 -62 6 -85
14 -91 31 -6 15 17 149 34 195 l12 34 20 -49 c11 -27 22 -74 26 -104z m-409
136 c0 -3 -4 -8 -10 -11 -5 -3 -10 -1 -10 4 0 6 5 11 10 11 6 0 10 -2 10 -4z
m1440 -19 l35 -14 -40 -12 c-96 -27 -156 -103 -201 -257 -17 -58 -34 -63 -54
-15 -12 29 -9 52 17 136 20 63 78 155 98 155 8 0 15 4 15 9 0 9 50 19 80 15 8
-1 31 -8 50 -17z m614 7 c9 -22 8 -24 -9 -24 -8 0 -15 9 -15 20 0 24 15 27 24
4z m-7727 -19 c65 -33 146 -117 141 -148 -2 -13 -15 -27 -33 -36 -39 -18 -83
-59 -102 -95 -11 -22 -20 -27 -39 -23 -28 5 -70 -37 -80 -81 -4 -15 -12 -33
-18 -41 -19 -25 -128 -91 -150 -91 -35 0 -140 55 -168 89 -73 86 -33 288 70
358 133 90 281 117 379 68z m5197 9 c9 -22 8 -24 -9 -24 -8 0 -15 9 -15 20 0
24 15 27 24 4z m-5894 -64 c6 -19 15 -72 22 -117 10 -66 9 -84 -1 -97 -16 -20
-151 -61 -161 -49 -11 12 -40 100 -40 123 0 10 23 45 51 77 28 32 60 76 71 97
19 38 21 39 34 21 8 -11 19 -35 24 -55z m7519 56 c53 -28 55 -39 27 -109 -14
-35 -28 -82 -32 -105 l-7 -42 -56 47 c-106 90 -102 72 -30 152 35 39 65 71 67
71 2 0 15 -6 31 -14z m-1401 -24 c21 -27 -2 -142 -28 -142 -6 0 -10 5 -10 10
0 12 -53 66 -70 72 -9 3 -9 14 0 47 l11 43 42 -7 c23 -4 48 -14 55 -23z m5732
-4 c27 -44 25 -49 -15 -75 -41 -27 -75 -89 -75 -138 0 -20 -4 -55 -9 -78 -6
-23 -12 -54 -16 -70 l-5 -27 -50 25 c-36 18 -50 31 -50 46 0 21 51 130 73 157
7 9 7 16 -1 24 -9 9 -16 7 -27 -8 -36 -45 -78 -141 -80 -181 -2 -69 -48 -91
-109 -54 -17 10 -48 24 -68 30 l-36 12 17 62 c9 35 32 84 50 111 19 27 29 52
25 56 -12 12 -23 3 -58 -43 -18 -25 -32 -35 -38 -29 -11 11 9 47 54 97 14 17
38 43 51 59 25 28 25 29 50 10 24 -19 24 -20 9 -59 -8 -22 -20 -46 -25 -53 -7
-9 -7 -16 1 -24 8 -8 29 -3 79 20 37 17 86 37 108 44 30 10 41 19 43 38 4 22
57 79 75 80 4 0 16 -15 27 -32z m-10130 -72 c-11 -58 -44 -136 -56 -136 -4 0
-3 11 0 24 5 19 -1 31 -25 54 -35 32 -35 68 -1 58 23 -8 60 26 75 68 17 48 22
6 7 -68z m5410 80 c8 0 31 4 50 8 l35 7 -25 -23 c-21 -19 -34 -23 -73 -20 -39
3 -47 7 -47 24 0 16 4 18 23 12 12 -4 29 -8 37 -8z m219 -15 c26 -15 27 -25 0
-50 -17 -16 -30 -18 -73 -14 -38 4 -61 1 -85 -12 -32 -16 -34 -16 -55 4 l-20
21 33 0 c25 0 42 8 65 33 18 19 38 36 46 39 17 6 56 -4 89 -21z m-5531 -5 c3
-12 -1 -17 -10 -14 -7 3 -15 13 -16 22 -3 12 1 17 10 14 7 -3 15 -13 16 -22z
m969 3 c66 -21 66 -20 -51 -219 -34 -58 -71 -131 -81 -162 -19 -56 -31 -71
-40 -45 -4 13 -14 83 -15 106 0 8 -22 35 -50 61 l-49 46 13 51 c18 69 66 155
94 169 25 12 130 8 179 -7z m3608 2 c124 -56 184 -202 185 -447 0 -90 4 -124
25 -183 21 -63 36 -178 37 -282 0 -28 -56 -119 -72 -119 -6 0 -10 10 -10 23 0
12 -5 29 -10 37 -8 12 -13 13 -29 3 -19 -12 -21 -9 -31 30 -34 130 -53 169
-83 165 -20 -3 -22 -10 -27 -98 -6 -102 -19 -140 -50 -140 -15 0 -23 12 -34
53 -8 28 -22 78 -31 110 -17 59 -40 82 -56 56 -5 -8 -9 -46 -9 -86 0 -65 -2
-74 -22 -84 -13 -7 -26 -16 -29 -22 -11 -16 -30 3 -51 49 -12 29 -25 44 -37
44 -19 0 -31 18 -31 48 0 9 -7 29 -15 45 -12 24 -12 34 1 80 9 28 33 81 54
117 46 80 57 113 65 214 8 95 48 262 74 314 43 84 107 109 186 73z m3670 -58
c-1 -38 -3 -71 -4 -75 0 -5 -12 -8 -25 -8 -14 0 -27 3 -29 8 -9 14 43 142 58
142 2 0 2 -30 0 -67z m1651 38 c-14 -26 -53 -47 -65 -35 -6 6 59 63 72 64 4 0
1 -13 -7 -29z m-9482 4 c37 -18 101 -73 93 -81 -3 -3 -20 2 -38 11 -59 31
-135 30 -214 -1 -84 -33 -127 -34 -184 -4 -49 24 -48 30 5 37 21 3 76 15 123
28 102 27 171 31 215 10z m5715 -33 c20 -16 53 -55 75 -87 35 -51 40 -65 39
-111 -2 -76 -28 -167 -69 -240 l-36 -65 -107 7 c-111 7 -126 12 -137 47 -3 12
-22 58 -41 101 -31 70 -35 86 -31 140 10 114 88 227 170 244 53 11 92 0 137
-36z m536 27 c19 -11 43 -20 53 -22 9 -1 19 -7 20 -12 2 -6 10 -25 18 -44 14
-33 13 -36 -13 -64 -29 -29 -92 -67 -115 -67 -7 0 -35 -12 -63 -25 -60 -30
-89 -31 -153 -6 -33 13 -53 16 -65 10 -14 -8 -19 -5 -27 16 -6 15 -10 33 -10
41 0 11 -6 13 -21 9 -18 -6 -20 -4 -14 17 4 12 21 50 39 83 39 75 62 85 208
84 85 -1 115 -5 143 -20z m-2575 3 c0 -5 -11 -14 -25 -20 -20 -9 -25 -9 -25 2
0 7 3 16 7 19 9 10 43 9 43 -1z m1136 -20 c10 -6 32 -24 49 -41 34 -37 36 -35
-75 -110 -48 -32 -78 -47 -84 -41 -6 6 -20 10 -33 10 -42 0 -50 109 -11 158
38 49 92 58 154 24z m3586 6 c85 -25 172 -179 211 -372 l20 -100 -32 -26 c-36
-31 -133 -57 -243 -66 -92 -8 -167 12 -223 59 l-39 34 24 13 c32 17 60 48 61
69 6 72 -21 169 -66 236 -30 43 -30 51 -5 92 44 72 168 98 292 61z m251 -12
c34 -23 72 -103 88 -182 l11 -62 -38 -36 c-56 -52 -68 -48 -94 30 -26 83 -80
191 -115 232 -29 34 -26 38 30 44 41 5 86 -6 118 -26z m732 14 c-10 -11 -20
-18 -23 -15 -7 6 18 35 31 35 5 0 2 -9 -8 -20z m-8297 -23 c10 -19 29 -60 41
-92 l22 -58 -28 -23 c-15 -13 -31 -23 -35 -24 -3 0 -14 -13 -25 -30 l-19 -29
2 142 c1 78 3 143 3 145 4 11 22 -4 39 -31z m-1478 -47 c0 -3 -10 -7 -22 -7
-13 -1 -33 -5 -45 -8 -19 -4 -23 -1 -23 17 0 13 3 33 6 45 6 22 7 22 45 -10
21 -18 39 -34 39 -37z m5015 41 c-18 -35 -31 -45 -40 -31 -9 15 22 60 40 60
14 0 14 -3 0 -29z m2128 -43 c9 -10 17 -28 18 -40 0 -13 2 -31 4 -41 2 -10 -5
-25 -14 -35 -10 -9 -21 -25 -24 -34 -13 -38 -113 -72 -262 -89 -44 -5 -92 -12
-107 -15 -23 -5 -26 -3 -21 14 6 23 30 32 88 32 79 1 77 -1 219 223 l37 58 22
-28 c12 -15 30 -36 40 -45z m3117 43 c51 -72 49 -214 -6 -386 -20 -60 -39
-121 -44 -135 -4 -14 -13 -23 -21 -21 -8 2 -54 7 -102 10 -112 8 -121 17 -112
112 4 37 2 83 -4 105 -6 21 -11 80 -13 131 -2 104 3 114 77 161 51 32 108 50
162 51 35 1 45 -4 63 -28z m-7735 -4 c50 -2 60 -5 59 -19 -1 -10 -2 -37 -3
-61 -1 -43 -1 -43 -53 -59 -29 -9 -54 -15 -56 -13 -4 3 -42 146 -42 157 0 3 8
4 18 2 9 -3 44 -6 77 -7z m255 -24 c24 -87 24 -108 -2 -120 -13 -6 -30 -23
-38 -39 -8 -16 -15 -30 -16 -32 -1 -1 -19 14 -40 35 -36 36 -38 41 -36 96 3
84 12 97 72 97 48 0 49 -1 60 -37z m-3650 -15 c0 -52 12 -73 35 -64 25 9 137
-55 129 -74 -4 -8 -10 -28 -13 -45 l-7 -30 -70 2 c-81 3 -170 35 -180 65 -11
36 6 85 48 137 23 28 45 51 50 51 4 0 8 -19 8 -42z m5031 18 c24 -10 49 -60
49 -99 0 -21 -10 -47 -25 -68 -14 -19 -39 -55 -56 -81 -18 -27 -35 -48 -38
-48 -3 0 -24 7 -46 15 -22 8 -54 14 -71 15 -27 0 -32 4 -37 30 -13 61 24 167
71 208 56 48 89 54 153 28z m-1087 -59 c14 -12 28 -16 49 -11 l28 6 -3 -48
c-3 -46 -4 -47 -48 -60 -25 -8 -57 -14 -71 -14 -26 0 -87 21 -101 36 -4 4 8
28 27 55 20 26 40 61 46 78 l11 31 21 -27 c12 -16 30 -36 41 -46z m-2634 27
c40 -17 96 -68 114 -104 16 -31 10 -60 -12 -60 -10 0 -27 -19 -41 -45 -41 -78
-85 -121 -138 -134 -30 -8 -63 -27 -90 -52 -46 -42 -76 -48 -121 -25 -161 84
-103 359 88 418 30 9 62 19 70 22 22 7 90 -4 130 -20z m5031 8 c44 -23 218
-171 251 -214 15 -20 28 -53 32 -86 9 -71 34 -121 64 -129 21 -5 23 -10 18
-37 -3 -17 -19 -42 -35 -56 -15 -14 -35 -38 -44 -55 -26 -51 -51 -73 -108 -94
-30 -12 -59 -21 -65 -21 -6 0 -21 22 -34 49 -25 55 -73 105 -137 144 -29 19
-45 37 -54 64 -23 70 -105 181 -122 164 -8 -8 -1 -24 22 -53 34 -46 76 -127
68 -134 -2 -3 -24 0 -48 5 -24 6 -58 11 -75 11 -27 0 -33 5 -47 43 -67 174
-63 228 20 278 21 13 61 40 89 60 67 49 124 79 149 79 12 0 37 -8 56 -18z
m-3384 -37 c40 -18 60 -36 83 -72 51 -79 52 -116 4 -172 -14 -17 -37 -65 -50
-107 -14 -42 -33 -89 -41 -103 -20 -31 -84 -101 -94 -101 -8 0 -22 107 -23
185 -1 56 -3 60 -35 82 -52 35 -121 25 -136 -21 -6 -17 -8 -14 -15 19 -13 62
-11 117 6 167 16 50 74 113 120 133 48 22 123 18 181 -10z m-2312 -5 c15 -17
16 -24 6 -48 -16 -39 -77 -97 -86 -83 -13 22 -78 41 -136 41 -45 0 -59 3 -59
14 0 20 18 30 65 33 56 5 105 19 140 42 39 25 48 25 70 1z m329 1 c3 -4 -6
-23 -20 -42 -14 -19 -33 -51 -41 -72 l-16 -38 -17 29 c-19 31 -57 60 -103 80
-56 24 4 50 120 51 39 1 74 -3 77 -8z m1230 -16 c32 -30 56 -83 56 -124 0 -31
-4 -33 -66 -46 -18 -3 -52 -19 -77 -35 l-46 -29 -21 36 c-15 25 -24 33 -32 25
-14 -14 -2 -46 33 -83 28 -30 109 -185 109 -208 0 -22 -49 -121 -60 -121 -6 0
-54 -25 -106 -55 -53 -30 -100 -55 -105 -55 -5 0 -9 10 -10 23 0 12 -2 31 -4
42 -2 11 -9 78 -15 149 -6 72 -13 133 -16 137 -2 4 -21 10 -41 13 -104 19
-118 35 -86 100 13 27 32 43 92 73 99 49 95 47 88 36 -3 -5 -2 -15 3 -23 7
-11 30 6 103 78 87 85 97 92 134 92 29 0 48 -7 67 -25z m2579 -24 c-16 -41
-37 -51 -109 -51 -39 0 -47 10 -38 45 5 22 12 25 48 26 22 0 50 4 61 9 11 5
28 9 37 9 15 1 15 -2 1 -38z m2955 13 c64 -15 66 -17 54 -41 -19 -35 -47 -52
-97 -58 -88 -11 -115 -24 -122 -56 -3 -17 -9 -28 -13 -27 -34 13 -129 64 -129
70 -1 3 28 16 64 28 44 15 80 36 112 65 30 28 54 42 63 38 8 -3 39 -11 68 -19z
m-7450 -11 c53 -6 62 -13 40 -31 -21 -16 -132 10 -137 33 -2 15 1 17 20 11 13
-4 48 -10 77 -13z m4845 -44 c-38 -72 -59 -85 -35 -23 10 27 22 57 25 66 4 11
12 15 22 12 13 -5 11 -14 -12 -55z m3832 16 c1 -79 53 -111 148 -91 l39 7 -25
-33 c-14 -18 -39 -58 -55 -88 -18 -35 -34 -53 -43 -51 -35 10 -219 12 -253 2
-35 -9 -42 -8 -66 13 -22 18 -26 26 -17 41 6 11 18 48 27 84 15 59 20 68 56
88 21 13 53 23 70 23 17 0 51 11 75 24 24 14 44 25 44 25 0 1 0 -19 0 -44z
m173 12 c31 -29 28 -46 -13 -63 -66 -27 -114 -14 -130 37 -8 26 -5 29 37 36
18 3 40 9 48 13 16 9 25 6 58 -23z m-9281 -114 c-8 -201 -29 -242 -119 -243
-58 0 -93 -42 -108 -130 -6 -38 -14 -70 -17 -70 -8 0 -208 80 -222 89 -12 8
-10 19 12 69 15 33 27 65 27 71 0 6 14 14 31 18 17 3 64 30 104 59 72 51 74
52 91 33 19 -21 44 -25 44 -8 0 6 -9 22 -20 36 -29 38 -25 98 5 73 9 -7 24 3
54 35 22 24 41 49 41 55 0 11 58 50 74 50 5 0 6 -59 3 -137z m4207 112 c3 -8
1 -15 -4 -15 -6 0 -10 7 -10 15 0 8 2 15 4 15 2 0 6 -7 10 -15z m1741 -5 c47
0 60 -4 80 -26 13 -14 32 -27 42 -28 15 -2 18 -12 18 -56 l0 -54 -69 -17 c-70
-18 -106 -22 -182 -20 -36 1 -42 4 -46 26 -4 17 2 34 19 53 24 28 43 80 43
120 0 19 3 21 19 12 11 -5 45 -10 76 -10z m2437 -11 c26 -22 52 -58 79 -113
22 -44 51 -93 65 -107 26 -27 23 -39 -8 -39 -26 0 -119 72 -140 108 -29 48
-59 182 -42 182 3 0 24 -14 46 -31z m-9091 11 c41 -11 54 -35 62 -109 7 -57
51 -119 106 -150 23 -13 41 -25 39 -27 -2 -2 -27 0 -56 5 -28 4 -56 4 -63 0
-9 -5 -10 -35 -5 -112 4 -60 3 -108 -3 -111 -4 -3 -14 -27 -20 -53 l-12 -47
-31 48 c-41 68 -58 119 -58 182 0 48 -4 58 -36 94 -20 22 -58 54 -85 71 -51
33 -78 80 -56 97 7 5 38 17 69 26 58 16 88 43 88 78 0 21 11 22 61 8z m11234
-86 c-10 -35 -27 -67 -45 -83 -16 -14 -44 -40 -63 -57 -26 -24 -45 -32 -88
-36 -43 -4 -50 -3 -34 6 11 6 36 28 55 50 19 21 61 63 93 95 33 31 66 70 75
86 24 44 28 9 7 -61z m-9597 62 c31 -16 78 -63 71 -71 -5 -4 -97 10 -137 21
-19 5 -26 32 -12 49 16 19 43 19 78 1z m2740 -28 c21 -20 52 -75 52 -93 0 -3
-43 -4 -96 -3 l-96 3 -15 43 c-17 51 -8 67 41 80 39 11 82 -1 114 -30z m5865
-42 c19 -54 22 -103 8 -125 -23 -36 -51 47 -51 151 0 55 2 60 13 43 8 -11 21
-42 30 -69z m-6933 22 c0 -39 -9 -71 -31 -118 -35 -74 -40 -139 -15 -188 18
-34 43 -42 52 -17 5 13 10 13 38 -4 17 -10 48 -24 69 -31 29 -9 37 -17 37 -35
0 -33 -11 -37 -99 -37 -77 -1 -203 31 -217 53 -10 17 17 272 35 318 11 31 30
56 59 78 62 47 72 44 72 -19z m1324 17 c71 -40 133 -46 206 -20 68 24 71 22
67 -37 l-4 -53 -43 -3 c-79 -6 -118 -49 -140 -155 -9 -45 -15 -57 -27 -53 -8
4 -38 9 -66 12 -29 4 -72 13 -97 20 -56 17 -60 17 -60 0 0 -8 -5 -18 -10 -21
-6 -4 -8 6 -6 27 3 18 8 80 11 137 7 112 16 149 42 169 27 20 61 14 127 -23z
m-3521 16 c23 -9 22 -13 -12 -50 -35 -37 -97 -179 -118 -269 -21 -93 -22 -94
-34 -87 -17 11 0 99 42 218 22 60 39 119 39 131 0 49 38 75 83 57z m6935 -42
c16 8 28 9 42 1 27 -14 26 -17 -17 -39 -21 -10 -51 -33 -68 -51 -16 -17 -37
-36 -46 -40 -14 -8 -14 -4 -3 43 7 29 15 70 19 91 l7 39 22 -28 c19 -24 25
-26 44 -16z m973 -3 c16 -59 45 -112 81 -146 l31 -30 -60 6 c-79 9 -115 -11
-220 -119 -71 -73 -83 -90 -84 -121 -2 -39 -2 -39 -12 -78 -6 -23 -13 -28 -40
-29 -59 -3 -129 -1 -134 4 -2 3 10 36 27 74 18 37 38 84 45 104 34 94 88 160
198 243 38 29 38 30 31 82 l-6 53 66 -1 66 -1 11 -41z m-7655 6 c33 -17 152
-158 178 -210 20 -40 32 -96 50 -228 3 -20 -1 -21 -88 -20 -86 1 -96 -2 -170
-37 -74 -35 -80 -37 -90 -20 -23 42 -71 74 -140 94 -99 28 -101 30 -99 79 4
86 85 278 142 339 25 26 28 27 111 21 47 -3 94 -11 106 -18z m161 6 c6 -13 41
-61 78 -107 67 -82 126 -129 193 -154 33 -11 34 -13 28 -56 -5 -33 -15 -52
-47 -83 -39 -38 -44 -40 -90 -35 -62 7 -69 12 -69 50 0 53 -29 159 -56 205
-14 23 -46 66 -70 94 l-45 50 27 29 c33 35 38 35 51 7z m902 -24 c12 -15 21
-41 21 -58 0 -22 -3 -27 -9 -17 -15 24 -41 5 -36 -26 6 -34 35 -277 35 -293 0
-24 -17 1 -18 27 -1 15 -15 98 -31 183 -31 154 -37 211 -25 223 10 9 40 -9 63
-39z m3179 -8 c-3 -47 -4 -48 -48 -65 -25 -9 -52 -16 -60 -15 -8 0 -24 2 -35
3 -44 3 -47 14 -21 72 l24 54 71 0 72 0 -3 -49z m371 -85 c-4 -51 -10 -96 -13
-98 -3 -3 -16 -3 -30 1 -45 11 -44 47 4 127 23 39 43 69 44 67 2 -2 -1 -45 -5
-97z m-5161 69 c35 -11 87 -20 115 -21 37 0 46 -3 32 -8 -25 -10 -150 -4 -192
10 -18 6 -33 17 -33 25 0 18 2 18 78 -6z m7509 -25 c40 -20 73 -39 73 -43 0
-14 -160 -172 -174 -172 -19 0 -77 19 -109 37 -32 17 -68 10 -49 -9 21 -21 13
-36 -34 -69 -43 -29 -46 -34 -41 -66 5 -31 4 -33 -16 -27 -31 9 -46 23 -74 67
-37 59 -26 86 75 185 103 100 179 144 236 138 22 -3 72 -21 113 -41z m528 35
c6 -10 -14 -33 -66 -73 -32 -24 -44 -27 -140 -30 -73 -2 -114 1 -139 11 -45
18 -26 29 66 37 96 9 151 20 209 43 61 24 62 24 70 12z m1295 -5 c8 -5 39 -97
44 -130 0 -5 -7 -9 -16 -7 -42 7 3 -71 67 -116 l36 -26 -33 -17 c-18 -10 -50
-21 -70 -24 -39 -7 -53 -18 -44 -34 9 -13 107 12 148 37 67 41 61 22 -14 -53
-85 -84 -112 -93 -174 -55 -23 15 -35 17 -39 9 -14 -21 31 -52 84 -57 28 -2
51 -6 51 -9 0 -2 -11 -26 -25 -53 -25 -48 -27 -50 -69 -50 -39 0 -43 2 -39 23
2 12 -7 44 -20 71 l-23 49 23 45 c15 30 23 63 23 98 0 30 9 78 21 109 21 56
21 73 -1 60 -24 -15 -51 -97 -55 -167 -3 -39 -9 -76 -15 -82 -11 -11 -13 0
-10 47 5 83 -89 70 -116 -15 -10 -32 -22 -2 -17 39 6 45 82 202 131 270 l37
52 52 -4 c29 -2 57 -6 63 -10z m740 0 c0 -2 -10 -10 -22 -16 -21 -11 -22 -11
-9 4 13 16 31 23 31 12z m-9183 -27 c19 -9 30 -25 39 -58 6 -25 15 -53 19 -63
7 -18 5 -17 -33 2 -28 14 -55 42 -83 83 l-42 61 36 -6 c20 -3 49 -12 64 -19z
m4173 -22 c-11 -34 -30 -49 -30 -25 0 14 33 70 38 64 2 -2 -1 -20 -8 -39z
m-2775 -17 c14 -25 15 -50 9 -145 -4 -63 -10 -114 -13 -114 -24 0 -60 46 -97
125 -24 51 -44 97 -44 103 0 19 75 58 117 61 7 1 20 -13 28 -30z m7829 -4 c19
-45 53 -211 62 -302 l7 -73 -39 0 -40 0 -28 123 c-52 220 -56 244 -37 260 15
14 38 25 53 26 4 1 14 -15 22 -34z m399 3 c23 -11 37 -23 30 -25 -7 -3 -32 7
-55 21 -52 31 -34 34 25 4z m275 -63 c-4 -52 -27 -63 -140 -66 -166 -4 -324
-33 -383 -70 -67 -42 -90 -36 -40 11 28 26 32 49 13 69 -11 11 -9 12 12 7 102
-29 171 -15 345 74 l110 56 43 -20 c41 -20 43 -22 40 -61z m-10733 58 c50 -3
91 -6 92 -8 8 -5 -32 -85 -42 -85 -7 0 -30 6 -52 14 -21 7 -58 16 -82 20 -56
7 -58 10 -53 46 4 27 8 31 26 25 11 -3 62 -8 111 -12z m3349 -17 c34 -33 70
-46 131 -46 45 0 65 -9 65 -29 0 -14 -19 -21 -88 -34 -103 -20 -136 -21 -163
-7 -18 10 -59 78 -59 99 0 7 37 31 78 50 1 0 18 -14 36 -33z m1575 -2 c33 -22
52 -41 72 -71 15 -22 15 -30 2 -81 -8 -32 -26 -69 -40 -84 -21 -22 -28 -48
-49 -178 -13 -84 -33 -200 -45 -258 -21 -104 -22 -186 -3 -308 l6 -42 -78 28
c-44 16 -91 33 -106 39 l-28 10 23 35 c12 19 30 35 39 36 12 0 19 11 23 35 3
19 8 52 11 72 3 20 17 60 32 87 47 94 57 188 31 291 -6 22 -21 85 -33 140 -32
143 -42 168 -82 208 l-35 35 48 15 c26 9 57 17 68 19 34 6 116 -10 144 -28z
m5863 -39 c-7 -62 -12 -55 -11 16 0 41 3 57 8 44 4 -11 6 -38 3 -60z m-7232
44 c0 -21 -3 -21 -71 -15 -78 8 -99 14 -99 27 0 5 38 9 85 9 80 0 85 -1 85
-21z m6380 6 c0 -9 -9 -15 -25 -15 -24 0 -32 10 -18 23 12 13 43 7 43 -8z
m-3279 -16 c19 -37 28 -78 18 -85 -11 -6 -39 55 -39 86 0 26 6 25 21 -1z
m3775 -9 c2 0 4 -4 4 -9 0 -11 -115 -51 -147 -51 -38 0 -27 28 23 60 45 28 48
29 82 15 19 -8 36 -15 38 -15z m-9100 -22 c-8 -43 -45 -82 -106 -113 -56 -28
-70 -48 -70 -99 0 -20 -3 -36 -7 -36 -5 0 -46 7 -91 17 l-84 16 6 30 c3 16 6
36 6 44 0 10 10 14 33 13 59 -4 72 0 106 30 31 28 36 29 55 16 19 -12 26 -12
49 0 15 8 27 19 27 24 0 10 73 98 79 94 2 -2 1 -18 -3 -36z m2716 33 c13 -6
34 -26 48 -45 18 -26 31 -35 45 -32 11 3 47 -1 80 -8 72 -15 79 -15 175 12 56
16 82 29 101 52 18 21 32 28 48 25 47 -9 129 -54 149 -82 21 -29 49 -120 40
-129 -3 -2 -22 3 -44 13 -61 26 -206 23 -263 -6 -24 -13 -50 -28 -58 -34 -38
-31 -135 -174 -154 -229 l-23 -61 -76 6 c-78 6 -220 46 -255 71 -18 13 -19 19
-7 142 19 187 37 258 74 289 31 26 78 33 120 16z m1906 -48 c11 -32 23 -66 27
-75 5 -13 -2 -19 -35 -29 -23 -7 -63 -32 -90 -55 l-47 -43 -28 29 c-16 17 -33
30 -38 30 -15 0 -111 51 -119 63 -4 7 -8 33 -8 58 l0 45 98 1 c54 1 117 8 142
16 73 24 76 23 98 -40z m-6979 0 c73 -58 81 -71 81 -140 0 -54 6 -73 45 -147
25 -47 45 -93 45 -101 0 -14 -88 -175 -96 -175 -1 0 -12 15 -23 34 -15 24 -21
50 -21 92 0 41 -7 74 -24 109 -34 72 -52 93 -67 78 -9 -9 -5 -22 19 -58 29
-43 51 -120 38 -132 -3 -3 -12 0 -20 6 -9 7 -42 15 -74 18 -66 6 -108 -10
-200 -79 -73 -54 -81 -46 -84 90 -2 87 -6 107 -18 107 -13 0 -15 -19 -14 -114
l1 -115 32 -28 c17 -15 39 -28 49 -28 10 0 51 -34 92 -76 41 -41 92 -84 112
-95 33 -17 126 -35 171 -33 9 1 17 -2 17 -5 0 -13 -171 -91 -201 -91 -22 0
-71 28 -178 100 -81 54 -159 104 -173 109 -36 14 -48 77 -48 254 0 169 -3 162
126 292 49 50 98 102 109 118 l20 27 106 -69 c113 -74 166 -100 187 -94 21 8
14 30 -33 103 -25 39 -45 72 -45 75 0 14 28 1 69 -32z m8727 -12 c46 -22 84
-44 84 -49 0 -5 -14 -41 -31 -80 l-31 -70 -56 22 c-113 44 -174 41 -244 -15
-20 -16 -41 -29 -47 -29 -5 0 -15 17 -22 37 -13 40 -19 30 66 103 17 14 45 43
64 65 66 77 84 78 217 16z m-6083 7 c23 -12 71 -31 107 -43 l65 -22 16 -161
c9 -88 22 -189 28 -225 15 -88 15 -88 -16 -71 -35 18 -66 18 -127 -1 -27 -8
-51 -14 -52 -12 -4 3 -48 359 -60 477 -3 36 -8 68 -11 73 -7 12 5 8 50 -15z
m1148 5 c13 -17 13 -17 -6 -3 -11 8 -22 16 -24 17 -2 2 0 3 6 3 6 0 17 -8 24
-17z m5057 7 c15 0 15 -2 0 -16 -14 -15 -21 -15 -47 -4 -41 16 -40 34 0 26 17
-3 39 -6 47 -6z m2149 -126 c40 -157 39 -176 -4 -185 -39 -8 -40 -6 -83 89
-18 39 -39 77 -47 84 -11 9 -8 16 22 40 27 23 35 37 35 62 0 38 5 45 28 42 13
-2 25 -34 49 -132z m-6946 85 c-6 -24 -9 -28 -10 -12 -1 24 9 56 16 50 2 -3 0
-20 -6 -38z m5643 15 c22 -21 20 -31 -9 -50 -28 -19 -144 -30 -197 -20 -35 7
-87 41 -77 50 3 4 42 9 85 13 66 5 108 10 176 22 4 0 14 -6 22 -15z m-8669
-26 l40 -13 -3 -105 c-2 -58 2 -120 7 -139 6 -19 9 -36 7 -38 -2 -3 -21 0 -42
6 -22 6 -79 15 -129 21 -110 14 -168 38 -195 82 -40 65 -20 108 50 108 46 0
85 25 101 62 7 18 17 36 21 39 11 7 90 -5 143 -23z m1220 12 c-3 -5 -10 -10
-16 -10 -5 0 -9 5 -9 10 0 6 7 10 16 10 8 0 12 -4 9 -10z m1527 -7 c8 -10 22
-45 31 -78 16 -63 31 -205 21 -205 -3 0 -22 13 -42 30 -21 17 -59 34 -90 41
l-53 11 5 66 c2 37 5 77 5 90 2 53 89 85 123 45z m5558 -15 c47 -15 75 -31
101 -58 46 -48 92 -128 118 -206 23 -69 19 -101 -23 -164 -13 -20 -35 -58 -49
-86 -41 -81 -160 -178 -216 -176 -15 0 -68 25 -117 54 -105 63 -127 96 -144
222 -6 44 -19 95 -30 114 -13 21 -20 51 -20 83 0 46 4 54 48 101 145 159 166
166 332 116z m678 18 c3 -4 2 -10 -4 -14 -5 -4 -19 -20 -30 -36 -19 -26 -28
-30 -81 -32 -58 -3 -61 -2 -98 36 -39 40 -39 42 10 54 27 7 194 0 203 -8z
m1164 -48 c-8 -8 -12 -9 -12 -1 0 6 -3 20 -6 30 -7 17 -6 17 12 1 14 -14 16
-20 6 -30z m-10811 22 c19 0 29 -5 29 -14 0 -20 -6 -23 -67 -30 l-53 -6 0 31
c0 30 2 31 31 25 17 -3 44 -6 60 -6z m5713 -45 c-21 -32 -29 -20 -14 20 8 20
14 25 21 18 8 -8 6 -19 -7 -38z m5752 -11 c23 -14 11 -32 -27 -40 -51 -10
-177 -11 -246 -1 -92 14 -116 4 -134 -55 l-14 -43 -90 -6 c-49 -4 -100 -10
-112 -14 -22 -7 -23 -5 -23 38 l0 46 65 36 c75 42 128 53 331 64 77 5 149 13
160 19 14 8 24 6 45 -11 14 -12 35 -27 45 -33z m-7256 4 c0 -44 15 -161 26
-204 6 -23 4 -24 -48 -24 -30 0 -92 -11 -138 -25 -111 -33 -112 -33 -89 15 14
28 19 61 19 117 0 121 -2 117 103 140 133 29 127 30 127 -19z m5195 14 c44
-38 93 -110 115 -172 38 -107 70 -276 70 -373 l0 -87 -52 -33 c-63 -39 -114
-61 -188 -81 -100 -27 -141 -27 -194 -1 -27 13 -82 34 -122 47 -41 13 -74 26
-74 29 0 4 17 18 38 32 55 39 127 116 154 167 13 25 37 65 53 89 24 36 30 54
30 102 0 51 -7 72 -51 157 l-51 99 100 6 c72 4 104 10 115 21 20 20 32 20 57
-2z m-1981 -13 c-8 -14 -44 -10 -44 5 0 9 8 12 25 8 14 -2 22 -8 19 -13z
m-3760 2 c3 -5 -10 -35 -30 -67 -35 -58 -36 -61 -31 -142 l5 -83 -37 -19 c-21
-10 -41 -15 -47 -12 -25 18 -34 54 -28 105 6 44 13 57 48 88 23 20 55 60 71
88 30 51 39 59 49 42z m3196 -37 c52 -19 111 -60 139 -95 11 -14 40 -72 66
-129 44 -98 47 -109 42 -168 -6 -82 -44 -158 -97 -195 -22 -16 -57 -48 -77
-73 -21 -24 -41 -44 -46 -44 -5 0 -24 -7 -42 -16 -25 -11 -42 -13 -67 -6 -20
5 -44 5 -60 0 -32 -11 -95 4 -130 31 -14 11 -37 52 -54 97 -20 53 -44 94 -75
128 -62 69 -72 90 -71 155 1 99 36 166 134 263 45 44 103 72 168 80 36 5 118
-9 170 -28z m1085 26 c4 -6 -5 -10 -19 -10 -14 0 -26 5 -26 10 0 6 9 10 19 10
11 0 23 -4 26 -10z m-3530 -16 c11 -2 32 -6 48 -10 l27 -6 -6 -121 c-4 -77
-11 -130 -20 -144 -10 -16 -14 -57 -14 -139 l0 -116 -57 7 c-60 7 -81 23 -84
63 -1 12 -2 25 -3 30 -1 4 -5 52 -9 107 -14 203 -19 324 -12 335 7 11 52 8
130 -6z m3230 -14 c22 -43 20 -45 -35 -44 -114 3 -290 -50 -261 -79 6 -6 31
-1 68 13 39 15 89 24 155 28 l96 5 124 -58 c67 -32 133 -65 144 -74 59 -44 84
-120 130 -394 l28 -167 -33 -33 -32 -32 6 91 c7 89 7 91 -15 97 -16 4 -21 11
-16 22 13 34 19 152 8 159 -15 9 -26 -12 -29 -54 -5 -69 -14 -120 -24 -125 -5
-4 -19 -8 -31 -11 -35 -6 -637 -13 -685 -7 l-42 5 -12 59 c-8 40 -16 59 -26
59 -12 0 -14 -11 -8 -60 7 -57 6 -60 -14 -60 -27 0 -28 -2 -46 -139 -8 -62
-16 -116 -19 -118 -2 -2 -30 5 -62 17 -33 12 -72 24 -89 28 -29 7 -30 11 -33
66 -3 55 -1 60 32 92 20 19 36 39 36 43 0 5 25 27 55 50 30 23 66 59 79 80 49
76 62 192 32 265 -9 21 -16 44 -16 51 0 7 26 22 59 34 65 23 94 48 131 110 30
51 78 75 185 95 125 22 142 21 160 -14z m1978 -14 c-4 -33 0 -56 16 -88 29
-60 26 -74 -4 -18 -23 43 -31 101 -19 134 10 26 12 18 7 -28z m-9628 5 c-6
-20 -62 -58 -71 -49 -2 3 -7 18 -10 36 -6 30 -6 31 37 34 54 4 52 4 44 -21z
m6372 -2 c76 -31 82 -52 39 -124 -20 -32 -39 -73 -42 -92 -10 -56 -21 -28 -26
69 -3 51 -12 110 -21 131 -9 20 -12 37 -8 37 5 0 31 -9 58 -21z m3203 -15 c0
-14 10 -48 22 -76 18 -42 19 -51 7 -59 -22 -14 -24 -12 -53 59 -41 101 -41
100 -14 104 32 5 38 1 38 -28z m959 -69 l30 -69 -42 -24 c-136 -76 -178 -180
-180 -442 -1 -148 8 -185 48 -200 24 -9 25 -14 25 -83 l0 -73 -97 -11 c-54 -6
-116 -17 -138 -25 l-40 -13 -33 67 c-21 44 -59 94 -112 149 -43 46 -78 84 -77
84 29 10 124 86 153 122 22 26 42 50 45 53 12 9 59 103 59 116 0 31 -27 11
-53 -39 -84 -162 -232 -257 -404 -260 -44 -1 -84 1 -87 4 -3 3 4 41 16 84 l23
79 58 29 c60 31 144 105 189 167 14 19 52 86 83 147 43 85 69 124 107 158 64
58 100 68 174 48 64 -16 116 -11 160 16 27 17 30 18 46 2 10 -9 31 -48 47 -86z
m1148 80 c53 -16 55 -18 96 -125 33 -84 30 -210 -6 -320 -31 -93 -74 -157
-100 -147 -9 3 -23 17 -33 31 -15 23 -15 30 -1 63 31 79 -13 153 -82 140 -37
-8 -45 0 -76 68 -14 33 -37 71 -49 85 -42 45 -46 62 -27 106 46 99 151 137
278 99z m-6337 -8 c43 -15 75 -61 101 -149 25 -82 23 -205 -3 -253 -33 -60
-50 -101 -58 -144 -4 -25 -14 -50 -22 -56 -7 -6 -20 -24 -28 -40 -19 -36 -72
-65 -121 -65 l-36 0 -7 108 c-15 215 -14 217 35 264 45 43 45 67 -1 43 -33
-17 -46 -18 -42 -3 2 6 0 18 -3 26 -4 11 -8 12 -20 2 -19 -16 -35 -4 -35 26 0
30 -26 32 -35 3 l-7 -21 -23 22 c-33 31 -51 16 -25 -20 26 -37 25 -49 -9 -96
-38 -51 -58 -103 -75 -189 -12 -65 -15 -70 -36 -67 -36 4 -42 20 -36 102 15
219 123 434 251 500 46 23 176 27 235 7z m2653 -39 c9 -29 14 -54 12 -56 -12
-12 -108 -13 -135 -2 -32 13 -65 63 -54 81 11 18 47 28 105 28 l55 1 17 -52z
m1791 -125 c31 -66 33 -84 7 -52 l-19 24 -23 -39 c-21 -36 -23 -37 -36 -20
-11 16 -16 65 -16 170 0 17 11 47 24 65 l24 34 7 -63 c4 -34 18 -88 32 -119z
m-6059 26 c32 -63 74 -107 120 -126 25 -10 45 -20 45 -23 0 -3 -8 -15 -18 -28
l-18 -23 -65 35 c-35 20 -83 46 -106 58 -41 21 -41 22 -48 87 -6 65 2 109 28
139 9 11 14 4 28 -35 9 -27 24 -65 34 -84z m7568 115 c53 -4 97 -9 97 -13 0
-16 -26 -31 -54 -31 -17 0 -64 12 -104 27 -71 25 -74 26 -108 10 -34 -17 -35
-17 -23 4 9 18 17 20 52 15 23 -4 86 -9 140 -12z m-5645 -66 c-18 -71 -18 -72
2 -93 11 -12 20 -30 20 -41 0 -25 27 -64 45 -64 7 0 22 -18 34 -40 23 -45 24
-45 -46 -26 -43 12 -54 12 -63 1 -19 -23 -28 -115 -28 -275 0 -85 0 -171 -1
-190 l-1 -34 -21 20 c-16 16 -24 46 -35 125 -16 109 -14 150 11 271 9 40 25
134 36 208 11 74 22 144 25 155 5 16 32 55 39 55 1 0 -7 -32 -17 -72z m2656
51 c31 -11 58 -24 61 -29 3 -5 -3 -27 -14 -48 l-20 -39 -53 14 c-81 22 -208 4
-208 -29 0 -7 15 -8 48 -3 82 13 172 5 172 -16 0 -23 -70 -39 -168 -39 -137 0
-148 14 -82 101 80 106 152 130 264 88z m-5465 -61 c1 -22 -27 -24 -35 -3 -4
9 0 30 7 48 l14 32 6 -30 c4 -16 7 -38 8 -47z m116 33 l85 -29 -35 -28 c-20
-16 -52 -56 -73 -88 l-37 -59 -12 99 c-7 54 -14 107 -17 117 -2 9 -3 17 -1 17
2 0 43 -13 90 -29z m-2069 -31 c51 -13 124 -64 124 -88 0 -10 -18 -36 -41 -57
-22 -22 -47 -52 -55 -67 -15 -28 -89 -74 -97 -60 -13 21 -87 303 -82 312 3 5
27 1 58 -10 29 -11 70 -24 93 -30z m-816 14 c116 -42 203 -84 233 -112 16 -16
34 -49 43 -82 37 -131 59 -175 146 -288 52 -68 53 -84 6 -116 -49 -35 -118
-110 -134 -146 -13 -30 -35 -51 -87 -85 -38 -25 -76 -45 -84 -45 -23 0 -91 38
-118 67 -35 37 -54 75 -75 147 -37 130 -38 130 -139 164 -49 17 -99 28 -111
25 -18 -5 -20 -1 -20 48 0 56 28 129 85 218 14 24 43 75 62 115 42 85 69 116
99 116 13 0 55 -12 94 -26z m363 -68 c30 -9 60 -16 65 -16 24 0 31 -95 10
-121 -11 -13 -23 -14 -66 -6 -51 8 -54 11 -73 55 -11 26 -34 61 -50 78 -26 27
-30 36 -24 68 l7 36 38 -39 c26 -27 55 -44 93 -55z m1303 73 c59 -11 125 -27
148 -36 47 -18 96 -50 96 -62 0 -5 -26 -11 -57 -15 -32 -4 -95 -19 -139 -35
l-82 -29 -54 57 c-95 99 -94 98 -73 121 22 25 29 25 161 -1z m9526 -6 c62 -20
88 -33 88 -44 0 -13 -15 -17 -73 -22 -41 -3 -93 -11 -116 -18 -36 -11 -44 -10
-52 2 -23 37 6 109 45 109 11 0 60 -12 108 -27z m-9075 -8 c48 -19 50 -23 59
-112 l7 -66 -34 25 c-42 32 -103 58 -135 58 -13 0 -51 20 -85 45 -34 25 -65
45 -70 45 -5 0 -9 4 -9 9 0 25 203 22 267 -4z m-595 -96 c60 -67 65 -75 48
-83 -15 -7 -28 0 -63 35 -23 24 -68 60 -99 79 -73 45 -74 58 -6 50 49 -7 56
-11 120 -81z m1778 63 c69 -33 136 -158 143 -265 2 -28 0 -89 -4 -133 -4 -45
-10 -128 -14 -185 -9 -123 -12 -131 -65 -187 -72 -76 -167 -104 -325 -96 -122
7 -160 22 -209 87 -59 78 -67 146 -36 327 49 293 114 420 235 465 53 19 224
11 275 -13z m7693 -13 c7 -28 -4 -43 -44 -59 -16 -7 -28 -18 -26 -24 5 -12 13
-12 72 3 100 25 250 43 288 33 24 -6 21 -29 -5 -38 -13 -4 -69 -54 -125 -110
-56 -57 -105 -104 -110 -104 -5 0 -30 33 -56 73 -53 84 -126 161 -179 188 -52
26 -54 37 -11 44 21 4 43 8 48 9 6 2 40 4 76 5 61 2 67 0 72 -20z m-9669 -14
c22 -8 44 -11 49 -8 6 3 7 1 3 -5 -4 -7 -3 -12 2 -12 22 0 120 -91 131 -121
21 -61 13 -139 -26 -255 -32 -97 -37 -121 -37 -214 -1 -103 0 -107 37 -177 20
-40 37 -74 37 -77 0 -2 -17 -7 -37 -11 -21 -4 -48 -19 -65 -37 -28 -30 -28
-32 -28 -151 0 -117 -2 -126 -46 -262 -43 -129 -105 -258 -136 -282 -16 -12
-136 -63 -149 -63 -5 0 4 26 20 57 16 32 36 83 45 113 23 76 32 267 17 368
l-12 83 27 31 c23 28 26 38 21 81 -7 57 -63 176 -107 230 -59 70 -221 167
-280 167 -11 0 -23 6 -26 13 -6 16 62 269 83 312 48 92 141 173 252 216 56 22
169 24 225 4z m6584 4 c-2 -6 -8 -10 -13 -10 -5 0 -11 4 -13 10 -2 6 4 11 13
11 9 0 15 -5 13 -11z m-5255 -21 c-25 -29 -63 -92 -63 -106 0 -5 7 -12 15 -16
11 -4 20 6 31 34 19 46 30 51 29 13 0 -38 22 -40 30 -1 17 77 59 123 80 88 12
-20 18 -255 7 -276 -7 -14 -32 -26 -80 -37 -98 -24 -135 -22 -147 5 -6 12 -23
29 -40 38 -26 15 -31 24 -42 90 -7 41 -10 76 -8 78 11 11 191 112 199 112 5 0
0 -10 -11 -22z m8108 -18 c66 -34 106 -68 153 -129 79 -102 136 -241 171 -414
24 -123 2 -193 -81 -256 -57 -43 -111 -62 -204 -70 -71 -6 -78 -5 -135 26 -66
35 -154 60 -230 65 -47 3 -50 5 -56 37 -4 18 -7 92 -8 164 -2 156 -8 254 -22
358 -10 66 -9 82 6 112 24 51 105 108 180 128 55 15 178 3 226 -21z m-1157
-61 l26 -46 -41 -12 c-50 -15 -55 -10 -65 68 -5 40 -3 55 7 62 17 10 37 -9 73
-72z m-8995 53 l54 -17 28 -90 c16 -50 29 -90 29 -91 0 0 -35 11 -77 24 -125
39 -168 58 -165 73 2 7 3 37 3 66 l0 53 37 -1 c20 0 61 -8 91 -17z m7921 -63
c0 -29 -14 -45 -45 -51 -17 -2 -20 2 -17 30 1 18 9 50 18 70 l16 37 14 -30 c7
-16 13 -42 14 -56z m-4362 53 c7 -5 -8 -9 -35 -9 -27 -1 -81 -13 -122 -27 -80
-28 -101 -31 -101 -16 0 8 84 37 155 53 34 8 89 7 103 -1z m1878 -59 c23 -90
34 -113 60 -119 47 -12 23 -32 -33 -28 -18 1 -50 2 -72 3 l-38 1 23 46 c13 25
26 73 30 105 4 33 9 58 11 55 2 -2 11 -30 19 -63z m2390 12 l-11 -46 -85 -29
c-46 -17 -88 -30 -92 -30 -19 0 -5 21 32 47 39 28 52 53 27 53 -7 0 -34 -13
-60 -30 -46 -29 -59 -52 -61 -107 -2 -36 -21 -32 -24 5 -2 19 7 53 21 85 43
92 43 91 154 97 54 3 101 4 104 3 4 -2 2 -23 -5 -48z m-6348 6 c54 -28 90 -73
97 -124 7 -51 -1 -180 -14 -224 -21 -72 -110 -163 -159 -163 -66 0 -129 -68
-147 -160 -16 -83 -125 -250 -162 -250 -6 0 -28 22 -48 49 -20 28 -51 60 -70
71 -39 24 -39 29 -21 115 16 74 11 128 -20 225 -28 89 -30 128 -7 201 9 30 17
86 17 125 l0 70 140 44 c201 62 302 68 394 21z m3801 -153 c1 -3 -7 -5 -16 -3
-10 2 -35 7 -55 10 -44 7 -47 19 -13 51 20 18 25 33 26 71 l0 48 29 -85 c16
-47 29 -88 29 -92z m5490 98 c34 -75 71 -107 103 -87 42 26 78 -48 45 -93 -7
-9 -19 -16 -27 -14 -8 2 -16 -5 -18 -14 -2 -11 2 -18 12 -18 9 0 27 -18 41
-40 14 -22 30 -40 35 -40 6 0 10 -4 10 -10 0 -21 -47 -9 -71 19 -18 21 -41 32
-82 41 -86 17 -97 37 -97 169 0 96 6 151 16 151 2 0 17 -29 33 -64z m-7200 41
c17 -21 27 -157 11 -157 -6 0 -24 -9 -39 -20 l-28 -19 -12 40 c-13 44 -62 105
-92 114 -30 10 -23 20 29 37 59 20 116 22 131 5z m-549 -31 c34 -29 110 -65
178 -86 124 -38 150 -74 178 -248 20 -128 38 -198 80 -306 19 -48 34 -104 34
-124 l0 -35 -58 55 c-100 96 -139 107 -327 95 -29 -2 -30 0 -37 53 -9 75 -22
83 -130 77 -49 -3 -88 -1 -90 4 -2 5 0 60 5 122 4 61 9 175 10 251 l3 139 45
17 c45 18 75 14 109 -14z m880 7 c41 -17 204 -53 241 -53 l27 0 -14 -62 c-17
-79 -18 -200 -2 -216 6 -6 9 -14 7 -17 -3 -3 -62 -7 -130 -11 -110 -5 -169
-13 -215 -31 -12 -4 -14 25 -14 194 0 142 3 202 12 211 12 12 28 10 88 -15z
m6786 -20 c-4 -35 -14 -53 -34 -70 -30 -24 -115 -57 -134 -51 -14 5 142 168
161 168 11 0 12 -11 7 -47z m-11764 11 c11 -11 37 -44 58 -74 35 -52 37 -59
37 -134 l0 -79 -63 6 c-91 9 -119 25 -216 121 l-87 86 33 25 c18 14 55 37 82
51 57 29 122 28 156 -2z m4418 -19 c76 -30 97 -47 121 -100 24 -51 25 -73 4
-55 -10 8 -29 10 -55 6 -24 -4 -40 -2 -40 4 0 21 -63 79 -98 91 -54 17 -59 25
-32 54 13 14 26 25 30 25 3 0 35 -11 70 -25z m2338 -86 c-7 -5 -28 -9 -47 -9
-33 0 -33 0 -17 23 9 12 24 37 33 55 l17 33 14 -47 c11 -39 11 -48 0 -55z
m1846 57 c-8 -23 -13 -49 -10 -58 5 -23 3 -23 -69 6 -57 24 -73 40 -74 78 -1
15 10 17 83 16 l84 -1 -14 -41z m1696 31 c-10 -9 -33 -12 -67 -9 -72 5 -57 22
20 22 52 0 59 -2 47 -13z m-9390 -32 c87 -21 250 -75 249 -83 -1 -4 -44 -47
-96 -97 l-95 -90 -16 24 c-10 14 -34 45 -55 70 -36 44 -97 156 -97 180 0 15
32 14 110 -4z m8110 -32 c19 -79 45 -110 134 -161 l81 -47 -96 -7 c-53 -4
-113 -14 -134 -22 -21 -9 -39 -16 -40 -16 -2 0 -3 48 -3 107 1 71 -3 108 -11
111 -22 7 -12 51 17 66 38 21 38 21 52 -31z m-110 15 c0 -19 -2 -20 -10 -8
-13 19 -13 30 0 30 6 0 10 -10 10 -22z m1182 10 c-7 -7 -12 -20 -12 -29 0 -10
-10 -19 -25 -21 -29 -6 -35 -2 -35 24 0 19 30 36 65 37 15 1 16 -2 7 -11z
m-4566 -86 c-1 -42 3 -116 8 -164 4 -49 5 -88 1 -88 -3 0 -14 7 -22 16 -15 15
-18 14 -32 -4 -15 -19 -19 -19 -63 -6 -65 20 -73 38 -58 133 12 75 45 156 73
179 12 10 13 8 9 -13 -6 -34 9 -32 36 5 35 47 49 31 48 -58z m4731 75 c12 -20
-26 -38 -86 -42 -65 -5 -75 3 -44 37 13 15 29 18 70 17 30 -1 57 -7 60 -12z
m-1394 -104 c-6 -80 -7 -82 -50 -125 l-45 -43 -29 35 c-16 19 -38 57 -48 84
-15 41 -16 54 -6 84 11 30 18 37 45 40 18 2 42 -4 57 -13 32 -21 53 -13 53 22
0 24 2 26 15 12 12 -11 13 -31 8 -96z m-5977 63 c22 -23 27 -68 10 -91 -14
-20 -14 -20 -38 1 -40 37 -65 45 -118 38 -46 -6 -50 -5 -50 14 0 24 38 47 97
60 40 9 75 1 99 -22z m3374 -22 c95 -19 363 -29 457 -17 85 11 106 2 146 -60
33 -50 41 -107 33 -216 -8 -107 -14 -131 -35 -131 -9 0 -33 -12 -54 -26 -39
-26 -108 -44 -255 -65 -52 -7 -94 -19 -115 -33 -43 -29 -91 -105 -114 -178
l-18 -60 -67 5 c-87 7 -125 27 -132 70 -22 130 -30 166 -43 197 -12 28 -15 84
-16 265 0 127 3 244 7 261 l7 32 62 -15 c34 -8 96 -21 137 -29z m-4994 9 c-3
-10 -17 -61 -31 -113 -48 -173 -40 -162 -123 -176 -70 -12 -143 -42 -250 -103
-29 -17 -55 -31 -57 -31 -17 0 5 28 72 92 42 40 117 114 168 164 89 89 202
184 218 184 5 0 6 -8 3 -17z m10508 -99 c11 -36 50 -63 106 -74 55 -10 83 -26
77 -43 -1 -5 -50 -33 -107 -61 -91 -44 -106 -55 -115 -83 -14 -42 -13 -42 -76
-49 l-54 -6 -12 77 c-7 43 -11 81 -8 85 3 4 17 11 32 15 40 10 143 76 143 91
0 20 -17 17 -50 -6 -36 -25 -110 -59 -130 -60 -10 0 -22 22 -35 68 -11 37 -20
71 -20 76 0 5 32 15 72 22 40 6 91 23 115 36 l43 24 6 -46 c4 -25 9 -55 13
-66z m-3204 62 c57 -28 69 -39 93 -87 16 -30 39 -68 53 -86 29 -38 30 -48 7
-50 -10 -1 -52 -14 -93 -28 -41 -15 -82 -29 -90 -31 -12 -4 -19 23 -39 143
-13 81 -26 154 -28 161 -9 21 29 13 97 -22z m1574 12 c38 2 38 1 22 -17 -20
-22 -66 -46 -108 -56 -27 -7 -28 -5 -28 28 0 40 23 61 55 49 11 -3 38 -6 59
-4z m660 -186 c5 -107 4 -152 -4 -152 -6 0 -15 12 -20 26 -11 29 -13 207 -3
280 10 75 19 25 27 -154z m-1874 107 c0 -17 -3 -18 -20 -9 -20 11 -25 35 -14
65 5 13 9 11 20 -11 8 -14 14 -35 14 -45z m-5942 49 c5 -7 13 -39 16 -70 9
-79 -11 -100 -129 -134 -102 -30 -145 -39 -145 -30 0 3 4 14 10 24 5 9 18 38
29 65 22 51 53 72 84 55 15 -7 25 -2 53 27 19 20 34 45 34 56 0 22 32 26 48 7z
m1696 -9 c31 -24 33 -40 8 -63 -40 -35 -56 -148 -17 -116 8 7 15 21 15 33 0
25 35 83 55 91 12 4 15 -3 15 -34 0 -35 14 -60 27 -47 2 3 7 24 10 46 6 45 6
45 33 31 27 -14 27 -137 0 -197 -10 -24 -21 -43 -23 -43 -2 0 -12 25 -22 55
-27 88 -81 99 -109 22 -8 -23 -17 -78 -20 -122 -6 -78 -13 -127 -18 -129 -2 0
-13 -7 -26 -14 -20 -11 -23 -10 -33 15 -45 116 -46 144 -4 183 30 28 65 118
65 166 0 21 -9 47 -20 61 -20 25 -20 25 1 54 24 35 29 35 63 8z m-1865 -23 c8
-9 2 -16 -22 -27 -30 -14 -33 -14 -54 8 -23 24 -22 25 17 36 20 5 47 -2 59
-17z m421 -13 c0 -40 -12 -53 -51 -57 -19 -2 -61 -6 -94 -10 -41 -4 -54 -3
-40 3 11 6 46 13 77 16 54 6 90 26 70 39 -5 3 -35 1 -66 -5 -32 -6 -67 -9 -79
-6 -15 2 -10 5 18 10 22 4 65 13 95 21 30 7 58 14 63 15 4 0 7 -11 7 -26z
m1303 7 c15 -12 36 -35 48 -51 20 -29 21 -35 9 -84 -14 -57 -76 -148 -85 -124
-2 8 -13 68 -24 134 -19 111 -19 121 -4 133 22 16 26 16 56 -8z m-1807 -64 c9
-35 -19 -90 -78 -152 -61 -65 -81 -77 -109 -69 -18 6 -15 11 26 47 53 47 89
105 105 170 11 42 14 46 31 37 10 -5 21 -20 25 -33z m-3157 20 c46 -41 274
-182 341 -212 67 -29 90 -34 154 -34 42 0 76 -1 76 -2 0 -2 7 -41 15 -87 8
-46 12 -87 10 -92 -6 -9 -86 -33 -186 -55 -86 -18 -263 -21 -314 -4 -32 11
-36 17 -59 88 -23 76 -96 377 -96 400 0 17 40 15 59 -2z m9346 -35 c9 -31 -5
-50 -43 -56 -21 -4 -47 -8 -60 -11 -22 -4 -22 -4 -6 21 21 32 64 64 86 65 9 0
19 -8 23 -19z m1065 -111 c-16 -63 -34 -171 -40 -240 -6 -69 -18 -151 -26
-183 -17 -65 -62 -173 -69 -165 -3 2 0 31 6 64 24 126 -8 270 -74 345 -18 20
-57 54 -87 76 -91 66 -91 67 3 85 106 21 180 49 253 97 33 21 60 38 61 37 1
-1 -11 -53 -27 -116z m-9740 88 c36 -12 66 -23 68 -24 2 -1 -6 -12 -17 -23
-31 -31 -34 -59 -19 -181 8 -61 12 -113 9 -115 -4 -2 -23 -6 -43 -10 l-36 -7
-12 74 c-9 62 -28 174 -47 281 -7 34 9 35 97 5z m2961 -50 c-15 -83 6 -185 51
-250 18 -27 18 -27 -2 -38 -28 -15 -87 -9 -109 11 -62 58 -123 61 -251 11
-132 -51 -126 -53 -86 20 19 35 42 90 52 123 23 76 25 79 76 94 24 7 55 24 70
38 14 14 42 27 60 30 19 2 57 8 84 12 27 4 52 5 57 1 4 -3 3 -27 -2 -52z
m6199 7 c113 -36 154 -58 186 -100 14 -19 54 -55 88 -79 141 -101 173 -208
135 -451 -10 -66 -21 -140 -24 -165 -3 -25 -9 -51 -14 -58 -21 -34 -482 -61
-696 -41 -216 20 -263 13 -285 -47 -28 -72 -102 -418 -119 -552 -11 -85 -21
-156 -24 -159 -3 -2 -23 13 -44 35 -27 28 -49 67 -78 143 -38 99 -40 109 -39
209 1 63 8 139 20 190 15 67 18 120 17 249 -2 149 -9 198 -29 179 -3 -4 -5
-82 -5 -175 1 -204 -11 -273 -51 -287 -51 -18 -132 9 -191 64 l-52 48 1 83 c1
64 9 111 33 194 75 251 138 416 194 501 18 27 53 63 78 80 55 36 182 79 299
100 47 8 119 24 160 36 109 31 144 35 255 32 76 -1 120 -8 185 -29z m-4070
-24 c16 -15 49 -33 74 -40 25 -6 48 -16 51 -21 4 -6 11 -8 16 -4 5 3 7 9 5 13
-8 12 27 10 43 -3 8 -6 43 -10 80 -9 l65 2 -31 -20 c-44 -28 -94 -26 -199 6
-108 33 -164 62 -164 87 0 27 28 22 60 -11z m-5206 -12 c15 -76 13 -79 -56
-78 -74 1 -140 20 -118 35 26 17 145 73 156 73 6 1 14 -13 18 -30z m1873 -150
c3 -38 1 -74 -5 -84 -9 -16 -13 -13 -33 26 -19 35 -24 60 -24 124 0 44 4 89 9
100 7 17 12 10 28 -40 11 -33 22 -90 25 -126z m6397 173 c2 -4 0 -53 -6 -109
-8 -89 -14 -114 -53 -197 -44 -94 -165 -460 -165 -500 0 -44 -10 -47 -101 -28
l-84 18 -17 55 c-26 80 -108 266 -145 330 -18 31 -56 78 -84 103 -50 45 -67
52 -179 79 -30 7 -55 17 -55 23 2 59 30 214 39 214 6 1 155 1 331 2 271 1 401
5 497 15 10 1 19 -1 22 -5z m3736 -89 c0 -54 -5 -127 -10 -163 -6 -36 -21
-150 -34 -255 -23 -183 -25 -192 -61 -252 -20 -35 -52 -72 -70 -83 -40 -25
-42 -25 -49 3 -3 12 -18 30 -34 39 -24 14 -33 30 -46 85 -23 88 -75 207 -138
311 -55 92 -55 92 10 145 29 24 52 69 52 102 0 45 19 65 98 102 98 46 152 61
225 62 l57 1 0 -97z m-5103 28 c26 -6 71 -10 98 -10 28 0 57 -1 65 -2 8 -1 25
1 37 5 21 7 22 5 22 -63 0 -43 -5 -74 -12 -78 -14 -9 -244 -7 -300 3 -34 5
-38 9 -33 28 4 11 9 56 13 98 l6 77 28 -23 c15 -13 49 -29 76 -35z m-6674 -17
c10 -32 26 -76 34 -97 19 -44 90 -113 138 -133 l34 -14 -34 -51 c-50 -74 -67
-137 -71 -269 -4 -137 13 -235 53 -311 15 -30 29 -57 31 -61 2 -5 -3 -8 -11
-8 -8 0 -22 15 -30 33 -21 45 -84 244 -92 292 -4 22 -16 67 -26 100 -17 57
-43 184 -53 270 -3 22 -10 78 -16 125 -7 47 -12 104 -12 127 0 85 29 83 55 -3z
m4883 53 c12 -32 195 -107 299 -122 42 -7 98 11 147 47 14 10 30 8 88 -10 197
-64 243 -108 275 -264 15 -67 45 -369 45 -447 0 -31 -1 -33 -27 -26 -16 5 -46
11 -68 14 -38 6 -40 8 -47 51 -11 63 -27 99 -51 112 -13 7 -116 12 -281 14
-144 1 -299 5 -346 9 -47 3 -119 8 -160 11 -79 5 -219 26 -309 46 l-54 12 7
80 c7 94 35 237 66 335 38 122 86 148 282 150 103 2 129 -1 134 -12z m-482
-77 c24 -79 24 -81 8 -143 -16 -56 -20 -62 -45 -63 -46 -2 -50 13 -39 138 6
62 14 121 17 131 15 37 35 16 59 -63z m-1920 23 c-28 -117 -107 -234 -184
-273 -20 -10 -76 -24 -123 -30 -83 -11 -88 -11 -142 14 -51 23 -54 27 -46 48
6 13 17 48 25 79 9 31 27 68 41 83 28 30 49 31 111 6 41 -18 72 -8 125 39 39
34 52 39 91 39 26 0 55 5 65 11 32 19 44 13 37 -16z m-1489 -22 c121 -59 226
-187 253 -309 11 -45 1 -73 -38 -114 -64 -66 -119 -171 -176 -333 -38 -110
-168 -362 -207 -403 -63 -66 -192 -106 -270 -82 -55 16 -125 53 -159 82 -22
20 -129 179 -209 313 -58 96 -70 346 -24 486 35 104 144 186 465 350 62 32
142 49 220 46 63 -2 87 -8 145 -36z m8962 -3 c57 -48 124 -131 156 -195 l29
-55 -54 -54 c-59 -60 -74 -63 -193 -44 -33 5 -78 12 -100 15 -61 10 -159 36
-171 46 -12 10 -12 19 6 174 16 134 9 125 103 126 45 1 93 5 107 9 49 16 77
10 117 -22z m-6207 -94 c6 -14 10 -42 10 -63 0 -32 -6 -43 -33 -64 -18 -14
-44 -46 -58 -71 -13 -25 -27 -46 -30 -46 -4 0 -33 16 -65 35 -56 33 -114 88
-114 108 0 5 21 32 46 61 43 47 50 51 103 57 121 12 131 11 141 -17z m7565
-44 c-28 -27 -53 -50 -57 -50 -4 0 -15 11 -23 24 -13 19 -14 28 -4 50 11 24
17 26 73 26 l60 0 -49 -50z m-4775 10 c62 -19 299 -22 355 -5 63 19 89 19 124
0 15 -7 77 -24 137 -35 136 -27 178 -45 232 -101 48 -49 118 -184 176 -342
l37 -98 -43 -39 c-32 -29 -62 -44 -119 -59 -90 -25 -113 -26 -106 -7 12 30 26
92 29 126 2 25 -1 36 -12 38 -13 2 -19 -14 -28 -71 -7 -41 -19 -83 -26 -93
-13 -17 -14 -16 -21 7 -21 65 -104 215 -147 263 -84 94 -151 122 -318 132
-107 7 -140 -3 -199 -56 -18 -16 -40 -30 -48 -30 -27 0 -92 -40 -117 -73 -36
-47 -55 -106 -62 -199 l-7 -80 -35 7 c-19 4 -66 20 -105 38 l-69 31 6 68 c8
74 -6 93 -26 36 -10 -28 -12 -30 -19 -12 -4 10 -8 34 -8 52 -1 23 -6 32 -17
32 -15 0 -16 -8 -9 -62 4 -35 7 -76 6 -93 -4 -87 -12 -202 -16 -213 -10 -28
-235 116 -235 150 0 9 26 90 59 180 32 90 68 192 80 228 34 103 73 163 118
183 21 9 96 25 167 37 93 14 141 27 170 45 47 28 50 28 96 15z m-3832 -26 c12
-4 22 -9 22 -13 0 -4 -10 -7 -22 -8 -54 -4 -93 -16 -136 -43 -26 -15 -69 -33
-97 -39 -58 -12 -158 -44 -300 -95 -106 -38 -181 -46 -225 -23 -33 17 -35 36
-6 71 l24 29 51 -21 c27 -12 69 -22 93 -22 71 0 171 20 206 40 18 11 58 29 90
39 31 11 102 36 157 55 108 39 109 39 143 30z m8639 -231 c53 -102 99 -218
104 -267 4 -31 -16 -47 -176 -137 l-53 -30 -21 64 c-12 36 -37 90 -56 121 -39
65 -141 189 -209 256 l-46 44 89 22 c90 22 151 55 200 107 l23 26 47 -54 c26
-29 70 -98 98 -152z m-8332 143 c20 -8 156 -18 228 -17 20 0 69 11 107 24 l70
24 35 -42 c19 -24 55 -52 80 -64 25 -12 45 -24 45 -29 0 -4 -18 -17 -39 -29
-100 -57 -150 -162 -219 -452 -16 -72 -18 -75 -52 -84 -53 -14 -396 -1 -565
22 -82 11 -157 21 -167 21 -14 0 -16 12 -15 83 1 45 -3 148 -7 228 -10 181 0
242 47 287 56 55 96 65 221 57 65 -4 121 -3 136 3 19 7 31 5 50 -8 14 -9 34
-20 45 -24z m1022 20 c78 -37 176 -142 223 -241 45 -93 66 -183 81 -350 20
-222 27 -249 91 -377 32 -65 70 -129 83 -144 l24 -26 -46 -61 c-53 -72 -101
-167 -133 -265 -12 -37 -28 -76 -35 -86 -7 -9 -41 -24 -74 -32 -34 -7 -79 -26
-102 -41 -28 -19 -56 -27 -95 -30 -30 -2 -73 -12 -95 -24 -36 -18 -44 -19 -77
-7 -50 17 -78 13 -123 -16 -60 -40 -80 -41 -134 -7 -27 17 -57 31 -66 31 -9 0
-36 -16 -59 -35 -52 -44 -65 -38 -110 47 -39 74 -57 97 -86 108 -18 7 -24 25
-39 122 -11 64 -19 169 -19 243 -1 110 3 141 22 200 13 39 41 157 63 263 67
321 103 424 178 505 32 35 92 67 125 67 19 0 30 9 42 33 55 108 116 144 249
146 44 1 74 -6 112 -23z m-4094 -18 c8 -31 3 -35 -58 -48 -31 -6 -108 -27
-173 -47 -185 -55 -314 -55 -378 0 l-26 23 133 0 c139 -1 196 9 394 68 101 30
102 30 108 4z m4405 5 c41 -6 42 -7 37 -37 -3 -17 -10 -64 -14 -104 -5 -41
-12 -76 -14 -79 -9 -8 -65 26 -86 53 -36 46 -21 195 18 179 9 -4 35 -10 59
-12z m6292 -9 c94 -22 183 -76 278 -168 151 -146 239 -282 266 -409 25 -119
-18 -305 -118 -507 -65 -133 -101 -162 -206 -168 -57 -4 -78 0 -116 19 -96 46
-203 181 -245 307 -39 120 -91 161 -171 133 -37 -13 -43 -8 -52 49 -6 39 -35
83 -119 186 -61 75 -126 207 -134 273 -4 36 -1 64 11 95 21 55 95 132 151 157
102 45 333 62 455 33z m-8928 -91 c35 -33 75 -117 123 -254 41 -118 101 -232
118 -226 7 3 11 9 10 15 -4 18 22 31 78 38 50 6 58 4 87 -21 18 -15 32 -31 32
-36 0 -5 -30 -38 -66 -72 -161 -150 -197 -154 -324 -37 -112 104 -203 180
-217 180 -19 0 -16 -28 6 -39 10 -6 65 -53 122 -106 57 -53 128 -110 157 -127
40 -23 51 -35 46 -47 -45 -107 -64 -205 -64 -345 l0 -119 -71 6 c-48 4 -90 15
-132 35 -34 17 -79 35 -100 42 -78 24 -203 89 -252 129 -27 22 -77 53 -111 67
-60 27 -61 27 -62 70 -2 43 16 74 43 74 25 0 219 87 226 101 3 8 11 23 17 34
44 77 75 147 113 260 41 124 43 135 44 251 0 133 6 148 59 162 41 11 83 -1
118 -35z m784 25 c-4 -13 -9 -38 -13 -56 -4 -25 -10 -32 -22 -26 -52 21 -70
20 -166 -8 -55 -16 -124 -30 -153 -30 -29 -1 -55 -5 -58 -9 -7 -11 30 -29 59
-29 18 0 28 -8 37 -30 14 -33 8 -60 -14 -60 -11 0 -146 124 -146 134 0 1 16 3
36 4 20 2 91 22 158 46 122 44 204 71 241 79 42 10 48 8 41 -15z m-2520 -103
c31 -136 30 -146 -9 -172 -53 -36 -66 -38 -71 -11 -8 40 -15 91 -21 158 -4 36
-8 70 -10 77 -8 25 34 54 74 49 9 -1 22 -35 37 -101z m9789 51 c22 -3 67 -10
100 -16 33 -5 77 -10 97 -10 42 0 53 -11 39 -38 -5 -10 -12 -44 -15 -74 -3
-31 -14 -76 -25 -100 -10 -24 -22 -59 -26 -77 -7 -33 -7 -33 -54 -27 -220 30
-223 30 -281 3 -30 -14 -74 -28 -97 -32 l-42 -7 6 59 c4 44 15 73 43 119 31
49 73 150 95 231 3 8 20 6 62 -7 32 -10 76 -20 98 -24z m-7313 -69 c27 -22 27
-23 32 -182 5 -153 5 -157 -7 -85 -14 82 -28 114 -56 129 -20 11 -56 123 -47
147 8 21 47 17 78 -9z m-476 -16 c72 -42 147 -120 117 -121 -30 -2 -97 -14
-148 -27 -70 -17 -69 -19 -105 86 -21 62 -23 73 -10 81 30 19 94 10 146 -19z
m368 -18 c3 -21 9 -48 12 -60 6 -22 4 -23 -65 -23 -70 0 -71 1 -71 26 0 14 -4
34 -10 44 -8 16 -3 20 48 33 80 21 79 21 86 -20z m3478 3 c18 -3 48 -8 66 -10
19 -3 36 -6 38 -9 4 -4 -70 -207 -84 -234 -5 -8 -19 3 -41 29 -33 39 -34 44
-39 141 -4 88 -3 99 11 94 9 -3 31 -8 49 -11z m-4598 -191 c-1 -160 -17 -246
-65 -334 -33 -61 -67 -107 -74 -99 -3 3 -10 31 -16 64 -6 32 -15 63 -19 68
-20 20 -23 -31 -7 -114 20 -103 22 -164 5 -178 -34 -27 -184 -47 -342 -45
-164 2 -211 7 -201 23 3 6 15 6 31 0 66 -26 195 -1 272 52 51 35 86 88 173
260 l64 126 33 -29 c18 -16 39 -29 47 -29 27 0 45 42 45 110 0 36 5 83 11 105
21 79 22 105 4 125 -16 17 -16 20 1 45 16 25 18 25 28 8 6 -10 10 -79 10 -158z
m-69 15 c-8 -30 -15 -88 -15 -128 0 -58 -3 -74 -16 -79 -19 -7 -41 18 -51 56
-7 28 27 140 58 190 29 48 42 28 24 -39z m1235 47 c33 -17 47 -48 55 -129 l7
-68 -35 0 c-19 0 -74 -7 -122 -15 l-88 -16 -36 40 c-42 45 -73 56 -139 47
-102 -13 -95 -15 -119 33 -12 24 -20 47 -18 51 7 12 118 37 230 53 128 19 233
20 265 4z m7698 -175 c17 -23 20 -49 24 -184 4 -169 4 -168 -47 -168 -33 0
-176 75 -219 115 -20 18 -36 42 -36 54 0 46 66 171 89 171 3 0 6 -17 6 -37 0
-69 20 -40 47 69 15 60 33 118 39 130 11 20 14 16 45 -51 18 -39 42 -84 52
-99z m-10024 17 c50 -155 64 -185 92 -198 23 -10 24 -12 10 -39 -8 -16 -24
-78 -36 -138 -11 -60 -25 -129 -30 -154 -5 -25 -14 -74 -20 -110 -6 -36 -13
-75 -15 -87 -4 -16 -111 -103 -128 -103 -2 0 -4 20 -4 45 -1 25 -10 63 -22 85
-27 52 -26 71 5 161 22 65 25 84 20 159 -7 90 2 136 43 239 15 38 23 80 24
140 3 76 12 120 23 109 2 -2 19 -51 38 -109z m9749 20 l69 -11 -27 -28 -27
-28 -44 25 c-33 19 -56 24 -89 21 -32 -2 -46 1 -50 11 -12 30 23 32 168 10z
m-4003 -29 c10 -24 10 -34 1 -43 -16 -16 -31 8 -31 51 0 39 12 35 30 -8z
m5711 16 c13 -28 -8 -237 -43 -417 -26 -139 -26 -139 -84 -110 -43 22 -55 23
-151 18 -96 -5 -104 -5 -98 11 35 85 56 163 79 293 6 33 11 38 49 47 46 12
208 109 215 130 7 22 -26 13 -80 -22 -60 -38 -122 -70 -155 -80 -47 -15 -23
21 35 52 31 17 82 47 112 66 66 43 106 46 121 12z m-5799 -42 c15 -8 32 -23
37 -33 6 -10 20 -101 31 -202 11 -101 23 -192 26 -202 5 -16 1 -18 -38 -15
l-43 4 -11 57 c-7 31 -14 99 -16 151 -4 105 -22 146 -62 146 -16 0 -26 7 -30
23 -10 38 -7 85 7 90 16 7 66 -2 99 -19z m4051 -20 c40 -27 40 -23 12 -103
l-11 -34 -52 47 c-29 25 -59 46 -66 46 -26 0 -25 29 1 50 35 27 71 25 116 -6z
m-7283 -35 c0 -18 -4 -21 -29 -16 -36 8 -53 -10 -46 -49 3 -16 14 -78 25 -137
11 -59 20 -112 20 -116 0 -5 -13 -14 -29 -21 -27 -11 -40 -32 -55 -85 -6 -19
-210 -151 -338 -217 -56 -29 -163 -56 -176 -44 -4 4 -7 65 -6 134 1 196 42
325 116 358 22 10 67 45 101 80 75 75 119 98 217 114 100 16 98 16 153 18 42
3 47 1 47 -19z m3392 -59 c44 -30 50 -40 84 -149 14 -46 41 -111 59 -145 l34
-62 -11 -121 c-6 -67 -14 -120 -19 -118 -4 3 -20 38 -34 78 -22 58 -39 83 -85
128 -57 55 -58 57 -70 135 -35 250 -37 306 -7 287 7 -5 29 -19 49 -33z m4295
23 c38 -49 65 -107 73 -159 11 -67 26 -81 55 -54 11 11 36 21 55 22 31 3 37
-1 52 -32 10 -20 18 -57 18 -85 -1 -77 -36 -108 -75 -65 -25 27 -38 25 -33 -5
6 -28 9 -29 -78 32 -83 58 -94 87 -94 243 0 66 3 120 6 120 4 0 13 -8 21 -17z
m-9934 -116 c17 -31 17 -34 -7 -102 -40 -115 -45 -137 -61 -309 -2 -27 -8 -53
-12 -56 -9 -8 -63 -22 -63 -17 0 19 63 370 71 397 20 66 42 120 48 120 4 0 14
-15 24 -33z m5836 -90 c-2 -34 -5 -73 -9 -87 -6 -23 -8 -22 -32 25 -23 45 -58
145 -58 167 0 5 23 -3 51 -17 l50 -26 -2 -62z m-5768 -14 c31 -53 78 -101 122
-126 20 -11 37 -25 37 -29 0 -5 -18 -39 -40 -75 -22 -37 -40 -73 -40 -80 0
-17 -28 -29 -108 -47 -56 -13 -64 -13 -69 1 -10 26 6 185 26 258 18 64 43 135
47 135 1 0 12 -17 25 -37z m2183 -172 c14 -49 57 -291 79 -444 9 -60 -9 -33
-22 33 -13 63 -84 272 -120 350 -26 57 -26 81 -1 108 29 31 46 19 64 -47z
m8001 17 c20 -43 123 -184 147 -203 7 -6 27 -21 43 -34 l30 -24 -87 7 c-48 3
-97 11 -110 17 -13 6 -35 35 -51 69 -15 33 -41 68 -57 80 l-30 22 32 22 c19
12 37 35 43 54 5 17 12 32 15 32 3 0 14 -19 25 -42z m-8105 -76 c0 -4 -48 -36
-106 -71 -58 -35 -147 -97 -198 -137 -65 -53 -97 -73 -111 -70 -121 30 -148
46 -80 46 36 0 120 26 168 51 14 8 90 53 169 101 142 87 158 95 158 80z"/>
<path d="M10580 3187 c0 -31 53 -81 113 -106 58 -25 67 -26 67 -6 0 9 -12 20
-27 26 -66 25 -94 43 -114 75 -24 40 -39 44 -39 11z"/>
<path d="M10523 3070 c-24 -10 -43 -23 -43 -28 0 -17 28 -21 47 -7 10 8 35 15
56 15 31 0 38 3 35 18 -5 24 -45 26 -95 2z"/>
</g>
</svg>
