<?xml version="1.0" standalone="no"?>
<!DOCTYPE svg PUBLIC "-//W3C//DTD SVG 20010904//EN"
 "http://www.w3.org/TR/2001/REC-SVG-20010904/DTD/svg10.dtd">
<svg version="1.0" xmlns="http://www.w3.org/2000/svg"
 width="1304.000000pt" height="824.000000pt" viewBox="0 0 1304.000000 824.000000"
 preserveAspectRatio="xMidYMid meet">

<g transform="translate(0.000000,824.000000) scale(0.100000,-0.100000)"
fill="#000000" stroke="none">
<path d="M0 4695 l0 -3545 2451 0 2451 0 -7 -23 c-19 -64 -26 -110 -23 -168
l3 -64 2828 -3 2827 -2 0 65 c0 36 1 66 1 68 1 1 7 29 14 62 l12 60 1241 3
1242 2 0 3545 0 3545 -6520 0 -6520 0 0 -3545z m12940 0 l0 -3445 -1184 0
-1183 0 -1 122 c-1 68 -4 134 -8 148 -3 14 -6 33 -6 42 1 10 -3 20 -9 23 -19
13 -7 45 35 90 42 47 66 98 66 144 0 18 5 22 28 20 15 -1 47 1 72 4 25 3 84 8
132 11 67 4 99 11 145 32 37 18 52 30 41 32 -19 4 -25 22 -7 22 5 0 7 5 4 10
-3 6 -1 10 6 10 7 0 10 3 6 6 -3 3 -2 16 3 28 11 31 -9 72 -68 136 -35 37 -47
57 -39 62 9 6 9 8 0 8 -7 0 -25 12 -40 26 -27 24 -28 29 -25 102 2 42 8 82 13
88 8 10 15 89 9 109 -1 6 -2 26 -1 45 1 27 4 32 12 20 7 -11 9 12 6 75 -5 102
-7 114 -24 133 -10 11 -10 19 2 42 19 36 19 64 1 93 -8 12 -17 39 -20 60 -4
21 -10 47 -16 57 -14 26 -29 98 -52 250 -31 211 -36 261 -42 475 -3 110 -8
218 -11 240 -24 179 -53 315 -54 261 -2 -37 -12 -8 -17 45 -3 30 -9 68 -14 85
-4 16 -6 45 -5 62 2 18 -1 35 -6 38 -5 3 -7 10 -3 15 8 14 -32 143 -67 211
-16 31 -43 73 -59 92 -33 37 -103 76 -138 76 -12 0 -42 21 -70 49 -53 53 -167
114 -252 134 l-52 12 6 105 c7 104 15 170 21 181 18 29 27 449 13 559 -26 188
-73 329 -171 503 -92 165 -147 207 -273 213 -52 2 -82 10 -115 28 -62 35 -141
30 -232 -14 -37 -18 -67 -36 -67 -41 0 -5 -6 -9 -13 -9 -21 0 -112 -86 -162
-153 -94 -125 -197 -378 -220 -542 -3 -22 -8 -51 -11 -65 -7 -32 -6 -346 1
-396 4 -22 10 -54 15 -71 5 -19 5 -35 -1 -39 -5 -3 -9 -13 -9 -22 0 -9 -22
-67 -49 -127 -27 -61 -52 -124 -55 -141 -6 -29 -13 -33 -72 -49 -66 -18 -143
-73 -130 -94 7 -11 -29 -25 -43 -16 -11 6 -71 -16 -98 -37 -104 -80 -192 -208
-239 -348 -10 -30 -19 -57 -21 -59 -1 -2 -20 12 -42 32 -70 63 -163 97 -266
97 -73 0 -146 17 -223 51 -35 16 -72 29 -81 29 -30 0 -97 67 -120 119 -33 78
-33 130 2 245 27 93 30 113 30 256 1 127 -4 181 -26 300 -39 206 -42 219 -83
305 -50 105 -119 188 -224 266 -154 117 -259 139 -479 105 -57 -10 -92 -23
-106 -43 -7 -9 -29 -18 -50 -19 -42 -4 -91 -37 -132 -90 -16 -20 -47 -56 -69
-80 -103 -112 -145 -282 -138 -554 4 -176 8 -222 30 -335 19 -99 46 -161 124
-276 33 -50 60 -96 61 -102 0 -7 2 -20 4 -31 9 -49 -25 -59 -90 -25 -57 29
-128 20 -246 -31 -106 -46 -139 -75 -139 -124 0 -38 -6 -44 -186 -191 -65 -53
-132 -116 -149 -140 -53 -75 -78 -104 -172 -200 -92 -94 -135 -125 -172 -125
-11 0 -26 -8 -33 -18 -14 -19 -122 -70 -206 -97 -29 -9 -65 -27 -80 -40 -15
-13 -59 -30 -102 -39 -41 -10 -108 -31 -148 -47 -41 -16 -92 -29 -116 -29 -42
0 -142 -25 -161 -40 -18 -15 -201 -30 -361 -30 -221 0 -325 -30 -427 -124 -47
-44 -117 -147 -117 -173 0 -8 -25 -64 -55 -126 -30 -61 -55 -118 -55 -127 0
-22 -27 -94 -56 -152 -28 -56 -29 -55 16 -253 23 -107 85 -239 105 -228 7 5
27 25 43 46 35 44 36 84 1 130 -20 28 -20 30 -4 70 10 23 18 70 20 105 2 47 9
71 28 101 15 22 29 50 32 63 3 13 19 31 36 40 16 10 39 33 50 53 12 20 29 35
40 35 10 0 19 -1 19 -2 0 -2 -7 -28 -15 -58 -20 -73 -19 -159 1 -188 20 -29
68 -54 89 -46 21 8 45 56 45 90 0 39 28 142 57 203 13 30 30 93 37 140 l12 86
45 1 c24 0 64 -5 89 -11 71 -19 212 -86 245 -116 17 -15 57 -41 90 -58 57 -30
63 -31 157 -27 68 4 113 1 146 -9 62 -19 136 -19 177 1 18 8 47 33 65 56 35
43 82 68 129 68 17 0 56 16 88 35 32 19 64 35 71 35 6 0 12 5 12 10 0 6 5 10
10 10 6 0 62 32 126 70 64 39 120 70 124 70 5 0 10 3 12 8 2 4 28 23 58 42 30
19 64 44 75 56 11 12 58 52 105 89 91 73 180 162 208 208 19 32 26 33 53 8
l21 -19 -25 -38 c-58 -91 -63 -211 -11 -306 21 -39 29 -68 30 -108 0 -30 10
-91 22 -134 12 -44 22 -90 22 -103 0 -36 -28 -71 -92 -114 -85 -58 -117 -131
-85 -197 7 -15 13 -43 12 -62 l0 -35 -52 -1 c-97 -3 -181 -73 -191 -159 -3
-32 -11 -48 -33 -64 -15 -12 -41 -42 -56 -68 -24 -41 -27 -59 -29 -133 -1 -87
-40 -244 -101 -414 -31 -83 -39 -96 -64 -96 -23 0 -67 -46 -81 -82 -7 -20 -17
-28 -33 -28 -32 0 -121 -61 -173 -118 -68 -73 -108 -165 -103 -235 l1 -27
-2420 0 -2420 0 0 3445 0 3445 6420 0 6420 0 0 -3445z"/>
</g>
</svg>
