<?xml version="1.0" standalone="no"?>
<!DOCTYPE svg PUBLIC "-//W3C//DTD SVG 20010904//EN"
 "http://www.w3.org/TR/2001/REC-SVG-20010904/DTD/svg10.dtd">
<svg version="1.0" xmlns="http://www.w3.org/2000/svg"
 width="512.000000pt" height="512.000000pt" viewBox="0 0 512.000000 512.000000"
 preserveAspectRatio="xMidYMid meet">

<g transform="translate(0.000000,512.000000) scale(0.100000,-0.100000)"
fill="#000000" stroke="none">
<path d="M132 5109 c-47 -14 -109 -79 -123 -131 -23 -88 12 -182 85 -228 26
-16 62 -24 136 -31 193 -18 332 -81 460 -209 81 -80 132 -165 169 -279 16 -49
49 -323 141 -1166 66 -606 120 -1109 120 -1116 0 -8 -21 -25 -47 -39 -80 -41
-195 -164 -237 -252 -118 -245 -74 -511 113 -699 119 -119 264 -178 434 -179
63 0 68 -2 62 -19 -11 -36 -25 -136 -25 -181 1 -262 206 -511 465 -565 407
-85 772 261 705 668 -5 33 -12 67 -15 78 -6 18 6 19 425 19 419 0 431 -1 425
-19 -3 -11 -10 -45 -15 -78 -31 -189 28 -371 165 -508 233 -232 597 -232 830
0 314 314 183 839 -245 982 -52 17 -133 18 -1456 23 l-1401 5 -39 27 c-67 47
-89 90 -89 173 0 62 4 77 27 111 15 21 44 50 65 64 l37 25 1380 5 c1362 6
1382 6 1451 27 272 81 449 224 591 478 34 61 39 78 39 136 0 87 -33 139 -108
175 -66 31 -110 30 -174 -1 -52 -26 -79 -58 -123 -145 -13 -25 -55 -77 -94
-116 -77 -77 -160 -123 -254 -143 -37 -8 -421 -11 -1272 -11 l-1218 0 -6 38
c-3 20 -42 372 -86 782 -44 410 -83 762 -86 783 l-6 37 1666 0 c1019 0 1666
-4 1666 -9 0 -5 -23 -119 -51 -253 -53 -258 -54 -283 -17 -349 22 -39 84 -84
130 -94 82 -19 180 30 216 107 11 23 55 213 98 421 73 357 77 381 65 425 -16
60 -50 104 -98 128 -37 18 -96 19 -1875 22 l-1838 2 -4 23 c-3 12 -10 63 -16
112 -45 362 -271 676 -608 844 -170 86 -426 133 -540 100z m1946 -4344 c160
-67 160 -283 0 -350 -47 -19 -89 -19 -136 0 -157 66 -161 275 -7 346 49 23 94
24 143 4z m1980 0 c160 -67 160 -283 0 -350 -47 -19 -89 -19 -136 0 -157 66
-161 275 -7 346 49 23 94 24 143 4z"/>
</g>
</svg>
