<?xml version="1.0" standalone="no"?>
<!DOCTYPE svg PUBLIC "-//W3C//DTD SVG 20010904//EN"
 "http://www.w3.org/TR/2001/REC-SVG-20010904/DTD/svg10.dtd">
<svg version="1.0" xmlns="http://www.w3.org/2000/svg"
 width="1998.000000pt" height="1080.000000pt" viewBox="0 0 1998.000000 1080.000000"
 preserveAspectRatio="xMidYMid meet">

<g transform="translate(0.000000,1080.000000) scale(0.100000,-0.100000)"
fill="#000000" stroke="none">
<path d="M0 5400 l0 -5400 9990 0 9990 0 0 5400 0 5400 -9990 0 -9990 0 0
-5400z m19830 0 l0 -5250 -9840 0 -9840 0 0 5250 0 5250 9840 0 9840 0 0
-5250z"/>
<path d="M8165 9340 c-152 -17 -269 -71 -365 -169 -98 -99 -159 -244 -160
-373 l0 -48 234 0 234 0 7 43 c15 88 61 137 129 137 85 0 144 -70 130 -154
-13 -83 9 -55 -568 -711 -82 -93 -158 -190 -170 -215 -14 -31 -20 -66 -20
-115 -1 -120 49 -190 168 -239 49 -20 70 -21 564 -24 l512 -3 0 230 0 231
-267 2 -267 3 220 252 c120 138 234 277 253 307 109 181 120 398 28 570 -107
201 -367 310 -662 276z"/>
<path d="M9525 9340 c-299 -41 -488 -275 -557 -690 -19 -117 -16 -444 6 -564
63 -349 229 -568 477 -632 84 -22 235 -22 319 0 254 66 428 311 481 679 15
105 15 408 0 512 -57 380 -224 617 -478 679 -79 20 -176 26 -248 16z m139
-471 c54 -64 75 -199 76 -476 0 -275 -21 -407 -77 -473 -49 -59 -115 -28 -147
68 -27 83 -38 192 -37 402 0 212 9 317 37 408 32 101 96 133 148 71z"/>
<path d="M10835 9340 c-152 -17 -269 -71 -365 -169 -98 -99 -159 -244 -160
-373 l0 -48 234 0 234 0 7 43 c15 88 61 137 129 137 85 0 144 -70 130 -154
-13 -83 9 -55 -568 -711 -82 -93 -158 -190 -170 -215 -14 -31 -20 -66 -20
-115 -1 -120 49 -190 168 -239 49 -20 70 -21 564 -24 l512 -3 0 230 0 231
-267 2 -267 3 220 252 c120 138 234 277 253 307 109 181 120 398 28 570 -107
201 -367 310 -662 276z"/>
<path d="M11610 9090 l0 -219 88 -3 87 -3 3 -697 2 -698 260 0 260 0 0 778 c0
460 -4 801 -10 837 -22 133 -85 196 -215 215 -38 5 -161 10 -272 10 l-203 0 0
-220z"/>
<path d="M2837 7349 c-252 -29 -442 -188 -488 -408 -6 -32 -9 -102 -7 -166 9
-217 85 -327 350 -507 163 -111 215 -176 200 -254 -23 -126 -216 -159 -454
-79 l-68 23 0 -225 0 -224 33 -14 c119 -50 427 -64 572 -26 115 30 200 76 270
146 72 73 109 138 135 241 23 87 27 231 9 316 -28 133 -135 286 -260 369 -30
19 -94 61 -143 94 -109 72 -150 123 -143 178 11 79 66 111 192 109 93 -1 177
-18 252 -52 l43 -19 0 219 0 219 -66 21 c-68 21 -270 51 -327 49 -18 -1 -62
-5 -100 -10z"/>
<path d="M10167 7349 c-252 -29 -442 -188 -488 -408 -6 -32 -9 -102 -7 -166 9
-217 85 -327 350 -507 163 -111 215 -176 200 -254 -23 -126 -216 -159 -454
-79 l-68 23 0 -225 0 -224 33 -14 c119 -50 427 -64 572 -26 115 30 200 76 270
146 72 73 109 138 135 241 23 87 27 231 9 316 -28 133 -135 286 -260 369 -30
19 -94 61 -143 94 -109 72 -150 123 -143 178 11 79 66 111 192 109 93 -1 177
-18 252 -52 l43 -19 0 219 0 219 -66 21 c-68 21 -270 51 -327 49 -18 -1 -62
-5 -100 -10z"/>
<path d="M11410 7350 c-238 -31 -421 -171 -535 -411 -142 -300 -138 -799 10
-1094 132 -263 339 -397 615 -398 123 0 196 15 299 65 290 139 453 541 413
1021 -25 304 -115 519 -281 669 -129 116 -326 173 -521 148z m176 -482 c81
-71 108 -209 101 -508 -4 -165 -8 -218 -24 -272 -38 -126 -101 -188 -179 -173
-120 22 -170 190 -161 540 6 209 16 275 57 359 43 90 137 114 206 54z"/>
<path d="M3698 7310 c-64 -11 -123 -46 -153 -92 -54 -81 -55 -96 -55 -820 0
-433 4 -684 11 -717 17 -79 58 -134 126 -167 l58 -29 373 -3 372 -4 0 216 0
216 -210 0 -210 0 0 150 0 150 190 0 190 0 0 210 0 210 -190 0 -190 0 0 130 0
130 210 0 210 0 0 215 0 215 -342 -1 c-189 -1 -364 -5 -390 -9z"/>
<path d="M5183 7309 c-45 -4 -117 -17 -160 -29 -365 -100 -574 -464 -550 -957
24 -466 217 -738 578 -814 64 -13 155 -21 287 -26 l192 -6 0 230 0 231 -122 5
c-148 6 -199 22 -268 84 -92 82 -130 193 -130 378 0 223 65 357 207 427 61 30
74 32 189 36 l124 4 0 224 0 224 -132 -1 c-73 -1 -170 -5 -215 -10z"/>
<path d="M5830 7310 c-93 -16 -155 -60 -186 -133 -18 -40 -19 -89 -22 -869
l-3 -828 256 0 255 0 0 715 0 715 33 0 c62 0 133 -28 166 -65 35 -40 46 -86
38 -157 -8 -63 -41 -119 -111 -185 -69 -66 -97 -136 -98 -238 0 -91 4 -106
131 -470 l109 -310 281 -3 c154 -1 281 0 281 3 0 4 -163 396 -326 782 -14 32
-13 33 18 49 47 24 136 112 173 169 158 246 85 595 -154 739 -74 45 -165 73
-276 86 -104 11 -498 11 -565 0z"/>
<path d="M7208 7310 c-64 -11 -123 -46 -153 -92 -54 -81 -55 -96 -55 -820 0
-433 4 -684 11 -717 17 -79 58 -134 126 -167 l58 -29 373 -3 372 -4 0 216 0
216 -210 0 -210 0 0 150 0 150 190 0 190 0 0 210 0 210 -190 0 -190 0 0 130 0
130 210 0 210 0 0 215 0 215 -342 -1 c-189 -1 -364 -5 -390 -9z"/>
<path d="M8020 7095 l0 -225 160 0 160 0 0 -695 0 -695 260 0 260 0 0 695 0
695 160 0 160 0 0 225 0 225 -580 0 -580 0 0 -225z"/>
<path d="M12993 7309 c-45 -4 -117 -17 -160 -29 -365 -100 -574 -464 -550
-957 24 -466 217 -738 578 -814 64 -13 155 -21 287 -26 l192 -6 0 230 0 231
-122 5 c-148 6 -199 22 -268 84 -92 82 -130 193 -130 378 0 223 65 357 207
427 61 30 74 32 189 36 l124 4 0 224 0 224 -132 -1 c-73 -1 -170 -5 -215 -10z"/>
<path d="M13440 6400 l0 -920 260 0 260 0 0 920 0 920 -260 0 -260 0 0 -920z"/>
<path d="M14288 7310 c-64 -11 -123 -46 -153 -92 -54 -81 -55 -96 -55 -820 0
-433 4 -684 11 -717 17 -79 58 -134 126 -167 l58 -29 373 -3 372 -4 0 216 0
216 -210 0 -210 0 0 150 0 150 190 0 190 0 0 210 0 210 -190 0 -190 0 0 130 0
130 210 0 210 0 0 215 0 215 -342 -1 c-189 -1 -364 -5 -390 -9z"/>
<path d="M15100 7095 l0 -225 160 0 160 0 0 -695 0 -695 260 0 260 0 0 695 0
695 160 0 160 0 0 225 0 225 -580 0 -580 0 0 -225z"/>
<path d="M16300 7315 c0 -3 97 -255 215 -559 l215 -553 0 -362 0 -361 255 0
255 0 0 361 0 360 215 553 c118 304 215 556 215 559 0 4 -121 7 -270 7 l-269
0 -10 -37 c-6 -21 -38 -150 -72 -288 -35 -137 -65 -243 -68 -235 -3 8 -35 137
-71 285 l-67 270 -271 3 c-150 1 -272 0 -272 -3z"/>
<path d="M3160 5356 c-78 -18 -104 -30 -149 -71 -26 -23 -48 -56 -61 -91 -20
-54 -20 -73 -20 -879 l0 -825 245 0 245 0 2 423 3 422 99 -315 c115 -369 138
-422 206 -483 63 -56 128 -79 229 -80 137 -2 243 51 294 147 l22 41 3 843 2
842 -245 0 -245 0 -2 -395 -3 -396 -100 288 c-118 339 -130 367 -186 428 -57
62 -111 92 -189 104 -77 13 -80 13 -150 -3z"/>
<path d="M8240 5356 c-78 -18 -104 -30 -149 -71 -26 -23 -48 -56 -61 -91 -20
-54 -20 -73 -20 -879 l0 -825 245 0 245 0 2 423 3 422 99 -315 c115 -369 138
-422 206 -483 63 -56 128 -79 229 -80 137 -2 243 51 294 147 l22 41 3 843 2
842 -245 0 -245 0 -2 -395 -3 -396 -100 288 c-118 339 -130 367 -186 428 -57
62 -111 92 -189 104 -77 13 -80 13 -150 -3z"/>
<path d="M10036 5359 c-117 -17 -205 -87 -245 -194 -17 -45 -391 -1639 -391
-1666 0 -5 103 -9 260 -9 143 0 260 3 260 7 0 4 10 62 22 130 l21 123 143 0
c141 0 144 0 148 -22 3 -13 13 -71 22 -130 l17 -108 260 0 259 0 -5 23 c-4 12
-83 373 -177 802 -94 429 -177 801 -186 826 -21 64 -69 135 -113 165 -68 47
-191 69 -295 53z m112 -1000 c18 -111 31 -204 28 -206 -2 -2 -35 -3 -73 -1
l-69 3 35 203 c20 111 38 202 41 202 3 0 21 -91 38 -201z"/>
<path d="M13090 5360 c-238 -31 -421 -171 -535 -411 -142 -300 -138 -799 10
-1094 132 -263 339 -397 615 -398 123 0 196 15 299 65 290 139 453 541 413
1021 -25 304 -115 519 -281 669 -129 116 -326 173 -521 148z m176 -482 c81
-71 108 -209 101 -508 -4 -165 -8 -218 -24 -272 -38 -126 -101 -188 -179 -173
-120 22 -170 190 -161 540 6 209 16 275 57 359 43 90 137 114 206 54z"/>
<path d="M14220 5356 c-78 -18 -104 -30 -149 -71 -26 -23 -48 -56 -61 -91 -20
-54 -20 -73 -20 -879 l0 -825 245 0 245 0 2 423 3 422 99 -315 c115 -369 138
-422 206 -483 63 -56 128 -79 229 -80 137 -2 243 51 294 147 l22 41 3 843 2
842 -245 0 -245 0 -2 -395 -3 -396 -100 288 c-118 339 -130 367 -186 428 -57
62 -111 92 -189 104 -77 13 -80 13 -150 -3z"/>
<path d="M16016 5359 c-117 -17 -205 -87 -245 -194 -17 -45 -391 -1639 -391
-1666 0 -5 103 -9 260 -9 143 0 260 3 260 7 0 4 10 62 22 130 l21 123 143 0
c141 0 144 0 148 -22 3 -13 13 -71 22 -130 l17 -108 260 0 259 0 -5 23 c-4 12
-83 373 -177 802 -94 429 -177 801 -186 826 -21 64 -69 135 -113 165 -68 47
-191 69 -295 53z m112 -1000 c18 -111 31 -204 28 -206 -2 -2 -35 -3 -73 -1
l-69 3 35 203 c20 111 38 202 41 202 3 0 21 -91 38 -201z"/>
<path d="M2290 4410 l0 -920 260 0 260 0 0 920 0 920 -260 0 -260 0 0 -920z"/>
<path d="M4360 5105 l0 -225 160 0 160 0 0 -695 0 -695 260 0 260 0 0 695 0
695 160 0 160 0 0 225 0 225 -580 0 -580 0 0 -225z"/>
<path d="M5798 5320 c-64 -11 -123 -46 -153 -92 -54 -81 -55 -96 -55 -820 0
-433 4 -684 11 -717 17 -79 58 -134 126 -167 l58 -29 373 -3 372 -4 0 216 0
216 -210 0 -210 0 0 150 0 150 190 0 190 0 0 210 0 210 -190 0 -190 0 0 130 0
130 210 0 210 0 0 215 0 215 -342 -1 c-189 -1 -364 -5 -390 -9z"/>
<path d="M6840 5320 c-93 -16 -155 -60 -186 -133 -18 -40 -19 -89 -22 -869
l-3 -828 256 0 255 0 0 715 0 715 33 0 c62 0 133 -28 166 -65 35 -40 46 -86
38 -157 -8 -63 -41 -119 -111 -185 -69 -66 -97 -136 -98 -238 0 -91 4 -106
131 -470 l109 -310 281 -3 c154 -1 281 0 281 3 0 4 -163 396 -326 782 -14 32
-13 33 18 49 47 24 136 112 173 169 158 246 85 595 -154 739 -74 45 -165 73
-276 86 -104 11 -498 11 -565 0z"/>
<path d="M10600 5105 l0 -225 160 0 160 0 0 -695 0 -695 260 0 260 0 0 695 0
695 160 0 160 0 0 225 0 225 -580 0 -580 0 0 -225z"/>
<path d="M11840 4410 l0 -920 260 0 260 0 0 920 0 920 -260 0 -260 0 0 -920z"/>
<path d="M16810 4535 c0 -522 4 -811 11 -844 17 -79 58 -134 126 -167 l58 -29
368 -3 367 -4 0 231 0 231 -205 0 -205 0 0 690 0 690 -260 0 -260 0 0 -795z"/>
<path d="M6173 3369 c-113 -19 -205 -87 -253 -184 l-25 -50 -3 -817 -2 -818
250 0 250 0 2 469 3 470 94 -322 c153 -522 157 -533 200 -576 73 -73 206 -75
276 -6 43 43 51 67 186 525 l114 385 3 -472 2 -473 255 0 255 0 -2 813 -3 812
-24 52 c-27 61 -103 136 -164 163 -156 69 -375 36 -471 -70 -64 -71 -92 -145
-186 -496 -50 -186 -92 -340 -94 -342 -6 -5 -17 33 -106 362 -45 164 -92 321
-104 350 -49 107 -129 184 -222 212 -60 18 -169 24 -231 13z"/>
<path d="M10837 3369 c-252 -29 -442 -188 -488 -408 -6 -32 -9 -102 -7 -166 9
-217 85 -327 350 -507 163 -111 215 -176 200 -254 -23 -126 -216 -159 -454
-79 l-68 23 0 -225 0 -224 33 -14 c119 -50 427 -64 572 -26 115 30 200 76 270
146 72 73 109 138 135 241 23 87 27 231 9 316 -28 133 -135 286 -260 369 -30
19 -94 61 -143 94 -109 72 -150 123 -143 178 11 79 66 111 192 109 93 -1 177
-18 252 -52 l43 -19 0 219 0 219 -66 21 c-68 21 -270 51 -327 49 -18 -1 -62
-5 -100 -10z"/>
<path d="M15066 3369 c-117 -17 -205 -87 -245 -194 -17 -45 -391 -1639 -391
-1666 0 -5 103 -9 260 -9 143 0 260 3 260 7 0 4 10 62 22 130 l21 123 143 0
c141 0 144 0 148 -22 3 -13 13 -71 22 -130 l17 -108 260 0 259 0 -5 23 c-4 12
-83 373 -177 802 -94 429 -177 801 -186 826 -21 64 -69 135 -113 165 -68 47
-191 69 -295 53z m112 -1000 c18 -111 31 -204 28 -206 -2 -2 -35 -3 -73 -1
l-69 3 35 203 c20 111 38 202 41 202 3 0 21 -91 38 -201z"/>
<path d="M3440 3326 c-71 -15 -114 -41 -147 -89 -53 -76 -53 -77 -53 -939 l0
-798 250 0 250 0 0 345 0 345 195 0 195 0 0 215 0 215 -195 0 -195 0 0 145 0
145 215 0 215 0 0 215 0 215 -337 -1 c-222 0 -357 -5 -393 -13z"/>
<path d="M4240 2420 l0 -920 260 0 260 0 0 920 0 920 -260 0 -260 0 0 -920z"/>
<path d="M4880 2545 c0 -522 4 -811 11 -844 17 -79 58 -134 126 -167 l58 -29
368 -3 367 -4 0 231 0 231 -205 0 -205 0 0 690 0 690 -260 0 -260 0 0 -795z"/>
<path d="M8540 3326 c-71 -15 -114 -41 -147 -89 -53 -76 -53 -77 -53 -939 l0
-798 250 0 250 0 0 345 0 345 195 0 195 0 0 215 0 215 -195 0 -195 0 0 145 0
145 215 0 215 0 0 215 0 215 -337 -1 c-222 0 -357 -5 -393 -13z"/>
<path d="M9548 3330 c-64 -11 -123 -46 -153 -92 -54 -81 -55 -96 -55 -820 0
-433 4 -684 11 -717 17 -79 58 -134 126 -167 l58 -29 373 -3 372 -4 0 216 0
216 -210 0 -210 0 0 150 0 150 190 0 190 0 0 210 0 210 -190 0 -190 0 0 130 0
130 210 0 210 0 0 215 0 215 -342 -1 c-189 -1 -364 -5 -390 -9z"/>
<path d="M11430 3115 l0 -225 160 0 160 0 0 -695 0 -695 260 0 260 0 0 695 0
695 160 0 160 0 0 225 0 225 -580 0 -580 0 0 -225z"/>
<path d="M12670 2420 l0 -920 260 0 260 0 0 920 0 920 -260 0 -260 0 0 -920z"/>
<path d="M13230 3331 c0 -36 395 -1655 413 -1690 63 -128 214 -196 377 -170
121 19 210 80 252 176 16 37 388 1646 388 1681 0 9 -61 12 -270 12 -151 0
-270 -4 -270 -9 0 -14 -149 -1113 -156 -1151 -4 -19 -8 -30 -10 -25 -3 8 -184
1171 -184 1182 0 2 -121 3 -270 3 -148 0 -270 -4 -270 -9z"/>
<path d="M15860 2545 c0 -522 4 -811 11 -844 17 -79 58 -134 126 -167 l58 -29
368 -3 367 -4 0 231 0 231 -205 0 -205 0 0 690 0 690 -260 0 -260 0 0 -795z"/>
</g>
</svg>
