<?xml version="1.0" standalone="no"?>
<!DOCTYPE svg PUBLIC "-//W3C//DTD SVG 20010904//EN"
 "http://www.w3.org/TR/2001/REC-SVG-20010904/DTD/svg10.dtd">
<svg version="1.0" xmlns="http://www.w3.org/2000/svg"
 width="2269.000000pt" height="1234.000000pt" viewBox="0 0 2269.000000 1234.000000"
 preserveAspectRatio="xMidYMid meet">

<g transform="translate(0.000000,1234.000000) scale(0.100000,-0.100000)"
fill="#000000" stroke="none">
<path d="M7 12333 c-4 -3 -7 -2780 -7 -6170 l0 -6163 11343 2 11342 3 3 6168
2 6167 -11338 0 c-6236 0 -11342 -3 -11345 -7z m22523 -6163 l0 -6010 -11185
0 -11185 0 0 6010 0 6010 11185 0 11185 0 0 -6010z"/>
<path d="M15115 11040 c-3 -11 -10 -20 -14 -20 -14 0 -131 -210 -131 -236 0
-11 -104 -144 -112 -144 -5 0 -8 -5 -8 -10 0 -10 -38 -69 -51 -80 -17 -14
-121 -201 -135 -243 -15 -45 -15 -49 2 -68 15 -17 27 -20 66 -16 42 5 78 24
78 41 0 22 67 144 91 167 16 15 29 35 29 46 0 10 19 38 41 63 23 25 53 70 68
100 36 72 65 124 71 130 3 3 20 28 38 57 31 49 34 51 50 34 30 -31 92 -127 92
-143 0 -9 7 -21 14 -28 8 -6 20 -27 26 -46 6 -19 16 -34 21 -34 8 0 111 -197
110 -210 -1 -6 18 -68 28 -95 5 -11 16 -47 26 -80 10 -33 31 -87 47 -119 15
-33 28 -66 28 -75 0 -9 9 -30 20 -48 10 -18 26 -57 35 -87 9 -30 27 -71 41
-91 13 -20 24 -40 24 -45 0 -19 52 -119 71 -136 10 -9 19 -27 19 -38 0 -12 9
-36 20 -54 11 -18 20 -43 20 -57 0 -13 4 -26 9 -29 5 -3 11 -20 14 -38 6 -40
56 -177 85 -235 12 -23 22 -48 22 -55 0 -12 42 -94 85 -168 11 -18 30 -44 43
-56 25 -24 38 -69 23 -78 -5 -3 7 -23 26 -43 20 -23 32 -45 29 -55 -2 -10 -1
-18 4 -18 4 0 7 -17 7 -37 -1 -29 8 -49 36 -86 21 -27 35 -53 31 -58 -3 -5 -2
-9 3 -9 8 0 49 -92 44 -99 -1 -2 2 -7 9 -11 6 -4 12 -13 14 -21 1 -8 7 -23 13
-34 6 -11 11 -23 12 -27 1 -5 2 -10 2 -13 1 -3 2 -8 3 -12 1 -5 11 -26 21 -48
10 -22 17 -43 17 -47 -1 -5 3 -8 9 -8 5 0 7 -4 4 -10 -3 -5 -2 -10 4 -10 5 0
12 -13 16 -30 4 -16 11 -30 16 -30 6 0 6 -7 0 -19 -8 -14 -6 -25 9 -44 11 -13
16 -27 13 -31 -3 -3 -2 -6 4 -6 5 0 9 -12 9 -27 0 -16 30 -89 66 -163 84 -172
252 -519 284 -586 32 -67 50 -87 102 -107 49 -20 133 -22 150 -5 15 15 15 48
-1 84 -19 45 -68 124 -76 124 -5 0 -16 18 -26 40 -10 22 -26 47 -37 56 -10 10
-28 37 -40 61 -12 25 -32 54 -43 66 -11 12 -27 35 -34 52 -7 16 -21 38 -32 50
-36 36 -99 142 -99 165 0 13 -6 28 -14 34 -8 6 -28 58 -46 116 -53 173 -63
200 -81 205 -11 4 -19 21 -24 50 -11 78 -60 205 -120 315 -11 19 -20 37 -20
40 -4 15 -31 66 -38 71 -5 3 -9 10 -9 15 0 5 -8 25 -19 45 -10 20 -16 39 -13
42 3 3 -3 20 -12 39 -10 18 -19 35 -20 38 -1 3 -5 15 -9 28 -4 12 -11 22 -16
22 -5 0 -8 3 -8 8 1 4 1 9 -1 12 -1 3 -4 16 -6 30 -2 13 -8 27 -12 30 -4 3 -8
11 -10 18 -3 15 -48 87 -71 116 -9 10 -16 26 -16 35 -1 9 -6 26 -13 39 -7 12
-10 22 -6 22 3 0 0 7 -7 16 -7 9 -14 23 -16 32 -1 9 -7 18 -13 20 -5 2 -8 8
-4 13 3 5 0 9 -7 9 -7 0 -9 3 -6 7 4 3 -2 12 -12 19 -14 10 -18 23 -16 48 3
23 -2 40 -16 55 -11 12 -23 34 -25 49 -3 14 -9 31 -15 38 -5 6 -6 14 -2 17 3
4 1 7 -6 7 -7 0 -9 5 -6 10 3 6 1 10 -5 10 -6 0 -9 4 -5 9 3 5 0 15 -7 23 -12
12 -17 25 -22 54 -1 7 -7 18 -13 25 -6 8 -16 31 -24 52 -7 20 -17 37 -21 37
-4 0 -7 3 -6 8 1 4 -4 21 -11 37 -7 17 -14 37 -16 46 -2 9 -15 39 -29 67 -14
28 -26 56 -26 61 0 5 -16 43 -35 84 -19 41 -35 81 -35 89 0 8 -4 18 -8 23 -5
6 -19 37 -32 70 -13 33 -34 84 -47 113 -12 29 -23 55 -23 59 0 7 -44 107 -87
199 -13 28 -32 60 -41 70 -25 27 -72 114 -72 132 0 9 -10 26 -22 40 -13 13
-23 29 -23 35 -3 41 -25 79 -76 130 -53 52 -62 57 -103 57 -36 0 -46 -4 -51
-20z"/>
<path d="M10973 11037 c-2 -4 -9 -5 -14 -2 -5 4 -9 3 -9 -2 0 -4 -55 -9 -123
-10 -67 -1 -221 -7 -343 -13 -194 -9 -229 -13 -282 -34 -33 -13 -63 -21 -66
-18 -3 3 -6 0 -6 -7 0 -7 -4 -10 -8 -7 -5 3 -22 -2 -38 -11 -16 -8 -50 -26
-76 -40 -27 -13 -48 -28 -48 -34 0 -5 -6 -9 -12 -9 -17 -1 -89 -66 -116 -107
-12 -17 -29 -64 -38 -105 -9 -40 -22 -83 -30 -94 -7 -12 -13 -30 -12 -40 0
-11 -9 -54 -22 -98 -12 -43 -20 -89 -17 -103 3 -15 -1 -27 -9 -30 -9 -3 -14
-21 -14 -48 0 -24 -5 -47 -11 -51 -6 -3 -9 -17 -6 -30 2 -13 0 -21 -4 -18 -4
2 -8 -15 -7 -38 0 -24 -2 -54 -6 -68 -4 -14 -9 -36 -12 -50 -3 -14 -8 -34 -11
-45 -8 -23 -7 -18 -18 -75 -5 -25 -8 -53 -6 -62 1 -10 -2 -18 -6 -18 -5 0 -9
-8 -9 -17 -1 -10 -4 -29 -7 -43 -10 -41 -22 -91 -33 -132 -3 -13 -7 -34 -9
-48 -2 -14 -4 -27 -5 -30 -1 -3 -2 -9 -1 -13 1 -5 -3 -6 -9 -2 -6 4 -13 -7
-16 -24 -4 -17 -9 -31 -13 -31 -6 0 -10 -17 -13 -57 -1 -7 -4 -13 -8 -13 -5 0
-9 -18 -12 -57 -1 -7 -4 -13 -8 -13 -5 0 -9 -18 -12 -57 -1 -7 -5 -13 -9 -13
-4 0 -6 -8 -4 -17 1 -10 0 -22 -4 -28 -3 -5 -6 -14 -7 -20 -7 -39 -22 -100
-24 -100 -2 0 -6 -18 -15 -65 -3 -19 -10 -39 -14 -45 -5 -5 -7 -18 -6 -27 2
-10 -1 -20 -6 -23 -4 -3 -4 -16 1 -30 6 -15 6 -25 0 -25 -8 0 -4 -45 5 -61 3
-4 -2 -12 -10 -19 -8 -7 -14 -22 -14 -34 1 -11 -4 -36 -9 -53 -6 -18 -9 -33
-6 -33 3 0 0 -9 -6 -19 -5 -11 -12 -41 -15 -68 -13 -119 -107 -487 -130 -510
-8 -8 -15 -23 -15 -33 0 -10 -6 -20 -12 -23 -10 -3 -10 -8 1 -21 9 -10 11 -20
5 -24 -29 -22 -53 -113 -59 -227 -2 -27 -7 -68 -13 -90 -22 -81 -9 -181 35
-270 30 -63 150 -179 241 -233 60 -36 74 -40 127 -39 33 1 67 -3 75 -8 8 -5
20 -10 25 -11 6 -1 26 -5 45 -8 19 -4 62 -9 95 -12 33 -3 84 -9 114 -14 69
-13 136 -13 181 -1 19 6 51 12 70 15 19 3 46 8 60 11 27 6 51 6 115 2 24 -2
44 2 50 10 17 22 206 38 269 23 37 -9 100 -11 207 -7 155 5 196 8 369 27 52 6
122 13 155 15 118 9 388 49 427 64 14 5 29 7 32 4 3 -4 6 -2 6 4 0 6 11 14 25
17 14 4 25 11 25 16 0 6 6 10 13 10 16 1 87 66 117 110 13 19 27 37 30 40 12
9 99 195 105 225 4 17 10 39 15 50 4 11 12 32 18 46 6 14 13 53 17 85 4 32 12
67 17 78 16 30 17 532 1 841 -8 160 -16 317 -17 350 -2 34 -9 71 -15 84 -7 13
-14 40 -16 60 -2 20 -7 52 -10 71 -6 36 -13 82 -20 135 -2 17 -4 30 -5 30 -1
0 -4 20 -5 45 -2 25 -6 55 -9 68 -3 12 -9 32 -12 45 -3 12 -7 54 -8 92 -1 39
-8 81 -16 95 -8 14 -15 37 -16 53 -1 15 -3 28 -4 30 -2 2 -7 50 -15 167 -7
104 -12 143 -24 173 -11 29 -11 48 1 57 4 3 -8 36 -26 72 -20 41 -32 79 -31
98 2 17 -1 33 -6 36 -5 3 -5 13 1 24 6 12 6 20 0 22 -5 2 -12 29 -14 61 -2 31
-9 63 -15 71 -6 7 -8 16 -5 19 8 7 -27 107 -37 107 -4 0 -10 8 -14 19 -25 80
-257 208 -430 237 -50 8 -417 10 -422 1z m373 -76 c5 -4 48 -22 97 -39 107
-39 166 -68 174 -87 3 -8 11 -15 18 -15 22 0 91 -86 103 -128 7 -22 19 -104
28 -183 13 -125 38 -238 62 -289 4 -8 9 -69 11 -135 2 -66 8 -128 13 -139 5
-10 7 -33 4 -51 -5 -22 -2 -36 9 -45 12 -10 15 -35 13 -131 -1 -65 3 -123 8
-131 11 -14 11 -24 0 -51 -5 -10 -3 -23 4 -32 7 -8 10 -15 6 -15 -3 0 3 -16
14 -35 10 -19 15 -37 11 -40 -10 -6 -20 -75 -11 -75 4 0 7 -6 8 -12 2 -22 7
-42 14 -54 4 -5 5 -19 4 -30 -2 -10 0 -23 4 -29 4 -5 8 -17 8 -25 1 -17 9 -55
12 -55 1 0 3 -15 5 -32 1 -18 6 -38 12 -45 5 -7 9 -24 8 -38 -1 -14 4 -36 10
-50 13 -28 12 -63 -3 -101 -6 -15 -8 -30 -5 -33 4 -3 2 -6 -3 -6 -11 0 -13
-48 -3 -65 3 -5 5 -56 4 -112 0 -57 3 -103 8 -103 5 0 6 -8 2 -17 -11 -27 -13
-47 -7 -58 10 -16 10 -55 0 -61 -4 -3 -5 -10 -2 -16 10 -16 11 -228 1 -228 -4
0 -5 -21 -2 -47 8 -64 -24 -293 -46 -328 -4 -5 -10 -30 -14 -55 -4 -25 -12
-54 -18 -65 -6 -11 -12 -24 -13 -30 -11 -54 -76 -155 -100 -155 -18 0 -28 -38
-15 -54 9 -10 6 -17 -11 -28 -32 -20 -144 -59 -181 -63 -18 -2 -33 -4 -34 -5
-2 -2 -7 -4 -13 -5 -5 -1 -11 -3 -12 -4 -2 -1 -23 -4 -48 -6 -25 -3 -63 -9
-85 -14 -80 -19 -172 -32 -245 -36 -41 -2 -86 -7 -100 -10 -14 -3 -61 -8 -105
-10 -44 -2 -81 -7 -82 -12 -2 -4 -54 -6 -115 -3 -62 3 -115 3 -118 0 -9 -10
-95 -10 -164 0 -38 6 -72 7 -75 3 -3 -4 -62 -10 -131 -11 -69 -2 -179 -11
-245 -19 -175 -21 -206 -21 -240 -4 -16 9 -32 19 -35 23 -3 4 -30 10 -60 13
-91 10 -115 13 -115 15 0 2 -34 10 -70 15 -46 7 -133 56 -171 97 -56 61 -74
137 -61 263 5 53 50 251 73 323 8 23 14 50 14 58 0 17 103 448 120 499 5 17
14 64 20 105 6 41 17 111 25 155 7 44 21 127 30 185 9 58 21 131 26 162 5 31
7 68 4 81 -4 16 0 35 10 50 9 14 15 31 14 39 -3 20 12 68 22 68 5 0 9 7 9 16
0 9 9 32 21 50 11 18 22 46 25 61 2 15 7 35 11 43 3 8 8 24 10 35 2 10 7 22
11 25 4 3 9 16 10 30 2 14 8 26 12 28 5 2 7 9 4 17 -3 7 -1 16 5 19 6 4 8 13
4 21 -3 8 0 15 7 15 9 0 9 4 3 13 -6 6 -9 21 -7 32 3 11 5 28 6 38 1 9 5 17 8
17 3 0 5 19 4 43 -1 40 18 95 39 108 5 4 9 18 8 33 -3 54 -3 72 4 96 11 43 17
75 18 88 0 6 4 12 8 12 4 0 6 9 4 20 -2 11 -1 20 4 20 4 0 7 10 8 23 0 12 4
36 7 52 4 17 8 40 10 52 1 12 5 25 9 29 4 4 2 13 -4 20 -9 11 -6 29 16 104 1
3 5 19 10 35 4 17 11 32 14 35 18 15 32 53 23 62 -19 19 7 71 59 120 28 26 54
47 57 46 10 -3 85 34 100 49 7 7 29 16 50 20 49 9 52 10 55 13 2 2 17 4 107
15 30 4 73 11 95 16 22 6 219 14 437 18 219 4 401 10 404 14 10 10 28 9 40 -2z"/>
<path d="M10727 10333 c-2 -5 -7 -20 -11 -35 -4 -17 -13 -28 -24 -29 -9 0 -25
-2 -34 -5 -10 -2 -26 -6 -35 -8 -10 -3 -18 -5 -18 -6 0 -1 -8 -3 -18 -5 -15
-3 -18 2 -15 28 2 23 -1 32 -12 32 -10 0 -16 -12 -18 -35 -3 -33 -15 -54 -30
-55 -4 -1 -30 -13 -59 -28 -29 -15 -54 -27 -57 -27 -3 0 -4 14 -4 30 1 35 -15
59 -27 40 -4 -7 -8 -33 -8 -57 0 -38 -4 -47 -31 -66 -35 -25 -62 -46 -82 -65
-12 -11 -14 -9 -14 17 0 16 -4 32 -8 35 -18 11 -30 -12 -28 -53 2 -33 -3 -50
-16 -63 -16 -16 -17 -22 -7 -34 11 -14 13 -13 21 0 12 21 23 20 49 -1 52 -43
52 -43 14 -69 -20 -13 -45 -33 -56 -43 -17 -15 -27 -18 -45 -11 -13 5 -24 7
-24 4 0 -2 -14 3 -31 11 -17 9 -37 31 -45 51 -16 38 -28 43 -43 17 -19 -35 48
-123 94 -123 24 0 18 -20 -15 -51 -16 -16 -28 -29 -25 -29 3 0 -8 -12 -23 -27
-57 -57 -88 -134 -69 -169 18 -32 40 -44 56 -31 12 10 13 9 6 -3 -4 -8 4 -4
18 9 15 14 27 20 27 15 0 -5 4 -4 8 3 10 16 82 19 110 4 12 -6 22 -8 22 -4 0
4 7 -2 16 -13 8 -10 13 -12 9 -4 -4 10 -2 9 8 -2 8 -10 16 -15 20 -12 3 3 7
-20 9 -51 1 -31 0 -59 -4 -62 -5 -2 -8 1 -8 8 0 7 -3 10 -6 6 -3 -3 -18 5 -33
19 -14 13 -27 20 -29 14 -2 -6 -8 -8 -13 -4 -5 3 -8 -8 -7 -25 1 -18 8 -31 16
-31 7 0 10 -5 6 -12 -4 -6 -3 -8 3 -5 5 3 21 -5 35 -18 14 -13 29 -21 32 -17
4 3 5 -8 2 -26 -4 -18 -8 -44 -11 -59 -2 -16 0 -34 4 -42 8 -12 11 -12 23 0
14 16 18 28 21 70 2 24 5 26 22 17 11 -6 29 -18 39 -27 11 -9 16 -10 12 -4 -7
14 54 -16 65 -30 3 -5 10 -8 15 -8 10 1 10 -67 2 -136 -4 -32 -2 -43 10 -48
16 -6 31 10 32 35 1 24 12 135 14 137 1 1 14 -4 29 -12 16 -8 25 -9 21 -3 -5
7 -2 8 7 2 8 -4 20 -9 27 -10 8 -2 21 -6 30 -10 9 -4 24 -6 34 -5 24 3 28 -9
29 -91 0 -85 5 -108 24 -108 16 0 21 28 20 117 l-1 72 68 -3 c38 -2 72 -6 75
-9 3 -3 15 -2 28 3 28 11 35 -2 36 -68 0 -52 10 -83 24 -83 16 0 22 34 19 99
-2 40 0 61 6 57 6 -3 10 0 10 7 0 9 3 9 10 -2 5 -8 10 -10 10 -4 0 7 14 11 34
10 19 -1 32 3 28 8 -3 5 2 7 11 3 10 -3 17 -3 17 2 0 4 6 8 13 8 6 0 23 3 36
7 16 6 21 5 17 -3 -4 -6 -2 -11 3 -11 6 0 10 -3 9 -7 -1 -5 1 -24 5 -45 7 -35
31 -57 42 -38 6 10 -4 79 -15 100 -8 15 13 44 24 33 3 -4 6 0 6 7 0 7 3 10 7
7 3 -4 15 1 26 10 15 13 19 14 13 3 -5 -9 -2 -8 7 2 8 10 17 15 20 11 4 -3 7
-1 7 6 0 7 5 9 10 6 6 -3 10 -1 10 4 0 6 6 11 14 11 8 0 16 6 18 12 3 7 10 -8
16 -34 6 -25 19 -48 27 -52 9 -3 13 -2 10 4 -3 6 -2 10 4 10 11 0 4 56 -10 83
-7 11 -6 17 1 17 6 0 8 5 5 10 -3 6 0 10 7 10 8 0 20 9 28 19 7 11 17 18 21
16 14 -9 17 35 3 52 -12 16 -15 16 -24 3 -5 -8 -10 -11 -10 -6 0 5 -11 -3 -25
-18 -13 -14 -28 -25 -32 -24 -9 3 -73 85 -73 93 0 3 7 5 15 5 8 0 15 5 15 10
0 6 7 10 15 10 8 0 15 5 15 10 0 6 5 10 11 10 7 0 18 8 26 18 9 11 12 12 8 2
-4 -8 2 -5 12 8 17 21 22 22 46 11 15 -7 27 -16 27 -21 0 -5 4 -7 8 -4 8 5 23
-17 73 -101 40 -70 54 -22 15 55 -25 49 -57 86 -94 112 -20 13 -20 15 -5 32 9
10 12 18 7 18 -5 0 -2 4 6 10 8 5 15 21 16 37 1 22 5 28 22 27 12 -1 22 3 22
8 0 5 5 6 10 3 6 -3 10 -1 10 6 0 7 3 9 6 6 9 -9 63 53 70 81 4 13 1 29 -5 35
-9 9 -18 4 -36 -17 -14 -16 -25 -32 -25 -36 0 -8 -44 -28 -76 -34 -24 -5 -73
33 -67 52 3 6 12 12 21 12 8 0 13 3 9 6 -3 3 10 22 28 41 19 20 32 40 29 45
-3 4 -1 8 4 8 6 0 17 20 25 44 13 38 13 47 2 56 -17 14 -35 5 -35 -18 0 -18
-81 -144 -88 -137 -3 2 -11 -2 -18 -10 -18 -17 -32 -15 -71 14 -25 19 -29 27
-20 37 25 28 35 41 47 63 9 18 14 20 20 11 5 -8 16 -15 24 -16 19 -3 21 27 4
45 -7 7 -13 33 -13 59 0 34 -4 47 -15 50 -11 2 -16 -6 -18 -24 -1 -15 -3 -29
-5 -31 -2 -1 -22 11 -45 28 -40 29 -42 33 -37 72 4 27 1 43 -7 49 -23 14 -28
9 -28 -32 l0 -39 -72 37 c-40 20 -75 38 -78 40 -2 1 -4 19 -5 39 0 45 -23 56
-31 15 l-6 -30 -51 15 c-29 8 -63 17 -76 20 -35 6 -39 10 -34 37 7 32 -13 42
-28 14 -7 -13 -10 -25 -8 -28 2 -3 -33 -6 -78 -8 -82 -3 -83 -3 -83 22 0 25
-15 43 -23 29z m177 -120 c-18 -108 -38 -141 -79 -133 -5 1 -22 2 -38 2 -15 1
-30 5 -34 11 -7 11 -12 128 -6 140 2 4 40 7 83 7 l79 0 -5 -27z m-196 -36 c-1
-28 2 -62 6 -74 4 -13 4 -23 -1 -23 -4 0 -25 -4 -45 -9 l-37 -9 -26 51 c-37
76 -32 92 33 103 8 1 15 4 17 6 2 2 15 4 29 6 23 2 25 -1 24 -51z m337 29 c19
-8 35 -12 35 -8 0 3 4 2 10 -4 15 -15 -6 -75 -40 -112 -31 -35 -45 -38 -95
-27 -16 4 -35 8 -40 8 -7 0 -3 32 9 84 l21 83 33 -5 c18 -3 48 -12 67 -19z
m-499 -34 c-2 -4 6 -33 18 -64 l23 -57 -48 -19 c-69 -29 -88 -24 -119 37 -19
39 -13 61 17 61 7 0 13 5 13 10 0 6 9 10 20 10 11 0 20 4 20 9 0 5 8 12 18 14
29 8 43 7 38 -1z m675 -45 c3 -5 10 -9 15 -9 12 0 50 -27 47 -33 -11 -24 -65
-75 -80 -75 -7 0 -13 -4 -13 -8 0 -10 -49 -14 -64 -5 -6 4 -13 8 -16 9 -52 16
-50 12 -19 59 16 24 32 57 35 73 l6 31 42 -16 c22 -9 44 -21 47 -26z m-852
-49 c-2 -1 11 -24 29 -50 l32 -47 -37 -17 c-21 -10 -41 -22 -44 -26 -3 -4 -27
6 -53 23 l-49 30 24 22 c33 32 93 76 97 72 2 -2 2 -5 1 -7z m1016 -58 c11 -13
8 -22 -18 -61 -34 -52 -48 -55 -111 -25 -47 22 -50 29 -17 44 15 6 38 29 51
51 l25 39 28 -16 c16 -10 34 -24 42 -32z m-427 -10 c3 0 -2 -41 -10 -81 -2 -9
-11 -27 -19 -40 l-16 -23 -18 28 c-22 33 -28 78 -15 112 8 20 12 22 42 13 18
-5 34 -9 36 -9z m-328 -24 c0 -34 -6 -38 -68 -47 -4 0 -13 -5 -19 -11 -7 -6
-13 -7 -13 -3 0 4 -7 2 -15 -5 -13 -11 -15 -7 -15 24 0 21 4 35 9 31 5 -3 12
-1 16 5 4 6 11 8 16 5 5 -4 9 -1 9 5 0 6 4 9 9 5 5 -3 12 -1 16 5 4 6 10 8 14
6 4 -3 13 -1 21 5 21 12 20 13 20 -25z m414 1 c3 3 6 1 6 -6 0 -7 4 -10 9 -6
5 3 12 1 16 -5 4 -6 11 -8 16 -5 5 4 9 1 9 -6 0 -7 3 -10 6 -6 24 24 36 -66
18 -143 -5 -21 -7 -23 -17 -10 -9 12 -94 77 -125 95 -1 1 3 25 9 53 9 45 13
51 28 42 10 -5 21 -6 25 -3z m-583 -59 c2 -61 8 -125 13 -148 3 -14 7 -35 10
-46 8 -38 53 -118 84 -149 43 -44 70 -64 76 -58 3 4 6 1 6 -5 0 -7 3 -11 8
-11 4 1 9 0 12 -1 10 -3 46 -11 80 -16 19 -4 41 -11 49 -18 12 -8 13 -8 7 2
-5 9 3 12 28 12 47 0 41 -1 80 15 18 8 36 11 40 8 3 -4 6 -1 6 5 0 7 9 12 21
12 11 0 17 5 14 10 -3 6 1 10 9 10 8 0 20 8 25 18 6 9 11 13 11 8 0 -7 41 34
68 69 14 18 40 80 46 110 12 65 17 102 18 138 0 37 1 38 24 22 13 -8 24 -13
24 -10 0 4 13 -3 29 -14 15 -11 31 -18 35 -14 3 3 6 1 6 -6 0 -7 4 -10 9 -7 5
3 14 -1 21 -9 7 -8 19 -15 26 -15 8 0 14 -4 14 -9 0 -5 9 -12 19 -16 39 -12
159 -145 131 -145 -5 0 -10 -6 -10 -14 0 -17 -82 -106 -98 -106 -7 0 -12 -4
-12 -8 0 -5 -20 -19 -45 -32 -25 -13 -45 -27 -45 -32 0 -5 -4 -7 -9 -3 -6 3
-14 -2 -19 -11 -5 -9 -13 -16 -18 -16 -18 -1 -54 -21 -54 -30 0 -5 -4 -7 -9
-3 -5 3 -15 0 -23 -7 -7 -7 -20 -14 -28 -16 -8 -2 -36 -14 -62 -26 -26 -13
-44 -18 -41 -12 4 6 0 5 -9 -1 -8 -7 -18 -10 -21 -6 -4 3 -7 2 -7 -3 0 -6 -11
-11 -25 -12 -14 -1 -36 -3 -50 -4 -14 -1 -25 -5 -25 -8 0 -7 -158 -4 -205 4
-56 9 -88 17 -105 26 -10 5 -20 6 -24 3 -3 -3 -6 -1 -6 5 0 7 -3 11 -7 10 -5
-1 -25 6 -47 15 -21 9 -42 17 -46 17 -4 0 -13 7 -20 15 -7 9 -15 13 -18 10 -3
-2 -11 3 -19 13 -10 11 -12 12 -8 2 5 -13 4 -13 -7 0 -20 24 -148 113 -148
103 0 -4 -4 -3 -8 3 -4 5 -22 15 -41 20 -31 8 -35 13 -38 48 -1 22 -10 50 -18
63 -15 23 -14 25 23 61 59 55 101 92 107 92 3 0 15 8 26 18 10 11 32 25 47 33
15 8 33 20 40 26 7 7 24 16 38 19 13 3 24 10 24 15 0 20 20 7 21 -13z m185
-44 c6 -22 -2 -33 -57 -84 l-64 -58 -7 26 c-15 54 -16 81 -2 99 7 10 14 15 14
11 0 -4 16 0 35 8 19 8 35 11 35 7 0 -4 5 -2 12 5 18 18 27 15 34 -14z m412
-100 c39 -33 56 -74 31 -74 -5 0 -8 -4 -5 -8 3 -5 -7 -21 -21 -36 l-25 -28
-49 90 c-30 57 -46 97 -42 110 5 20 5 20 37 1 17 -10 51 -35 74 -55z m-363 17
c5 -16 -49 -179 -63 -193 -10 -10 -76 53 -80 76 -3 19 103 131 125 132 7 0 15
-6 18 -15z m263 -104 c44 -84 45 -88 27 -105 -13 -12 -16 -13 -10 -2 6 10 1 9
-13 -4 -24 -21 -52 -15 -53 11 0 10 -2 25 -4 33 -11 53 -18 109 -16 138 2 40
22 19 69 -71z m-193 15 c-3 -26 -8 -67 -11 -92 -3 -25 -6 -50 -7 -57 0 -10
-24 -11 -47 -3 -3 2 -9 2 -13 1 -17 -3 -17 28 2 71 11 26 17 49 14 52 -4 3 -2
6 4 6 5 0 10 6 11 13 1 12 9 47 12 57 1 3 2 9 1 13 -1 4 8 3 19 -3 17 -9 19
-18 15 -58z m86 19 c0 -14 2 -33 4 -41 1 -8 6 -33 9 -55 4 -23 8 -51 11 -63 2
-12 -1 -22 -8 -23 -77 -7 -85 -5 -82 15 9 58 18 124 19 151 1 32 8 42 31 42 9
0 15 -11 16 -26z m-736 -132 c2 -26 -2 -32 -26 -41 -16 -5 -29 -14 -29 -19 0
-5 -11 -9 -25 -9 -29 0 -34 29 -9 54 8 9 13 16 10 16 -4 0 6 13 20 30 24 26
28 27 41 14 9 -8 17 -29 18 -45z m255 -212 c0 -5 5 -5 10 -2 6 3 13 -1 16 -9
3 -9 9 -14 13 -12 14 9 52 -30 57 -59 3 -16 7 -32 10 -36 16 -27 -59 -4 -101
31 -17 13 -18 13 -11 0 5 -8 -2 -5 -15 8 -18 17 -24 33 -25 71 l-1 49 23 -16
c13 -9 24 -21 24 -25z m966 -15 c-3 -2 4 -12 15 -23 23 -23 24 -39 3 -39 -8 0
-12 -4 -9 -10 3 -5 -2 -10 -12 -10 -21 -1 -55 -24 -48 -33 3 -4 2 -5 -2 -2 -3
3 -13 -1 -21 -8 -13 -10 -14 -9 -7 3 8 13 7 13 -9 0 -27 -22 -42 -20 -57 6 -7
13 -16 24 -21 24 -5 0 -7 4 -4 9 3 5 -1 14 -9 21 -11 9 -12 15 -2 25 7 7 15
11 19 9 3 -2 12 2 20 9 7 7 18 14 23 15 6 1 18 9 28 17 9 8 17 12 17 8 0 -4 5
-2 12 5 8 8 18 7 39 -5 16 -9 27 -19 25 -21z m-793 -68 c4 -1 9 -3 12 -4 3 -1
10 -4 15 -5 6 -1 11 -3 13 -4 1 -2 13 -5 27 -7 30 -6 34 -10 53 -56 15 -36 15
-37 -6 -29 -12 5 -30 7 -39 6 -10 -2 -18 0 -18 4 0 6 -19 11 -61 14 -9 1 -16
6 -16 12 0 5 -3 27 -7 48 -5 29 -3 36 6 30 7 -4 16 -8 21 -9z m531 -6 c-5 -10
-4 -10 6 -1 11 10 18 6 37 -20 32 -42 46 -68 36 -66 -4 1 -11 0 -15 -1 -15 -5
-24 -7 -73 -15 -81 -14 -89 -13 -107 20 -21 38 -23 59 -3 52 8 -4 17 -2 20 3
3 4 16 7 30 6 13 -2 22 1 19 5 -3 5 4 9 15 9 11 0 23 5 26 10 9 15 17 12 9 -2z
m-254 -43 c30 0 60 -4 66 -10 13 -13 34 -51 34 -62 0 -7 -71 -7 -160 0 -24 2
-53 34 -44 49 3 5 1 8 -4 8 -5 0 -9 6 -9 14 0 9 9 11 31 7 17 -4 56 -7 86 -6z"/>
<path d="M10022 9217 c-6 -6 -12 -19 -14 -27 -2 -8 -6 -17 -9 -20 -3 -3 -21
-43 -39 -90 -19 -47 -39 -88 -45 -92 -5 -4 -7 -8 -3 -8 3 0 -4 -27 -17 -60
-13 -33 -22 -60 -20 -60 2 0 -2 -12 -10 -27 -8 -15 -12 -30 -9 -35 3 -4 1 -8
-4 -8 -5 0 -9 -6 -10 -12 -1 -15 -3 -25 -21 -88 -7 -25 -13 -46 -13 -47 1 -2
-3 -17 -8 -34 -27 -93 -32 -309 -7 -309 5 0 5 -4 2 -10 -3 -5 -1 -10 5 -10 6
0 8 -5 5 -10 -4 -6 -1 -9 7 -8 7 2 12 -3 11 -9 -2 -7 0 -12 5 -12 4 1 9 0 12
-1 19 -7 39 -7 34 1 -3 5 4 9 15 9 11 0 22 9 26 20 3 11 10 20 15 20 8 0 23
38 21 53 -1 4 4 7 11 7 6 0 9 3 5 6 -3 3 1 23 8 44 7 21 16 51 19 67 3 15 7
39 10 53 9 37 21 155 31 305 3 50 9 104 12 120 7 39 11 256 5 273 -5 15 -17
15 -30 -1z m-16 -204 c-4 -43 -9 -94 -11 -113 -5 -39 -11 -98 -20 -207 -3 -40
-8 -83 -10 -95 -3 -12 -7 -40 -10 -63 -10 -74 -28 -145 -37 -145 -4 0 -7 -3
-6 -7 5 -19 -15 -53 -30 -53 -56 1 -64 38 -50 238 1 12 6 22 12 22 5 0 7 3 4
6 -4 3 -2 20 3 37 6 18 12 42 15 54 2 12 9 35 15 50 6 16 12 35 14 43 5 25 47
141 77 215 15 39 28 76 28 83 0 6 3 12 6 12 3 0 3 -35 0 -77z"/>
<path d="M11508 9118 c-5 -16 -3 -116 7 -333 13 -326 16 -359 29 -412 3 -13 8
-32 10 -42 3 -11 10 -29 16 -40 6 -12 8 -21 5 -21 -7 0 43 -80 62 -98 7 -7 13
-10 13 -5 0 4 4 2 9 -6 13 -20 41 -23 48 -5 3 8 10 11 15 8 6 -4 9 -1 6 7 -3
8 1 20 8 27 14 13 14 189 0 262 -4 19 -9 46 -11 60 -3 23 -49 176 -62 210 -3
8 -8 24 -10 34 -2 11 -8 25 -13 31 -5 7 -7 15 -3 18 3 4 0 13 -7 22 -7 8 -10
15 -7 15 3 0 -4 28 -14 63 -11 34 -22 73 -25 86 -3 14 -8 29 -12 35 -3 6 -8
18 -9 27 -9 55 -44 92 -55 57z m69 -255 c7 -32 16 -67 19 -78 3 -11 6 -24 7
-30 2 -5 5 -14 9 -20 6 -10 20 -71 19 -80 -1 -3 6 -19 14 -35 8 -16 15 -33 15
-37 1 -5 5 -24 10 -43 19 -74 23 -98 25 -182 1 -50 -1 -88 -7 -88 -5 0 -7 -4
-4 -9 3 -5 -3 -11 -14 -14 -11 -3 -18 -1 -14 4 3 5 -2 9 -11 9 -9 0 -13 5 -10
10 3 6 2 10 -3 10 -9 0 -25 37 -23 53 1 4 -4 7 -10 7 -5 0 -7 5 -4 10 3 6 3
16 -1 22 -5 7 -9 19 -10 28 -7 58 -15 189 -19 328 -2 90 -7 173 -11 185 -3 12
-3 19 1 15 4 -4 14 -33 22 -65z"/>
<path d="M10286 8843 c-13 -38 -35 -99 -48 -138 -13 -38 -26 -72 -29 -75 -3
-3 -5 -13 -3 -22 1 -10 -1 -18 -5 -18 -4 0 -8 -6 -9 -12 0 -7 -3 -22 -5 -33
-27 -106 -43 -185 -41 -198 1 -9 -1 -17 -5 -17 -4 0 -8 -58 -9 -129 -1 -127
16 -231 39 -239 5 -2 8 -7 6 -10 -2 -4 5 -16 16 -26 20 -19 20 -19 13 -1 -7
18 -6 18 15 -1 12 -10 19 -13 15 -6 -5 8 0 12 15 12 12 0 19 3 16 6 -4 4 3 15
15 25 11 11 18 19 14 19 -3 0 0 12 7 28 8 15 18 45 22 67 5 22 10 47 11 55 17
80 23 445 11 676 -6 127 -23 137 -61 37z m18 -365 c-1 -150 -5 -283 -8 -295
-3 -13 -9 -33 -12 -45 -3 -13 -7 -27 -9 -33 -1 -5 -6 -20 -10 -32 -4 -13 -12
-23 -17 -23 -5 0 -7 -4 -4 -9 3 -5 -4 -11 -15 -14 -12 -3 -18 -3 -15 0 3 4 0
13 -6 21 -7 8 -13 19 -14 26 -2 6 -6 22 -9 36 -7 28 -7 154 0 190 3 13 7 40
10 60 5 36 11 63 20 100 3 11 7 30 10 41 4 18 14 55 40 139 1 3 5 19 10 35 4
17 10 35 14 40 3 6 6 13 7 18 9 46 10 4 8 -255z"/>
<path d="M11145 8852 c-5 -4 -11 -16 -11 -27 -1 -11 -4 -45 -8 -75 -19 -164
-29 -542 -15 -592 5 -19 4 -28 -4 -28 -8 0 -8 -3 -2 -8 6 -4 11 -16 11 -27 1
-11 5 -40 9 -65 4 -25 8 -51 8 -57 0 -7 3 -13 7 -13 4 0 7 -6 7 -13 0 -22 35
-107 45 -107 5 0 6 -4 3 -10 -3 -5 -1 -10 5 -10 6 0 8 -5 5 -10 -4 -6 -1 -9 7
-8 7 2 12 -3 10 -10 -1 -8 1 -11 6 -8 5 3 21 -2 36 -9 26 -14 28 -13 33 6 4
16 8 17 14 7 7 -10 9 -8 10 7 1 11 1 23 0 28 0 4 3 7 7 7 4 0 9 10 10 23 2 20
8 54 12 67 6 19 -5 209 -15 270 -4 25 -8 51 -8 58 0 6 -4 12 -9 12 -5 0 -7 4
-4 9 3 5 0 29 -8 54 -8 25 -11 48 -8 51 3 4 1 6 -5 6 -6 0 -10 6 -10 13 1 6
-7 46 -17 87 -10 41 -20 83 -22 93 -2 9 -7 27 -10 40 -3 12 -6 30 -6 39 1 10
-3 20 -8 23 -5 3 -7 12 -4 19 3 8 0 17 -5 21 -6 3 -9 10 -6 15 7 12 -32 130
-44 130 -3 0 -10 -4 -16 -8z m45 -254 c10 -46 16 -86 13 -90 -2 -5 1 -8 6 -8
6 0 10 -3 9 -7 -2 -9 11 -79 27 -143 3 -11 7 -29 10 -40 11 -44 16 -66 20 -90
2 -14 7 -36 10 -50 11 -39 14 -240 5 -240 -5 0 -7 -9 -5 -20 2 -13 -2 -20 -11
-20 -10 0 -12 -5 -8 -12 6 -10 5 -10 -8 -1 -8 7 -19 9 -23 5 -5 -4 -5 -2 -2 4
3 6 -3 16 -13 24 -10 8 -17 17 -14 22 3 4 1 8 -4 8 -5 0 -9 6 -10 13 0 6 -3
22 -6 35 -14 51 -17 70 -22 132 -8 87 -4 573 4 565 2 -2 12 -41 22 -87z"/>
<path d="M10740 8788 c0 -10 -3 -18 -7 -18 -5 0 -8 -10 -9 -22 0 -23 -7 -60
-18 -105 -6 -22 -8 -33 -21 -93 -3 -14 -8 -36 -11 -50 -3 -14 -7 -36 -9 -50
-2 -14 -6 -35 -8 -46 -3 -12 -8 -39 -12 -60 -3 -22 -8 -52 -11 -69 -13 -71
-15 -106 -17 -212 -1 -62 -6 -113 -10 -113 -5 0 -5 -5 -1 -11 4 -7 8 -30 10
-53 3 -59 12 -104 31 -161 10 -27 16 -54 15 -58 -1 -5 3 -5 9 -1 9 5 10 2 6
-9 -3 -9 -1 -19 5 -23 7 -4 8 -3 4 4 -4 7 -5 12 -2 12 3 0 12 -12 20 -27 9
-16 15 -21 16 -13 0 13 2 13 9 1 5 -8 17 -16 26 -17 9 -1 14 0 11 3 -3 4 4 11
17 18 12 6 21 17 20 23 -2 7 2 12 8 12 5 0 7 5 4 10 -3 6 -1 10 5 10 6 0 8 5
5 10 -3 6 -2 10 3 10 5 0 9 6 10 13 0 6 3 23 7 37 17 68 20 95 20 225 0 122
-7 220 -21 290 -4 19 -9 59 -20 155 -3 25 -7 56 -9 70 -2 14 -6 48 -9 75 -3
28 -8 61 -11 75 -3 14 -7 50 -10 80 -3 30 -8 64 -10 76 -6 26 -35 28 -35 2z
m14 -214 c2 -11 7 -48 11 -84 4 -36 9 -76 10 -90 2 -14 6 -47 9 -75 8 -70 18
-155 23 -190 7 -56 11 -285 4 -285 -3 0 -7 -17 -8 -38 -4 -54 -5 -62 -15 -62
-5 0 -7 -4 -4 -9 10 -15 -20 -32 -42 -24 -11 5 -21 11 -22 15 -7 33 -14 48
-22 48 -5 0 -7 4 -4 9 4 5 1 22 -5 38 -17 43 -21 77 -22 218 -1 135 5 209 28
320 3 17 8 39 10 50 2 11 6 31 9 45 3 14 9 41 13 60 4 19 8 38 9 43 1 4 2 15
3 24 1 20 10 13 15 -13z"/>
<path d="M8630 11030 c0 -3 -30 -5 -67 -4 -80 0 -217 -19 -254 -36 -15 -7 -33
-23 -40 -37 -12 -22 -11 -27 4 -38 10 -7 30 -11 45 -10 93 11 133 17 177 28
60 15 504 15 538 0 132 -58 155 -84 119 -133 -12 -16 -22 -33 -22 -37 0 -4
-14 -24 -31 -43 -17 -19 -47 -55 -67 -79 -20 -24 -98 -104 -172 -177 -74 -74
-139 -139 -145 -144 -33 -33 -117 -115 -184 -180 -73 -70 -127 -118 -241 -213
-11 -10 -18 -21 -15 -26 6 -10 -60 -71 -76 -71 -6 0 -7 -4 -4 -10 3 -5 2 -10
-4 -10 -6 0 -41 -29 -78 -65 -37 -36 -74 -65 -81 -65 -7 0 -10 -4 -7 -10 3 -5
2 -10 -4 -10 -5 0 -32 -21 -59 -47 -56 -53 -142 -130 -184 -163 -15 -11 -45
-38 -66 -58 -21 -20 -63 -58 -93 -84 -139 -120 -163 -141 -185 -161 -55 -53
-85 -77 -95 -77 -5 0 -7 -4 -4 -10 3 -5 2 -10 -2 -10 -5 0 -30 -19 -56 -42
-128 -117 -223 -202 -261 -231 -15 -12 -48 -41 -72 -64 -24 -24 -46 -43 -49
-43 -3 0 -20 -14 -38 -31 -17 -18 -70 -64 -117 -103 -47 -39 -102 -88 -123
-108 -21 -21 -40 -38 -42 -38 -3 0 -20 -15 -39 -32 -18 -18 -45 -42 -59 -53
-34 -27 -163 -143 -204 -182 -18 -18 -33 -30 -33 -27 0 4 -50 -39 -99 -86 -9
-9 -50 -45 -91 -80 -41 -36 -91 -79 -110 -97 -19 -17 -44 -40 -56 -50 -49 -42
-159 -140 -180 -158 -21 -20 -118 -106 -160 -142 -12 -10 -52 -45 -90 -79 -38
-34 -94 -83 -124 -109 -98 -86 -150 -142 -150 -164 l0 -21 748 3 c411 2 765 6
787 9 22 2 51 0 65 -5 17 -7 38 -5 66 4 30 11 95 13 260 12 120 -1 233 -5 249
-8 17 -2 45 -8 62 -11 44 -8 93 2 121 26 21 17 24 29 25 102 l2 83 -80 1 c-44
1 -83 -3 -86 -8 -4 -6 -26 -12 -50 -14 -24 -2 -98 -8 -164 -14 -66 -6 -212
-13 -325 -16 -194 -5 -272 -9 -330 -17 -14 -2 -36 3 -49 11 -17 10 -37 12 -70
8 -25 -4 -55 -6 -66 -6 -11 1 -162 4 -335 6 -173 2 -355 5 -405 7 l-90 2 61
60 c33 33 91 87 129 120 38 33 84 74 102 92 18 17 33 30 33 28 0 -3 13 8 28
23 29 27 119 108 201 179 25 21 59 52 77 68 18 17 53 48 79 70 26 22 67 58 90
80 24 22 61 54 82 72 44 37 65 55 159 140 38 34 79 70 90 80 32 27 172 154
210 190 19 17 34 29 34 26 0 -4 20 14 45 39 25 25 45 44 45 42 0 -3 21 14 46
38 75 70 121 111 165 148 23 19 66 58 95 86 30 28 54 48 54 45 0 -3 14 9 30
27 17 18 30 31 30 28 0 -4 77 64 147 131 13 12 23 20 23 18 0 -3 25 19 55 48
30 28 73 68 96 87 22 19 59 52 80 72 21 21 39 35 39 32 0 -4 62 52 147 134 13
12 25 22 27 22 1 0 25 21 52 48 28 26 81 74 119 107 38 33 84 75 103 93 19 17
39 32 45 32 5 0 8 3 5 6 -3 3 15 24 40 47 45 41 161 151 268 255 30 28 59 52
64 52 6 0 9 3 8 8 -2 4 61 71 140 150 78 78 142 146 142 150 0 5 11 15 25 22
14 7 23 15 21 17 -2 2 11 19 28 37 27 29 92 102 156 176 12 14 31 36 42 49 11
13 23 38 25 55 3 27 4 42 0 94 -1 17 -64 72 -82 72 -8 0 -15 4 -15 8 0 8 -73
30 -130 39 -37 7 -440 9 -440 3z"/>
<path d="M13266 11032 c-2 -1 -43 -5 -92 -7 -99 -5 -184 -19 -214 -35 -24 -13
-26 -52 -5 -70 18 -15 73 -21 81 -9 3 5 9 7 14 4 4 -3 43 3 87 12 117 25 483
25 573 0 36 -10 73 -20 83 -22 31 -7 125 -65 131 -81 9 -24 7 -122 -5 -194
-11 -68 -19 -96 -73 -244 -18 -50 -39 -113 -46 -141 -19 -72 -97 -265 -121
-297 -13 -19 -17 -36 -13 -53 4 -15 -2 -41 -14 -67 -28 -60 -78 -169 -119
-263 -20 -44 -62 -138 -94 -208 -33 -71 -59 -133 -59 -138 0 -5 -5 -9 -11 -9
-5 0 -8 -4 -5 -8 2 -4 -6 -28 -18 -52 -13 -25 -26 -57 -30 -72 -3 -16 -11 -28
-16 -28 -6 0 -10 -6 -10 -14 0 -7 -9 -34 -20 -60 -12 -25 -21 -49 -21 -53 0
-5 -5 -14 -11 -20 -6 -7 -7 -13 -2 -13 5 0 4 -4 -1 -8 -12 -8 -39 -64 -37 -74
1 -5 -2 -8 -8 -8 -6 0 -9 -3 -8 -7 0 -5 -10 -30 -22 -58 -13 -27 -23 -53 -22
-57 1 -5 -2 -8 -7 -8 -5 0 -12 -10 -16 -22 -4 -13 -8 -26 -10 -30 -6 -19 -7
-23 -6 -30 0 -5 -3 -8 -9 -8 -6 0 -9 -3 -8 -7 1 -5 -10 -31 -25 -59 -14 -28
-23 -54 -20 -58 4 -3 1 -6 -6 -6 -7 0 -10 -4 -7 -9 4 -5 1 -11 -4 -13 -6 -2
-12 -10 -13 -18 -2 -8 -6 -21 -10 -27 -5 -7 -5 -13 0 -13 4 0 4 -4 -2 -8 -13
-9 -71 -133 -67 -144 1 -4 -2 -8 -8 -8 -5 0 -10 -9 -10 -20 0 -11 -5 -20 -11
-20 -6 0 -9 -7 -5 -15 3 -8 2 -15 -2 -15 -5 0 -38 -68 -48 -100 -13 -40 -18
-50 -25 -50 -5 0 -9 -5 -9 -12 0 -11 -28 -74 -75 -170 -13 -25 -21 -48 -19
-51 2 -2 -2 -10 -11 -17 -8 -7 -15 -19 -15 -26 0 -8 -4 -22 -9 -32 -6 -9 -26
-53 -46 -97 -20 -44 -50 -108 -66 -142 -16 -35 -29 -69 -29 -78 0 -8 -4 -15
-10 -15 -5 0 -10 -9 -10 -20 0 -11 -4 -20 -10 -20 -5 0 -10 -7 -10 -15 0 -8
-12 -39 -27 -70 -22 -44 -25 -60 -17 -82 l9 -28 739 -3 c406 -1 744 2 750 6
13 10 78 9 122 -1 19 -5 39 -3 55 5 19 10 81 12 244 11 121 -1 234 -4 250 -7
113 -19 145 -19 165 -1 21 19 27 60 10 70 -5 3 -18 25 -29 48 -35 75 -44 81
-119 83 -42 2 -78 -3 -96 -12 -16 -8 -53 -14 -82 -14 -29 0 -86 -4 -126 -10
-40 -5 -167 -12 -283 -15 -115 -3 -230 -8 -255 -10 -96 -11 -116 -11 -144 3
-18 9 -42 12 -65 8 -20 -4 -45 -6 -56 -5 -11 0 -207 3 -435 5 -228 3 -416 7
-419 10 -10 9 54 177 113 301 14 28 28 63 32 77 3 14 10 26 15 26 5 0 9 7 9
15 0 9 13 41 29 73 15 31 34 74 40 95 7 20 17 37 22 37 5 0 9 9 9 19 0 11 4
22 9 26 5 3 15 22 22 43 6 20 25 66 42 102 16 36 37 83 47 105 10 22 40 88 68
147 28 59 53 120 57 137 4 17 11 31 16 31 5 0 9 5 9 11 0 5 9 31 21 57 48 107
58 130 90 197 18 39 34 75 35 80 1 6 21 51 45 100 24 50 44 95 45 100 1 6 16
39 34 75 17 36 33 74 36 84 2 11 7 22 11 25 5 3 9 13 11 21 5 22 56 124 65
131 5 3 8 9 8 13 -3 17 12 56 22 56 6 0 8 3 4 6 -3 4 7 33 24 65 16 33 27 59
24 59 -3 0 6 23 20 50 14 28 23 50 20 50 -3 0 6 22 19 49 14 27 22 51 19 55
-4 3 -1 6 5 6 9 0 26 50 22 66 -1 4 3 10 8 13 12 8 84 211 74 211 -4 0 -1 4 5
8 7 5 14 20 15 35 1 15 5 27 9 27 4 0 10 15 14 33 4 17 9 37 11 42 43 124 124
466 126 536 1 24 -34 85 -80 136 -34 40 -187 99 -281 110 -49 6 -440 10 -445
5z"/>
<path d="M5098 6945 c-2 -2 -15 -6 -28 -8 -26 -5 -34 -8 -85 -28 -16 -7 -32
-13 -35 -14 -20 -5 -80 -49 -80 -58 0 -6 -3 -8 -6 -4 -8 7 -67 -54 -106 -111
-28 -41 -64 -120 -74 -164 -2 -10 -6 -28 -9 -39 -7 -34 -7 -150 0 -192 22
-131 88 -247 208 -369 113 -115 158 -169 186 -225 35 -70 23 -115 -35 -129
-67 -17 -111 21 -176 154 -53 106 -145 221 -167 207 -5 -3 -12 -1 -16 5 -8 13
-151 6 -170 -10 -8 -7 -15 -9 -15 -4 0 5 -7 0 -15 -10 -8 -11 -15 -16 -15 -11
0 4 -18 -11 -40 -35 -36 -39 -79 -112 -84 -142 -1 -7 -4 -17 -8 -23 -7 -11 -3
-169 5 -200 56 -220 287 -473 525 -575 203 -87 396 -96 580 -28 168 62 290
194 331 357 22 84 18 153 -12 240 -40 114 -91 180 -285 364 -160 152 -242 282
-244 387 -1 56 3 70 24 90 43 39 73 28 166 -64 46 -47 101 -93 121 -102 116
-56 240 37 254 190 8 79 -25 165 -97 261 -45 60 -196 205 -196 189 0 -3 -7 1
-15 9 -14 15 -148 74 -189 84 -25 6 -193 13 -198 8z m457 -315 c26 -19 53 -61
59 -92 3 -12 7 -33 10 -45 2 -11 -1 -29 -8 -38 -11 -15 -17 -12 -60 30 -45 46
-83 107 -82 133 2 31 46 38 81 12z m-873 -797 c32 -33 48 -72 55 -130 6 -54
-11 -57 -60 -10 -67 62 -104 137 -80 160 16 16 61 5 85 -20z m885 -220 c36
-32 53 -69 59 -126 7 -68 -5 -74 -56 -24 -71 69 -107 137 -83 160 13 13 60 7
80 -10z"/>
<path d="M12118 6887 c-117 -40 -211 -119 -283 -237 -16 -27 -57 -89 -91 -137
-82 -118 -106 -184 -107 -293 -1 -104 13 -138 106 -265 36 -49 66 -94 67 -100
0 -6 -26 -10 -60 -10 l-59 0 -79 -113 -79 -112 -18 -113 c-10 -61 -19 -136
-20 -164 -8 -135 63 -255 187 -320 45 -23 68 -28 155 -31 204 -8 331 63 470
262 31 45 71 98 90 118 104 118 143 318 86 441 -14 29 -69 112 -124 185 l-99
132 103 0 103 0 62 89 c33 49 68 96 77 105 22 22 48 186 42 271 -5 87 -35 154
-97 215 -73 73 -125 93 -255 97 -95 3 -119 0 -177 -20z m295 -47 c106 -40 186
-151 192 -268 2 -31 -2 -88 -9 -127 l-11 -70 -89 -3 c-82 -3 -88 -1 -82 15 4
10 10 55 13 99 5 72 3 86 -17 121 -32 58 -82 83 -164 83 -37 0 -81 -6 -100
-14 -48 -20 -107 -75 -127 -121 -22 -48 -24 -130 -5 -166 7 -15 100 -143 207
-285 106 -143 203 -280 217 -306 85 -164 -24 -422 -220 -517 -82 -40 -136 -51
-229 -46 -95 4 -171 37 -224 97 -79 87 -97 178 -68 353 l18 110 87 3 88 3 -5
-28 c-34 -187 -33 -250 6 -304 61 -85 244 -82 333 7 61 61 84 170 51 235 -9
16 -102 145 -208 287 -105 141 -202 276 -214 300 -79 154 5 388 178 497 103
66 273 86 382 45z m-229 -415 c53 -35 70 -112 48 -214 l-8 -35 -84 114 c-89
120 -101 139 -93 154 9 13 108 0 137 -19z m-95 -943 c15 -29 -1 -36 -64 -29
-92 12 -133 71 -120 174 4 31 9 62 12 70 5 12 142 -159 172 -215z"/>
<path d="M12978 6799 l-77 -109 -130 -833 c-72 -457 -133 -840 -135 -850 -4
-16 16 -17 352 -15 l356 3 68 94 c37 52 71 97 76 100 6 3 17 56 26 116 10 61
19 118 22 128 5 16 -10 17 -225 17 -184 0 -231 3 -231 13 0 7 4 38 10 68 9 54
12 72 25 159 13 87 -3 80 184 80 l167 0 64 91 c35 50 72 100 82 111 10 12 19
34 19 50 1 15 2 31 3 36 1 4 6 34 10 67 4 33 10 70 13 83 l5 22 -232 0 -232 0
5 28 c3 15 11 64 18 109 l12 83 171 2 170 3 68 94 c37 52 71 97 76 100 6 3 17
56 26 116 10 61 19 118 22 128 5 16 -16 17 -353 16 l-358 0 -77 -110z m731 9
c-5 -29 -12 -68 -15 -85 l-5 -33 -228 0 -229 0 -5 -22 c-3 -13 -20 -113 -37
-223 -17 -110 -33 -212 -36 -227 l-6 -28 231 0 c179 0 231 -3 230 -12 0 -7 -6
-47 -13 -88 l-12 -75 -230 -3 -231 -2 -41 -258 c-23 -141 -45 -277 -48 -302
l-6 -46 218 1 c121 1 224 -1 230 -3 8 -2 9 -15 4 -40 -4 -20 -11 -58 -15 -84
l-6 -48 -315 0 c-257 0 -314 2 -314 13 0 14 8 67 160 1025 49 315 90 577 90
582 0 6 118 10 319 10 l318 0 -8 -52z"/>
<path d="M14426 6890 c-71 -25 -148 -73 -198 -123 -49 -50 -234 -326 -257
-385 -29 -74 -174 -1003 -168 -1078 9 -124 87 -238 195 -287 73 -33 231 -36
321 -7 97 31 191 104 269 210 34 47 82 110 107 141 69 87 103 169 125 305 11
66 22 131 25 147 l5 27 -130 0 c-72 0 -130 -4 -130 -8 0 -4 -33 -53 -74 -109
-68 -95 -74 -107 -86 -180 -7 -43 -17 -81 -24 -85 -18 -12 -84 -9 -119 6 -72
30 -90 81 -70 201 7 44 15 98 18 120 4 22 22 137 41 255 41 254 41 251 50 315
12 91 16 94 77 91 103 -6 155 -64 144 -160 -4 -28 -9 -75 -13 -103 l-7 -53
124 0 124 1 45 67 c25 36 59 86 77 109 27 36 34 57 48 150 9 59 13 126 10 150
-17 126 -84 219 -195 271 -47 23 -71 27 -165 29 -91 3 -120 0 -169 -17z m320
-62 c135 -71 186 -197 154 -383 -5 -33 -10 -63 -10 -67 0 -5 -39 -8 -86 -8
l-86 0 8 58 c21 141 8 189 -66 240 -46 31 -162 32 -222 1 -59 -30 -105 -84
-123 -143 -9 -28 -36 -184 -61 -346 -24 -162 -56 -362 -70 -445 -28 -169 -26
-219 13 -265 39 -47 79 -63 153 -63 76 1 108 12 162 54 52 42 72 85 92 199 9
52 19 105 21 118 5 21 10 22 91 22 l86 0 -6 -27 c-3 -16 -13 -70 -21 -122 -18
-106 -37 -159 -76 -216 -41 -59 -75 -93 -133 -130 -82 -52 -139 -68 -246 -69
-82 0 -103 3 -150 25 -112 52 -180 157 -180 277 0 57 13 148 104 720 51 320
67 367 153 458 59 62 97 89 171 119 50 21 71 24 167 22 98 -2 116 -5 161 -29z"/>
<path d="M15318 6800 l-77 -110 -130 -833 c-72 -457 -133 -840 -135 -850 -4
-16 5 -17 122 -15 l126 3 63 90 c35 50 69 95 77 100 8 6 27 101 50 250 20 132
39 255 43 273 l5 33 57 -2 c75 -3 107 -15 132 -51 29 -39 27 -55 -26 -391 -25
-158 -45 -292 -45 -297 0 -6 52 -10 123 -10 l123 0 62 89 c33 49 68 96 77 105
14 13 58 248 90 476 3 25 10 69 15 99 22 123 8 224 -41 292 -23 33 -27 25 38
98 66 75 125 280 117 410 -6 104 -60 212 -135 270 -15 11 -51 33 -80 48 l-54
28 -260 2 -260 3 -77 -110z m630 26 c119 -55 192 -170 192 -300 0 -92 -25
-212 -60 -282 -17 -34 -53 -84 -85 -114 l-55 -54 29 -31 c52 -55 66 -92 65
-180 0 -63 -65 -507 -89 -612 -5 -22 -10 -23 -90 -23 -47 0 -85 2 -85 4 0 3
18 114 40 248 53 322 58 386 34 427 -37 63 -64 71 -232 71 -149 0 -152 0 -157
-22 -6 -27 -115 -707 -115 -719 0 -5 -38 -9 -85 -9 -65 0 -85 3 -85 13 0 8 32
214 70 458 39 244 82 514 95 599 13 85 38 241 55 345 16 105 30 196 30 203 0
11 45 13 233 10 l232 -3 63 -29z"/>
<path d="M15565 6668 c-7 -33 -75 -478 -75 -494 0 -11 26 -14 128 -14 144 0
180 11 250 74 51 47 77 102 92 198 14 92 3 142 -40 192 -50 57 -82 66 -224 66
-122 0 -126 -1 -131 -22z m135 -245 c40 -23 73 -78 77 -131 7 -77 -4 -85 -134
-90 l-110 -4 21 127 20 127 50 -7 c28 -3 62 -13 76 -22z"/>
<path d="M16558 6799 l-77 -109 -130 -833 c-72 -457 -133 -840 -135 -850 -4
-16 16 -17 352 -15 l356 3 68 94 c37 52 71 97 76 100 6 3 17 56 26 116 10 61
19 118 22 128 5 16 -10 17 -225 17 -184 0 -231 3 -231 13 0 7 4 38 10 68 9 54
12 72 25 159 13 87 -3 80 184 80 l167 0 64 91 c35 50 72 100 82 111 10 12 19
34 19 50 1 15 2 31 3 36 1 4 6 34 10 67 4 33 10 70 13 83 l5 22 -232 0 -232 0
5 28 c3 15 11 64 18 109 l12 83 171 2 170 3 68 94 c37 52 71 97 76 100 6 3 17
56 26 116 10 61 19 118 22 128 5 16 -16 17 -353 16 l-358 0 -77 -110z m731 9
c-5 -29 -12 -68 -15 -85 l-5 -33 -228 0 -229 0 -5 -22 c-3 -13 -20 -113 -37
-223 -17 -110 -33 -212 -36 -227 l-6 -28 231 0 c179 0 231 -3 230 -12 0 -7 -6
-47 -13 -88 l-12 -75 -230 -3 -231 -2 -41 -258 c-23 -141 -45 -277 -48 -302
l-6 -46 218 1 c121 1 224 -1 230 -3 8 -2 9 -15 4 -40 -4 -20 -11 -58 -15 -84
l-6 -48 -315 0 c-257 0 -314 2 -314 13 0 14 8 67 160 1025 49 315 90 577 90
582 0 6 118 10 319 10 l318 0 -8 -52z"/>
<path d="M17680 6899 c0 -7 -32 -56 -70 -110 -69 -96 -71 -102 -86 -192 -8
-50 -17 -104 -20 -119 l-6 -28 141 0 c124 0 141 -2 141 -16 0 -10 -49 -330
-110 -714 -60 -383 -110 -704 -110 -713 0 -15 14 -17 120 -17 l119 0 71 99
c39 55 74 101 79 103 4 2 29 140 55 308 26 168 70 444 97 614 27 170 49 315
49 323 0 10 20 13 83 13 l83 0 63 93 c35 50 70 97 78 104 8 6 17 26 19 45 3
18 12 71 20 118 7 47 14 88 14 93 0 4 -187 7 -415 7 -302 0 -415 -3 -415 -11z
m779 -51 c0 -7 -6 -44 -12 -83 l-12 -70 -142 -3 c-136 -2 -141 -3 -146 -25 -3
-12 -44 -267 -91 -567 -48 -300 -98 -618 -113 -707 l-26 -163 -84 0 c-60 0
-83 3 -83 13 0 6 9 68 20 136 11 68 54 338 95 600 77 485 101 635 111 684 l6
27 -141 0 c-160 0 -148 -10 -130 101 l12 69 368 0 c289 0 369 -3 368 -12z"/>
<path d="M7675 6823 c-90 -19 -164 -56 -217 -109 -60 -60 -64 -65 -83 -120
-51 -147 9 -287 151 -354 l64 -31 1 -57 c1 -60 7 -194 12 -274 3 -40 0 -48
-15 -49 -28 -2 -30 -3 -81 -28 -46 -23 -87 -76 -87 -115 0 -31 24 -65 54 -78
31 -13 40 -14 96 -17 l30 -1 -5 -129 c-4 -100 -1 -139 10 -172 51 -142 199
-152 263 -17 24 50 29 80 47 271 2 26 7 51 9 56 3 5 27 12 53 17 67 11 111 24
178 53 22 10 55 24 73 32 17 8 32 17 32 21 0 5 5 8 10 8 30 0 194 145 206 182
3 10 9 18 14 18 11 0 59 102 81 172 18 61 21 205 5 273 -28 118 -158 262 -305
338 -50 26 -91 44 -91 42 0 -3 -12 1 -27 8 -16 8 -59 22 -98 31 -99 25 -105
26 -155 31 -107 12 -159 11 -225 -2z m697 -305 c14 -9 32 -30 40 -48 17 -35
19 -105 2 -105 -5 0 -29 16 -53 35 -82 67 -104 140 -42 136 16 -1 39 -9 53
-18z m-354 -345 c42 -20 89 -59 104 -86 17 -33 19 -94 3 -135 -24 -60 -82
-102 -159 -116 l-27 -5 7 77 c3 42 7 123 8 179 1 114 2 115 64 86z"/>
<path d="M10397 6833 c-3 -2 -17 -6 -33 -9 -42 -8 -59 -12 -61 -14 -2 -2 -7
-4 -13 -5 -5 -1 -13 -4 -17 -5 -5 -1 -11 -2 -15 -1 -5 0 -8 -3 -8 -9 0 -5 -3
-9 -7 -8 -11 3 -76 -32 -85 -46 -4 -6 -8 -8 -8 -4 0 8 -35 -19 -76 -59 -31
-30 -87 -113 -77 -113 4 0 4 -4 -2 -8 -33 -24 -43 -155 -18 -227 23 -68 99
-137 165 -149 13 -3 25 -5 28 -6 3 -2 9 -2 13 -1 5 1 5 -4 1 -11 -5 -7 -9 -22
-10 -33 -1 -11 -5 -40 -8 -65 -4 -25 -8 -61 -10 -80 -2 -19 -6 -54 -10 -77 -3
-24 -9 -62 -12 -85 -4 -24 -7 -52 -8 -63 -4 -36 -17 -65 -31 -65 -19 0 -91
-74 -93 -96 -5 -46 -1 -67 17 -90 10 -13 21 -20 25 -17 3 3 6 1 6 -5 0 -7 3
-11 8 -11 23 4 33 -3 28 -18 -8 -31 -28 -211 -31 -283 -5 -143 57 -233 158
-227 20 1 37 6 37 11 0 5 3 6 7 3 9 -10 60 48 77 88 17 41 34 121 50 243 4 31
13 77 27 143 9 39 14 46 33 45 26 -2 65 -25 114 -70 30 -27 70 -84 171 -241
25 -40 131 -152 131 -139 0 4 8 0 18 -8 28 -25 91 -41 141 -35 62 6 72 9 95
30 11 9 23 17 27 17 4 0 17 21 29 46 18 35 21 57 18 102 -6 79 -39 142 -117
220 -69 70 -121 116 -121 107 0 -3 -6 -1 -12 5 -32 26 -87 58 -92 52 -3 -3 -6
0 -6 7 0 7 -4 10 -9 6 -5 -3 -12 -1 -15 4 -4 5 3 12 14 16 11 3 20 11 20 16 0
6 5 7 10 4 6 -3 13 1 16 9 3 9 10 13 15 10 5 -3 12 2 15 10 3 9 9 14 13 11 4
-2 14 5 21 16 8 10 21 19 29 19 8 0 11 3 8 7 -4 3 5 15 20 25 16 10 24 18 20
18 -4 0 2 11 15 25 38 40 47 53 60 80 6 14 15 25 20 25 4 0 8 3 7 8 -2 16 14
52 24 52 6 0 8 3 5 6 -4 3 0 20 7 38 41 97 51 256 25 367 -38 160 -153 315
-290 390 -17 9 -37 22 -45 29 -8 7 -15 9 -15 5 0 -4 -6 -3 -12 2 -13 10 -95
39 -136 48 -12 3 -32 8 -44 11 -28 7 -235 13 -241 7z m608 -327 c45 -42 77
-167 43 -166 -14 1 -57 30 -44 30 4 0 -4 14 -19 31 -40 48 -65 102 -55 120 14
24 39 19 75 -15z m-377 -333 c80 -38 120 -105 120 -198 0 -33 -7 -72 -14 -87
-8 -16 -12 -28 -9 -28 4 0 -13 -20 -37 -43 -24 -24 -46 -42 -50 -40 -3 2 -12
-2 -20 -9 -7 -7 -20 -14 -28 -15 -8 -1 -26 -4 -40 -7 -74 -17 -71 -17 -65 17
3 18 10 48 15 67 5 19 11 46 14 60 3 14 7 35 10 48 8 29 14 59 23 102 4 19 8
37 8 40 12 55 18 97 17 103 -3 12 18 8 56 -10z m337 -801 c21 0 65 -69 71
-111 8 -57 -8 -67 -48 -29 -16 15 -33 28 -37 28 -10 0 -51 65 -56 88 -4 25 22
44 45 32 8 -4 20 -8 25 -8z"/>
<path d="M8935 6752 c-53 -8 -114 -101 -115 -175 0 -25 -5 -39 -15 -42 -8 -3
-23 -8 -32 -12 -10 -3 -21 -7 -25 -7 -10 -1 -58 -45 -59 -53 0 -5 -2 -17 -4
-28 -9 -47 51 -90 133 -94 8 -1 12 -13 11 -33 -1 -18 2 -99 6 -179 l7 -146
-27 -27 c-32 -32 -32 -92 0 -110 11 -6 23 -15 26 -19 5 -7 3 -164 -4 -347 -4
-78 -6 -85 -25 -88 -12 -2 -22 -8 -22 -13 0 -5 -3 -8 -7 -7 -13 4 -73 -24 -73
-33 0 -5 -6 -9 -14 -9 -18 0 -56 -78 -56 -114 0 -41 29 -95 59 -110 14 -8 70
-17 124 -21 93 -6 122 -9 177 -20 82 -17 100 -20 160 -30 19 -3 42 -8 50 -10
8 -2 29 -6 45 -9 17 -3 44 -7 60 -10 81 -14 230 -16 283 -5 31 7 60 12 65 11
4 -1 7 2 7 8 0 5 6 10 13 10 17 0 88 65 80 74 -3 3 -2 6 4 6 18 0 44 80 48
147 5 83 -17 145 -69 197 -35 35 -107 72 -161 82 -60 12 -90 15 -168 15 -51 0
-99 -1 -107 -4 -19 -5 -107 -19 -117 -19 -5 0 -14 -4 -20 -10 -7 -6 -13 -7
-13 -4 0 4 -9 2 -20 -4 -25 -14 -26 -10 -16 80 3 30 9 89 12 130 3 41 8 77 10
80 3 2 40 5 82 6 80 1 125 7 179 23 17 5 34 7 37 3 3 -3 6 0 6 6 0 7 5 12 10
12 14 0 54 40 69 68 6 11 11 37 11 57 0 69 -40 113 -130 143 -19 7 -211 8
-229 2 -12 -4 -15 13 -16 92 -2 92 -1 96 19 93 12 -2 39 -6 61 -9 22 -3 55 -8
74 -12 50 -8 290 -11 293 -3 2 4 17 9 34 12 17 3 40 10 51 16 11 5 23 7 27 4
3 -3 6 -1 6 5 0 7 7 12 15 12 9 0 18 7 21 15 4 8 9 13 13 11 3 -2 16 7 29 20
12 13 20 24 17 24 -3 0 2 11 10 24 20 31 22 105 4 117 -8 5 -10 9 -5 9 10 0
-51 54 -63 56 -3 0 -13 3 -21 7 -71 29 -341 45 -442 27 -24 -5 -61 -9 -83 -11
-22 -1 -44 -5 -50 -8 -30 -16 -53 -6 -69 28 -37 82 -93 116 -171 103z m660
-206 c11 -2 20 -5 20 -6 0 -1 11 -3 24 -6 40 -7 88 -34 88 -49 0 -21 -21 -25
-51 -10 -14 8 -26 12 -26 9 0 -2 -10 2 -22 9 -13 8 -44 15 -69 16 -38 2 -70 6
-87 10 -1 1 2 9 7 20 8 14 19 18 53 15 24 -2 52 -5 63 -8z m-162 -533 c4 -2 7
-13 7 -23 0 -19 -1 -19 -40 1 -44 23 -45 43 -2 33 15 -4 30 -9 35 -11z m173
-606 c79 -40 131 -115 90 -130 -13 -5 -46 13 -74 40 -20 19 -50 34 -80 39 -58
9 -70 15 -75 35 -3 13 2 28 13 39 22 22 46 18 126 -23z"/>
<path d="M6178 6672 c-16 -2 -28 -8 -28 -13 0 -6 -4 -8 -9 -4 -5 3 -17 -2 -25
-11 -9 -8 -16 -12 -16 -8 0 4 -17 -10 -38 -32 -84 -85 -125 -200 -147 -414 -3
-30 -8 -73 -10 -95 -6 -55 -6 -285 -1 -315 3 -14 7 -43 10 -65 2 -22 13 -68
24 -102 11 -35 18 -63 16 -63 -2 0 17 -40 41 -88 81 -161 193 -251 370 -299
46 -13 232 -11 280 2 67 18 118 36 131 46 6 5 14 6 17 2 4 -3 7 -1 7 5 0 7 6
12 13 12 15 0 129 90 165 129 48 53 148 218 157 261 1 3 8 25 15 50 7 25 14
48 16 53 1 4 2 8 4 10 2 2 2 4 30 127 12 52 24 140 26 195 3 95 5 114 20 168
13 44 11 261 -2 305 -11 37 -43 79 -63 83 -32 6 -71 4 -71 -3 0 -5 -4 -7 -9
-4 -13 8 -48 -34 -70 -84 -28 -66 -35 -136 -46 -475 -7 -233 -28 -351 -84
-468 -30 -62 -99 -147 -120 -147 -6 0 -11 -4 -11 -9 0 -19 -110 -31 -164 -17
-27 7 -105 81 -123 117 -16 31 -35 80 -39 99 -30 142 -27 194 27 430 17 74 33
149 35 165 6 43 5 166 -1 193 -3 12 -7 30 -9 40 -9 41 -39 98 -71 138 -57 69
-146 100 -247 86z m136 -158 c44 -42 73 -132 47 -148 -21 -13 -136 99 -144
141 -8 41 55 45 97 7z m838 -6 c26 -22 29 -47 8 -68 -16 -16 -25 -18 -40 -10
-29 16 -37 60 -15 77 23 16 27 16 47 1z"/>
<path d="M7120 4895 c-41 -7 -93 -16 -115 -19 -91 -14 -113 -20 -175 -49 -36
-16 -68 -31 -72 -34 -5 -2 -8 -2 -8 1 0 2 27 21 60 41 33 20 63 41 66 47 4 6
3 9 -2 6 -14 -8 -112 -53 -174 -78 -30 -13 -59 -27 -64 -32 -6 -4 -15 -8 -20
-8 -6 1 0 10 13 20 l23 20 -23 0 c-13 0 -62 -7 -109 -16 -47 -8 -119 -19 -160
-24 -109 -15 -107 -13 -115 -76 -4 -33 -23 -88 -50 -142 -24 -48 -40 -88 -35
-90 5 -2 27 6 50 18 54 28 60 21 10 -10 -44 -27 -52 -43 -17 -35 49 11 222 43
224 41 2 -2 -4 -23 -12 -47 -14 -41 -25 -50 -139 -124 -69 -44 -123 -82 -120
-84 2 -2 32 10 67 26 94 47 209 94 202 83 -4 -6 -19 -17 -34 -25 -24 -12 -37
-39 -91 -184 -35 -94 -67 -171 -71 -171 -5 0 -211 -132 -228 -146 -2 -2 -2 -6
0 -8 2 -2 45 16 94 40 50 24 95 43 102 44 23 0 3 -25 -42 -53 -25 -16 -45 -31
-45 -33 0 -4 40 11 67 25 47 25 136 61 140 58 2 -3 -29 -26 -70 -51 l-73 -47
-59 -160 c-32 -88 -56 -161 -53 -164 2 -2 32 9 66 25 34 16 62 28 62 26 0 -2
-35 -26 -77 -53 l-78 -50 -42 -113 c-23 -63 -41 -115 -39 -117 1 -2 33 13 70
32 74 39 85 40 165 24 33 -7 79 -9 113 -5 l56 7 26 71 c15 39 25 72 24 74 -2
1 -22 -6 -46 -16 -23 -11 -42 -17 -42 -16 0 2 23 18 50 36 34 22 56 45 66 68
24 59 16 65 -46 36 -137 -65 -132 -58 60 66 80 52 147 96 149 97 2 2 2 5 0 8
-3 2 -28 -6 -56 -19 l-50 -24 32 92 c19 50 71 197 118 326 l85 234 47 33 c98
65 81 63 -75 -10 -112 -52 -192 -87 -199 -87 -3 0 53 39 124 86 72 47 136 94
143 104 24 33 10 42 -33 20 -60 -31 -56 -24 12 20 46 30 63 47 68 70 4 16 11
32 16 35 5 3 53 12 106 20 173 25 161 21 168 64 3 22 29 74 56 118 53 83 63
107 57 144 -4 29 -8 29 -98 14z m-129 -131 c-29 -14 -55 -23 -58 -21 -5 6 79
46 97 46 8 0 -9 -11 -39 -25z m-351 -109 c-14 -8 -29 -14 -35 -14 -5 0 1 6 15
14 14 8 30 14 35 14 6 0 -1 -6 -15 -14z m-50 -19 c0 -2 -7 -7 -16 -10 -8 -3
-12 -2 -9 4 6 10 25 14 25 6z m152 -36 c-18 -11 -35 -20 -37 -20 -2 0 -29 -12
-60 -26 -31 -15 -58 -24 -61 -22 -4 5 91 54 149 78 39 15 43 11 9 -10z m-185
-521 c-33 -19 -127 -59 -127 -53 0 6 122 64 135 64 6 0 2 -5 -8 -11z"/>
<path d="M13220 4895 c-41 -7 -93 -16 -115 -19 -91 -14 -113 -20 -175 -49 -36
-16 -68 -31 -72 -34 -5 -2 -8 -2 -8 1 0 2 27 21 60 41 33 20 63 41 66 47 4 6
3 9 -2 6 -14 -8 -112 -53 -174 -78 -30 -13 -59 -27 -64 -32 -6 -4 -15 -8 -20
-8 -6 1 0 10 13 20 l23 20 -23 0 c-13 0 -62 -7 -109 -16 -47 -8 -119 -19 -160
-24 -109 -15 -107 -13 -115 -76 -4 -33 -23 -88 -50 -142 -24 -48 -40 -88 -35
-90 5 -2 27 6 50 18 54 28 60 21 10 -10 -44 -27 -52 -43 -17 -35 49 11 222 43
224 41 2 -2 -4 -23 -12 -47 -14 -41 -25 -50 -139 -124 -69 -44 -123 -82 -120
-84 2 -2 32 10 67 26 94 47 209 94 202 83 -4 -6 -19 -17 -34 -25 -24 -12 -37
-39 -91 -184 -35 -94 -67 -171 -71 -171 -5 0 -211 -132 -228 -146 -2 -2 -2 -6
0 -8 2 -2 45 16 94 40 50 24 95 43 102 44 23 0 3 -25 -42 -53 -25 -16 -45 -31
-45 -33 0 -4 40 11 67 25 47 25 136 61 140 58 2 -3 -29 -26 -70 -51 l-73 -47
-59 -160 c-32 -88 -56 -161 -53 -164 2 -2 32 9 66 25 34 16 62 28 62 26 0 -2
-35 -26 -77 -53 l-78 -50 -42 -113 c-23 -63 -41 -115 -39 -117 1 -2 33 13 70
32 74 39 85 40 165 24 33 -7 79 -9 113 -5 l56 7 26 71 c15 39 25 72 24 74 -2
1 -22 -6 -46 -16 -23 -11 -42 -17 -42 -16 0 2 23 18 50 36 34 22 56 45 66 68
24 59 16 65 -46 36 -137 -65 -132 -58 60 66 80 52 147 96 149 97 2 2 2 5 0 8
-3 2 -28 -6 -56 -19 l-50 -24 32 92 c19 50 71 197 118 326 l85 234 47 33 c98
65 81 63 -75 -10 -112 -52 -192 -87 -199 -87 -3 0 53 39 124 86 72 47 136 94
143 104 24 33 10 42 -33 20 -60 -31 -56 -24 12 20 46 30 63 47 68 70 4 16 11
32 16 35 5 3 53 12 106 20 173 25 161 21 168 64 3 22 29 74 56 118 53 83 63
107 57 144 -4 29 -8 29 -98 14z m-129 -131 c-29 -14 -55 -23 -58 -21 -5 6 79
46 97 46 8 0 -9 -11 -39 -25z m-351 -109 c-14 -8 -29 -14 -35 -14 -5 0 1 6 15
14 14 8 30 14 35 14 6 0 -1 -6 -15 -14z m-50 -19 c0 -2 -7 -7 -16 -10 -8 -3
-12 -2 -9 4 6 10 25 14 25 6z m152 -36 c-18 -11 -35 -20 -37 -20 -2 0 -29 -12
-60 -26 -31 -15 -58 -24 -61 -22 -4 5 91 54 149 78 39 15 43 11 9 -10z m-185
-521 c-33 -19 -127 -59 -127 -53 0 6 122 64 135 64 6 0 2 -5 -8 -11z"/>
<path d="M6205 4874 c-33 -15 -116 -51 -185 -81 l-125 -55 -51 12 c-94 23 -93
24 -178 -192 -42 -105 -74 -194 -71 -196 2 -2 23 5 46 17 70 37 52 18 -42 -44
-50 -33 -85 -61 -79 -63 6 -2 18 2 26 9 14 11 7 -12 -45 -145 -6 -15 -13 -2
-30 55 -12 41 -28 92 -36 113 -8 22 -14 40 -12 42 1 1 31 20 67 43 73 46 72
53 -4 17 -110 -51 -148 -67 -152 -63 -3 2 14 16 36 31 42 27 45 33 32 53 -6 9
-21 6 -60 -12 -77 -36 -56 -16 65 61 108 69 127 97 32 49 -41 -21 -53 -24 -60
-13 -5 7 -9 16 -9 20 0 4 -4 18 -9 31 -10 24 -10 25 -66 12 -31 -8 -66 -12
-78 -9 -66 13 -135 12 -166 -3 -35 -18 -53 -50 -87 -158 -17 -54 -23 -61 -87
-104 -38 -25 -64 -47 -59 -49 6 -2 53 17 104 41 151 72 168 73 58 5 -66 -41
-72 -47 -99 -113 -16 -38 -33 -82 -36 -98 -5 -18 -22 -36 -51 -53 -63 -37 -54
-47 14 -18 70 31 62 24 -50 -49 -49 -32 -88 -59 -88 -62 0 -6 40 9 80 30 34
18 40 18 40 5 0 -6 -48 -42 -107 -81 -101 -66 -109 -82 -18 -36 69 35 196 87
191 78 -3 -4 -29 -23 -58 -40 l-53 -33 -50 -135 c-27 -74 -52 -139 -53 -144
-2 -5 8 -5 24 1 15 6 29 9 31 7 3 -4 -76 -59 -175 -121 -59 -37 -46 -44 22
-13 31 14 56 24 56 22 0 -2 -20 -58 -45 -125 -25 -67 -45 -126 -45 -132 0 -7
22 -9 69 -5 53 4 89 15 148 44 68 33 87 38 149 38 l71 0 28 75 c15 41 30 81
33 89 3 9 1 12 -6 7 -7 -4 -12 -5 -12 -3 0 3 29 24 65 47 71 46 79 60 20 36
-34 -14 -37 -14 -31 0 3 9 6 17 6 19 0 2 27 20 60 40 33 20 60 41 60 46 0 6
-3 8 -7 6 -34 -19 -186 -87 -189 -84 -2 2 23 20 56 41 41 26 62 47 67 65 8 36
85 244 93 254 3 4 12 -15 19 -43 7 -27 17 -50 22 -50 5 0 40 14 77 31 80 37
203 89 210 89 5 0 -208 -141 -310 -205 -59 -37 -62 -50 -5 -25 l42 19 19 -74
c10 -41 22 -75 27 -75 5 0 39 14 76 30 36 17 68 30 71 30 8 0 -107 -80 -163
-113 -51 -30 -56 -49 -6 -24 l30 15 16 -54 c8 -29 18 -67 22 -84 3 -17 14 -35
24 -41 29 -15 108 0 166 33 42 24 63 29 97 26 l45 -3 70 208 c39 115 69 212
67 216 -3 4 27 29 67 54 79 52 73 62 -13 20 -76 -37 -97 -46 -85 -35 18 16
140 98 165 110 14 7 36 22 50 32 38 29 5 25 -67 -9 l-62 -29 14 41 c8 23 25
76 39 117 14 41 26 78 26 82 0 5 -22 -3 -50 -17 -27 -14 -50 -24 -50 -22 0 1
72 50 160 107 88 58 160 108 160 113 0 4 -26 -6 -57 -22 -90 -45 -137 -63
-125 -48 6 7 27 65 47 128 45 147 48 150 106 185 27 16 49 32 49 36 0 8 -35
-7 -130 -54 l-55 -28 35 30 c19 17 39 30 45 30 11 0 27 26 39 63 3 9 1 17 -4
17 -6 0 -65 -27 -133 -61 -67 -34 -117 -57 -112 -51 6 5 99 73 208 152 169
121 209 152 195 150 -2 -1 -30 -12 -63 -26z m-435 -649 c-25 -13 -49 -24 -55
-24 -5 0 10 11 35 24 25 13 50 24 55 24 6 0 -10 -11 -35 -24z m-540 0 c0 -6
-140 -71 -170 -79 -14 -3 15 14 64 39 85 43 106 51 106 40z"/>
<path d="M11075 4874 c-33 -15 -116 -51 -185 -81 l-125 -55 -51 12 c-94 23
-93 24 -178 -192 -42 -105 -74 -194 -71 -196 2 -2 23 5 46 17 70 37 52 18 -42
-44 -50 -33 -85 -61 -79 -63 6 -2 18 2 26 9 14 11 7 -12 -45 -145 -6 -15 -13
-2 -30 55 -12 41 -28 92 -36 113 -8 22 -14 40 -12 42 1 1 31 20 67 43 73 46
72 53 -4 17 -110 -51 -148 -67 -152 -63 -3 2 14 16 36 31 42 27 45 33 32 53
-6 9 -21 6 -60 -12 -77 -36 -56 -16 65 61 108 69 127 97 32 49 -41 -21 -53
-24 -60 -13 -5 7 -9 16 -9 20 0 4 -4 18 -9 31 -10 24 -10 25 -66 12 -31 -8
-66 -12 -78 -9 -66 13 -135 12 -166 -3 -35 -18 -53 -50 -87 -158 -17 -54 -23
-61 -87 -104 -38 -25 -64 -47 -59 -49 6 -2 53 17 104 41 151 72 168 73 58 5
-66 -41 -72 -47 -99 -113 -16 -38 -33 -82 -36 -98 -5 -18 -22 -36 -51 -53 -63
-37 -54 -47 14 -18 70 31 62 24 -50 -49 -49 -32 -88 -59 -88 -62 0 -6 40 9 80
30 34 18 40 18 40 5 0 -6 -48 -42 -107 -81 -101 -66 -109 -82 -18 -36 69 35
196 87 191 78 -3 -4 -29 -23 -58 -40 l-53 -33 -50 -135 c-27 -74 -52 -139 -53
-144 -2 -5 8 -5 24 1 15 6 29 9 31 7 3 -4 -76 -59 -175 -121 -59 -37 -46 -44
22 -13 31 14 56 24 56 22 0 -2 -20 -58 -45 -125 -25 -67 -45 -126 -45 -132 0
-7 22 -9 69 -5 53 4 89 15 148 44 68 33 87 38 149 38 l71 0 28 75 c15 41 30
81 33 89 3 9 1 12 -6 7 -7 -4 -12 -5 -12 -3 0 3 29 24 65 47 71 46 79 60 20
36 -34 -14 -37 -14 -31 0 3 9 6 17 6 19 0 2 27 20 60 40 33 20 60 41 60 46 0
6 -3 8 -7 6 -34 -19 -186 -87 -189 -84 -2 2 23 20 56 41 41 26 62 47 67 65 8
36 85 244 93 254 3 4 12 -15 19 -43 7 -27 17 -50 22 -50 5 0 40 14 77 31 80
37 203 89 210 89 5 0 -208 -141 -310 -205 -59 -37 -62 -50 -5 -25 l42 19 19
-74 c10 -41 22 -75 27 -75 5 0 39 14 76 30 36 17 68 30 71 30 8 0 -107 -80
-163 -113 -51 -30 -56 -49 -6 -24 l30 15 16 -54 c8 -29 18 -67 22 -84 3 -17
14 -35 24 -41 29 -15 108 0 166 33 42 24 63 29 97 26 l45 -3 70 208 c39 115
69 212 67 216 -3 4 27 29 67 54 79 52 73 62 -13 20 -76 -37 -97 -46 -85 -35
18 16 140 98 165 110 14 7 36 22 50 32 38 29 5 25 -67 -9 l-62 -29 14 41 c8
23 25 76 39 117 14 41 26 78 26 82 0 5 -22 -3 -50 -17 -27 -14 -50 -24 -50
-22 0 1 72 50 160 107 88 58 160 108 160 113 0 4 -26 -6 -57 -22 -90 -45 -137
-63 -125 -48 6 7 27 65 47 128 45 147 48 150 106 185 27 16 49 32 49 36 0 8
-35 -7 -130 -54 l-55 -28 35 30 c19 17 39 30 45 30 11 0 27 26 39 63 3 9 1 17
-4 17 -6 0 -65 -27 -133 -61 -67 -34 -117 -57 -112 -51 6 5 99 73 208 152 169
121 209 152 195 150 -2 -1 -30 -12 -63 -26z m-435 -649 c-25 -13 -49 -24 -55
-24 -5 0 10 11 35 24 25 13 50 24 55 24 6 0 -10 -11 -35 -24z m-540 0 c0 -6
-140 -71 -170 -79 -14 -3 15 14 64 39 85 43 106 51 106 40z"/>
<path d="M16805 4874 c-33 -15 -116 -51 -185 -81 l-125 -55 -51 12 c-94 23
-93 24 -178 -192 -42 -105 -74 -194 -71 -196 2 -2 23 5 46 17 70 37 52 18 -42
-44 -50 -33 -85 -61 -79 -63 6 -2 18 2 26 9 14 11 7 -12 -45 -145 -6 -15 -13
-2 -30 55 -12 41 -28 92 -36 113 -8 22 -14 40 -12 42 1 1 31 20 67 43 73 46
72 53 -4 17 -110 -51 -148 -67 -152 -63 -3 2 14 16 36 31 42 27 45 33 32 53
-6 9 -21 6 -60 -12 -77 -36 -56 -16 65 61 108 69 127 97 32 49 -41 -21 -53
-24 -60 -13 -5 7 -9 16 -9 20 0 4 -4 18 -9 31 -10 24 -10 25 -66 12 -31 -8
-66 -12 -78 -9 -66 13 -135 12 -166 -3 -35 -18 -53 -50 -87 -158 -17 -54 -23
-61 -87 -104 -38 -25 -64 -47 -59 -49 6 -2 53 17 104 41 151 72 168 73 58 5
-66 -41 -72 -47 -99 -113 -16 -38 -33 -82 -36 -98 -5 -18 -22 -36 -51 -53 -63
-37 -54 -47 14 -18 70 31 62 24 -50 -49 -49 -32 -88 -59 -88 -62 0 -6 40 9 80
30 34 18 40 18 40 5 0 -6 -48 -42 -107 -81 -101 -66 -109 -82 -18 -36 69 35
196 87 191 78 -3 -4 -29 -23 -58 -40 l-53 -33 -50 -135 c-27 -74 -52 -139 -53
-144 -2 -5 8 -5 24 1 15 6 29 9 31 7 3 -4 -76 -59 -175 -121 -59 -37 -46 -44
22 -13 31 14 56 24 56 22 0 -2 -20 -58 -45 -125 -25 -67 -45 -126 -45 -132 0
-7 22 -9 69 -5 53 4 89 15 148 44 68 33 87 38 149 38 l71 0 28 75 c15 41 30
81 33 89 3 9 1 12 -6 7 -7 -4 -12 -5 -12 -3 0 3 29 24 65 47 71 46 79 60 20
36 -34 -14 -37 -14 -31 0 3 9 6 17 6 19 0 2 27 20 60 40 33 20 60 41 60 46 0
6 -3 8 -7 6 -34 -19 -186 -87 -189 -84 -2 2 23 20 56 41 41 26 62 47 67 65 8
36 85 244 93 254 3 4 12 -15 19 -43 7 -27 17 -50 22 -50 5 0 40 14 77 31 80
37 203 89 210 89 5 0 -208 -141 -310 -205 -59 -37 -62 -50 -5 -25 l42 19 19
-74 c10 -41 22 -75 27 -75 5 0 39 14 76 30 36 17 68 30 71 30 8 0 -107 -80
-163 -113 -51 -30 -56 -49 -6 -24 l30 15 16 -54 c8 -29 18 -67 22 -84 3 -17
14 -35 24 -41 29 -15 108 0 166 33 42 24 63 29 97 26 l45 -3 70 208 c39 115
69 212 67 216 -3 4 27 29 67 54 79 52 73 62 -13 20 -76 -37 -97 -46 -85 -35
18 16 140 98 165 110 14 7 36 22 50 32 38 29 5 25 -67 -9 l-62 -29 14 41 c8
23 25 76 39 117 14 41 26 78 26 82 0 5 -22 -3 -50 -17 -27 -14 -50 -24 -50
-22 0 1 72 50 160 107 88 58 160 108 160 113 0 4 -26 -6 -57 -22 -90 -45 -137
-63 -125 -48 6 7 27 65 47 128 45 147 48 150 106 185 27 16 49 32 49 36 0 8
-35 -7 -130 -54 l-55 -28 35 30 c19 17 39 30 45 30 11 0 27 26 39 63 3 9 1 17
-4 17 -6 0 -65 -27 -133 -61 -67 -34 -117 -57 -112 -51 6 5 99 73 208 152 169
121 209 152 195 150 -2 -1 -30 -12 -63 -26z m-435 -649 c-25 -13 -49 -24 -55
-24 -5 0 10 11 35 24 25 13 50 24 55 24 6 0 -10 -11 -35 -24z m-540 0 c0 -6
-140 -71 -170 -79 -14 -3 15 14 64 39 85 43 106 51 106 40z"/>
<path d="M18575 4852 c-11 -2 -45 -13 -75 -25 -38 -14 -79 -21 -135 -21 l-80
-1 -37 -110 -37 -110 -72 -47 c-76 -50 -81 -61 -13 -29 21 10 149 67 284 126
135 59 251 112 259 118 14 12 26 39 37 83 6 25 6 25 -52 23 -33 -2 -68 -5 -79
-7z"/>
<path d="M7826 4785 c-116 -53 -241 -85 -426 -110 -77 -10 -76 -9 -90 -90
l-13 -74 -133 -87 c-74 -48 -132 -89 -131 -91 4 -3 369 156 400 174 4 2 7 2 7
-1 0 -5 -134 -94 -226 -149 -57 -34 -96 -67 -80 -67 4 0 25 9 46 19 44 21 47
17 24 -37 -27 -62 -74 -205 -70 -210 3 -2 19 3 37 12 71 36 31 4 -131 -104
-94 -63 -173 -117 -176 -122 -5 -8 24 0 41 12 6 4 51 24 100 45 112 47 172 73
208 91 55 29 24 5 -113 -86 -131 -87 -174 -123 -100 -85 18 9 33 15 35 13 2
-2 -9 -36 -25 -76 -18 -47 -24 -72 -16 -72 7 0 50 18 95 40 46 22 86 39 88 37
4 -5 -15 -18 -137 -94 l-85 -54 -36 -92 c-20 -51 -33 -93 -29 -95 5 -2 28 6
52 18 46 22 38 15 -36 -37 -87 -61 -45 -63 72 -4 63 32 121 57 112 48 -5 -5
-155 -104 -227 -150 -47 -30 -56 -50 -20 -42 12 2 101 23 197 45 326 77 490
106 635 116 50 3 96 7 103 9 6 3 12 20 12 39 0 28 6 38 33 54 85 54 181 122
171 122 -5 0 -35 -12 -65 -26 -63 -31 -211 -94 -219 -94 -3 0 19 16 49 35 99
63 241 212 241 254 0 14 -3 14 -130 -4 l-45 -7 50 37 c28 20 64 44 82 53 18 8
34 21 37 29 4 10 1 11 -12 4 -9 -5 -39 -19 -67 -31 -27 -12 -83 -38 -124 -57
-144 -67 -264 -113 -250 -97 11 14 9 15 -22 10 -74 -12 -99 -14 -99 -7 0 4 15
45 33 91 38 98 8 84 277 126 96 15 180 31 187 36 6 5 15 24 19 41 11 54 32 85
75 110 22 14 36 28 31 31 -6 3 -13 2 -17 -4 -11 -18 -23 -11 -18 11 3 11 23
32 45 46 21 14 37 28 35 30 -2 2 -35 -11 -73 -28 -150 -68 -182 -69 -74 -4 33
20 60 39 60 42 0 5 -33 2 -205 -22 -60 -8 -128 -18 -150 -20 -22 -3 -53 -8
-69 -11 -27 -6 -28 -5 -21 27 4 19 15 52 25 75 16 37 22 42 61 47 24 3 94 15
154 27 61 11 142 25 180 30 127 18 122 15 129 69 6 46 9 49 78 94 40 26 66 47
58 47 -13 0 -133 -53 -182 -80 -10 -6 -21 -10 -25 -10 -5 0 30 25 77 55 75 48
89 61 117 115 43 81 43 100 1 100 -18 -1 -64 -7 -101 -14 l-69 -13 29 24 c17
15 20 21 8 15 -11 -5 -42 -20 -70 -32 -27 -12 -77 -35 -110 -50 -163 -75 -252
-114 -244 -106 3 3 57 39 120 80 109 71 170 115 159 115 -3 0 -59 -24 -124
-54z m-171 -251 c-114 -55 -154 -69 -97 -33 38 25 182 89 197 88 6 0 -39 -25
-100 -55z m151 -13 c-8 -12 -97 -53 -103 -47 -3 2 19 16 49 30 62 29 61 29 54
17z m-277 -436 c-9 -9 -79 -35 -79 -30 0 3 15 12 33 20 32 14 55 19 46 10z
m-259 -440 c0 -6 -72 -43 -108 -55 l-27 -10 24 18 c13 9 43 25 65 34 48 20 46
19 46 13z"/>
<path d="M15045 4744 c-115 -51 -253 -115 -305 -141 -147 -72 -147 -73 44 50
66 44 126 84 131 89 17 18 -164 1 -240 -22 -90 -28 -248 -107 -353 -177 -144
-96 -302 -263 -407 -434 -72 -117 -113 -207 -129 -283 l-13 -60 -87 -54 c-85
-53 -109 -80 -44 -49 31 14 70 32 201 91 91 41 149 66 156 66 3 0 -12 -12 -34
-27 -22 -14 -42 -29 -45 -32 -3 -3 -38 -27 -77 -54 -69 -45 -73 -49 -73 -85 0
-57 27 -139 58 -173 27 -30 27 -30 70 -15 23 8 42 13 42 11 0 -2 -41 -29 -90
-61 -50 -31 -89 -59 -86 -61 2 -2 33 9 69 25 40 19 70 27 78 21 16 -10 23 -4
-91 -77 -52 -34 -89 -62 -82 -62 7 0 20 4 30 10 9 5 105 49 212 96 107 47 198
88 203 91 4 2 7 2 7 -1 0 -3 -32 -24 -71 -46 -38 -23 -68 -47 -66 -53 7 -21
181 -13 277 12 98 25 269 106 385 182 99 65 288 254 371 371 117 166 184 338
184 475 0 34 -2 63 -5 63 -3 0 -27 -10 -53 -22 -26 -12 -51 -23 -57 -26 -20
-8 41 39 77 60 35 20 37 24 32 57 -3 20 -17 56 -31 80 -14 24 -21 46 -16 50 5
3 31 20 56 36 26 17 47 33 47 37 0 5 -216 -88 -287 -124 -13 -6 -25 -9 -28 -6
-3 3 28 27 70 53 77 50 83 65 33 81 -16 5 -5 16 64 61 148 99 140 97 -127 -23z
m-655 -328 c-25 -13 -56 -26 -70 -30 -14 -3 2 8 35 24 33 16 65 30 70 30 6 -1
-10 -11 -35 -24z m305 -147 c1 -2 -41 -33 -95 -69 -54 -36 -97 -67 -95 -69 3
-2 30 9 62 24 87 42 253 115 260 115 6 0 -29 -27 -59 -45 -73 -45 -298 -199
-294 -202 2 -2 39 13 82 33 103 48 254 113 254 110 0 -2 -18 -15 -40 -30 -22
-14 -40 -32 -40 -40 0 -29 -72 -154 -115 -199 -47 -49 -146 -107 -184 -107
-12 0 -41 -9 -63 -20 -52 -25 -56 -25 -27 0 l24 20 -22 6 c-13 3 -23 11 -23
16 0 12 -30 3 -106 -33 -90 -42 -89 -36 1 24 78 51 80 53 82 95 1 33 -2 42
-15 42 -13 0 -12 3 5 15 12 8 27 32 34 53 14 43 65 123 106 167 64 70 142 105
221 100 24 -2 45 -4 47 -6z m230 -326 c-64 -33 -115 -55 -115 -48 0 8 134 74
150 74 8 0 -7 -12 -35 -26z m-255 -257 c0 -8 -90 -55 -145 -75 -98 -37 -55 -6
70 51 60 27 75 31 75 24z"/>
<path d="M12040 4779 c-156 -72 -194 -83 -127 -39 l32 21 -40 -4 c-45 -5 -284
-43 -362 -58 -50 -10 -55 -14 -85 -65 -33 -54 -72 -86 -236 -188 -24 -15 -42
-29 -39 -32 4 -5 43 11 145 58 222 102 229 103 97 19 -74 -48 -85 -59 -141
-149 -45 -73 -72 -105 -110 -131 -39 -27 -44 -32 -21 -27 15 4 66 25 113 47
47 22 87 39 89 37 2 -2 -41 -32 -96 -68 l-99 -64 -77 -129 c-42 -71 -86 -133
-98 -139 -40 -21 -235 -151 -231 -155 2 -2 39 12 82 33 44 20 120 54 169 76
98 43 156 69 168 75 4 2 7 2 7 0 0 -5 -211 -147 -247 -165 -12 -7 -44 -51 -72
-99 -45 -78 -58 -92 -114 -125 -53 -32 -141 -98 -112 -85 138 65 180 83 229
103 33 13 62 24 65 24 3 0 -42 -31 -100 -68 -80 -52 -108 -77 -121 -105 l-18
-37 36 0 c19 0 67 -14 107 -32 62 -27 84 -31 160 -32 l88 -1 49 92 c48 91 53
110 21 93 -34 -19 -85 -40 -67 -28 103 71 122 88 140 123 l21 39 123 25 c67
13 125 21 128 18 4 -3 4 -16 1 -29 -4 -15 -38 -43 -101 -83 -155 -98 -138 -93
172 45 52 24 61 26 42 10 -14 -12 -42 -30 -63 -41 -21 -11 -46 -28 -56 -38
-11 -11 -40 -32 -67 -47 -51 -30 -45 -46 7 -20 40 20 39 20 39 -4 0 -28 64
-44 124 -30 51 11 111 2 202 -30 32 -11 60 -20 61 -20 2 0 3 15 3 33 0 17 4
50 9 72 5 22 12 67 15 100 11 106 17 159 22 187 4 26 3 27 -21 18 -14 -5 -39
-17 -55 -25 -60 -31 -28 -5 75 60 113 72 140 96 78 70 -21 -9 -44 -19 -52 -23
-11 -4 -13 7 -7 61 3 37 4 67 1 67 -2 0 -30 -12 -62 -26 -108 -49 -101 -46
-79 -32 10 7 58 40 105 74 47 33 119 80 159 104 108 67 92 76 -27 15 -28 -14
-55 -25 -62 -25 -10 0 -9 29 6 145 2 17 11 91 20 165 9 74 18 146 20 160 2 14
4 36 4 50 1 19 18 36 76 75 41 27 73 51 71 52 -2 2 -41 -14 -87 -36 -46 -21
-118 -53 -159 -70 -41 -18 -91 -39 -110 -47 -19 -9 -30 -11 -25 -6 13 13 209
143 314 209 47 29 78 53 70 52 -7 -1 -61 -23 -119 -50z m-190 -294 c0 -8 -211
-108 -216 -102 -7 7 40 33 136 74 84 36 80 35 80 28z m-251 -283 c-6 -30 -9
-57 -7 -62 2 -4 31 5 66 20 34 16 62 27 62 26 0 -2 -29 -23 -64 -46 -81 -52
-83 -55 -91 -115 -4 -28 -10 -53 -13 -56 -6 -6 -115 -29 -118 -26 -1 1 30 61
68 132 39 72 77 143 85 158 20 38 23 31 12 -31z m-269 -405 c0 -5 -75 -42
-122 -61 -78 -31 -19 9 67 46 40 17 55 21 55 15z"/>
<path d="M17770 4779 c-156 -72 -194 -83 -127 -39 l32 21 -40 -4 c-45 -5 -284
-43 -362 -58 -50 -10 -55 -14 -85 -65 -33 -54 -72 -86 -236 -188 -24 -15 -42
-29 -39 -32 4 -5 43 11 145 58 222 102 229 103 97 19 -74 -48 -85 -59 -141
-149 -45 -73 -72 -105 -110 -131 -39 -27 -44 -32 -21 -27 15 4 66 25 113 47
47 22 87 39 89 37 2 -2 -41 -32 -96 -68 l-99 -64 -77 -129 c-42 -71 -86 -133
-98 -139 -40 -21 -235 -151 -231 -155 2 -2 39 12 82 33 44 20 120 54 169 76
98 43 156 69 168 75 4 2 7 2 7 0 0 -5 -211 -147 -247 -165 -12 -7 -44 -51 -72
-99 -45 -78 -58 -92 -114 -125 -53 -32 -141 -98 -112 -85 138 65 180 83 229
103 33 13 62 24 65 24 3 0 -42 -31 -100 -68 -80 -52 -108 -77 -121 -105 l-18
-37 36 0 c19 0 67 -14 107 -32 62 -27 84 -31 160 -32 l88 -1 49 92 c48 91 53
110 21 93 -34 -19 -85 -40 -67 -28 103 71 122 88 140 123 l21 39 123 25 c67
13 125 21 128 18 4 -3 4 -16 1 -29 -4 -15 -38 -43 -101 -83 -155 -98 -138 -93
172 45 52 24 61 26 42 10 -14 -12 -42 -30 -63 -41 -21 -11 -46 -28 -56 -38
-11 -11 -40 -32 -67 -47 -51 -30 -45 -46 7 -20 40 20 39 20 39 -4 0 -28 64
-44 124 -30 51 11 111 2 202 -30 32 -11 60 -20 61 -20 2 0 3 15 3 33 0 17 4
50 9 72 5 22 12 67 15 100 11 106 17 159 22 187 4 26 3 27 -21 18 -14 -5 -39
-17 -55 -25 -60 -31 -28 -5 75 60 113 72 140 96 78 70 -21 -9 -44 -19 -52 -23
-11 -4 -13 7 -7 61 3 37 4 67 1 67 -2 0 -30 -12 -62 -26 -108 -49 -101 -46
-79 -32 10 7 58 40 105 74 47 33 119 80 159 104 108 67 92 76 -27 15 -28 -14
-55 -25 -62 -25 -10 0 -9 29 6 145 2 17 11 91 20 165 9 74 18 146 20 160 2 14
4 36 4 50 1 19 18 36 76 75 41 27 73 51 71 52 -2 2 -41 -14 -87 -36 -46 -21
-118 -53 -159 -70 -41 -18 -91 -39 -110 -47 -19 -9 -30 -11 -25 -6 13 13 209
143 314 209 47 29 78 53 70 52 -7 -1 -61 -23 -119 -50z m-190 -294 c0 -8 -211
-108 -216 -102 -7 7 40 33 136 74 84 36 80 35 80 28z m-251 -283 c-6 -30 -9
-57 -7 -62 2 -4 31 5 66 20 34 16 62 27 62 26 0 -2 -29 -23 -64 -46 -81 -52
-83 -55 -91 -115 -4 -28 -10 -53 -13 -56 -6 -6 -115 -29 -118 -26 -1 1 30 61
68 132 39 72 77 143 85 158 20 38 23 31 12 -31z m-269 -405 c0 -5 -75 -42
-122 -61 -78 -31 -19 9 67 46 40 17 55 21 55 15z"/>
<path d="M4660 4789 c-57 -23 -167 -39 -253 -37 -60 2 -105 -3 -129 -12 -34
-13 -39 -20 -74 -109 -51 -133 -105 -294 -100 -299 4 -3 35 9 91 36 42 20
-133 -98 -212 -144 -56 -32 -46 -45 14 -19 31 14 58 24 59 22 2 -2 -9 -38 -24
-80 -27 -73 -32 -80 -90 -120 -34 -23 -62 -45 -62 -48 0 -6 136 52 308 132 35
16 66 29 70 29 6 0 -41 -32 -81 -55 -64 -37 -456 -299 -453 -303 3 -2 20 4 38
13 18 9 64 30 102 46 57 24 67 26 61 11 -28 -74 -135 -372 -140 -393 -5 -19
-31 -42 -96 -83 -49 -32 -89 -62 -89 -67 0 -5 33 7 73 26 83 39 385 175 407
182 15 5 -126 -92 -265 -183 -39 -25 -59 -43 -45 -40 71 17 116 17 198 1 96
-18 138 -13 197 24 26 16 39 44 104 225 l74 206 83 52 c87 55 113 83 44 48
-21 -11 -61 -29 -87 -39 -26 -11 -65 -27 -85 -35 -54 -23 -47 -13 19 28 l56
35 64 173 c61 162 133 367 133 376 0 2 -10 0 -22 -3 -15 -5 -19 -4 -13 2 17
16 167 117 228 153 31 19 57 38 57 42 0 12 0 12 -105 -38 -53 -25 -98 -44
-100 -42 -2 2 3 18 12 36 12 24 53 57 152 122 206 136 214 144 79 81 -79 -37
-110 -51 -223 -101 -27 -12 -63 -28 -79 -36 -54 -26 -41 -14 44 42 84 55 101
74 114 127 7 30 -7 34 -54 16z m-293 -225 c-3 -3 -30 -17 -59 -30 -32 -15 -45
-18 -33 -8 31 25 113 59 92 38z m-107 -599 c0 -5 -115 -64 -172 -88 -21 -9
-38 -14 -38 -12 0 10 137 79 208 104 1 1 2 -1 2 -4z m-10 -140 c0 -6 -86 -45
-97 -44 -4 0 15 11 42 25 55 26 55 26 55 19z"/>
<path d="M13850 4789 c-57 -23 -167 -39 -253 -37 -60 2 -105 -3 -129 -12 -34
-13 -39 -20 -74 -109 -51 -133 -105 -294 -100 -299 4 -3 35 9 91 36 42 20
-133 -98 -212 -144 -56 -32 -46 -45 14 -19 31 14 58 24 59 22 2 -2 -9 -38 -24
-80 -27 -73 -32 -80 -90 -120 -34 -23 -62 -45 -62 -48 0 -6 136 52 308 132 35
16 66 29 70 29 6 0 -41 -32 -81 -55 -64 -37 -456 -299 -453 -303 3 -2 20 4 38
13 18 9 64 30 102 46 57 24 67 26 61 11 -28 -74 -135 -372 -140 -393 -5 -19
-31 -42 -96 -83 -49 -32 -89 -62 -89 -67 0 -5 33 7 73 26 83 39 385 175 407
182 15 5 -126 -92 -265 -183 -39 -25 -59 -43 -45 -40 71 17 116 17 198 1 96
-18 138 -13 197 24 26 16 39 44 104 225 l74 206 83 52 c87 55 113 83 44 48
-21 -11 -61 -29 -87 -39 -26 -11 -65 -27 -85 -35 -54 -23 -47 -13 19 28 l56
35 64 173 c61 162 133 367 133 376 0 2 -10 0 -22 -3 -15 -5 -19 -4 -13 2 17
16 167 117 228 153 31 19 57 38 57 42 0 12 0 12 -105 -38 -53 -25 -98 -44
-100 -42 -2 2 3 18 12 36 12 24 53 57 152 122 206 136 214 144 79 81 -79 -37
-110 -51 -223 -101 -27 -12 -63 -28 -79 -36 -54 -26 -41 -14 44 42 84 55 101
74 114 127 7 30 -7 34 -54 16z m-293 -225 c-3 -3 -30 -17 -59 -30 -32 -15 -45
-18 -33 -8 31 25 113 59 92 38z m-107 -599 c0 -5 -115 -64 -172 -88 -21 -9
-38 -14 -38 -12 0 10 137 79 208 104 1 1 2 -1 2 -4z m-10 -140 c0 -6 -86 -45
-97 -44 -4 0 15 11 42 25 55 26 55 26 55 19z"/>
<path d="M9060 4721 c-47 -21 -114 -43 -150 -50 -36 -6 -132 -23 -215 -37 -82
-14 -155 -31 -162 -37 -17 -17 -54 -115 -45 -121 6 -4 62 20 145 61 53 27 25
5 -85 -68 -277 -180 -319 -209 -308 -209 7 0 51 18 98 40 47 22 87 39 89 37 2
-2 -25 -80 -60 -173 -35 -93 -71 -192 -81 -220 -16 -48 -22 -54 -121 -119 -58
-37 -104 -70 -102 -72 2 -2 37 12 78 31 222 102 371 167 375 163 2 -2 -58 -43
-134 -92 -75 -49 -144 -95 -154 -102 -9 -8 -30 -53 -47 -101 l-32 -87 -75 -49
c-41 -27 -73 -51 -71 -53 2 -2 35 11 73 28 86 39 205 89 212 89 3 0 -19 -15
-49 -33 -128 -78 -123 -73 -163 -181 -20 -56 -36 -104 -36 -108 0 -4 19 3 43
16 58 32 99 43 184 51 79 6 158 27 213 55 30 16 39 29 63 98 27 78 29 81 93
122 35 24 63 45 60 47 -4 5 -30 -6 -151 -62 -91 -42 -91 -38 -2 19 60 40 63
44 92 123 28 77 32 82 69 93 21 6 42 8 46 3 10 -11 95 -201 132 -293 40 -101
41 -102 111 -84 55 15 60 14 131 -10 79 -27 128 -32 170 -16 30 11 32 1 -47
210 -30 80 -58 154 -61 166 -5 18 6 28 74 70 43 27 80 53 80 57 0 5 -3 6 -7 4
-45 -26 -325 -148 -330 -144 -1 2 31 25 73 52 79 51 77 46 58 111 -4 15 3 27
29 47 61 46 171 160 202 209 20 33 47 57 88 80 32 18 63 39 70 46 12 15 5 12
-116 -42 -76 -34 -82 -33 -23 7 55 36 61 44 76 104 8 32 20 49 48 68 43 29 27
33 -26 6 -43 -22 -162 -71 -162 -67 0 2 30 23 68 47 91 59 95 63 88 103 -11
58 -46 99 -116 134 -90 45 -151 41 -273 -17 -49 -23 -93 -41 -98 -39 -5 2 31
30 81 62 123 81 121 85 -10 27z m115 -100 c-6 -5 -37 -21 -70 -36 -70 -30 -63
-18 10 19 52 26 77 33 60 17z m144 -45 c-28 -23 -287 -142 -294 -134 -6 6 170
98 228 118 49 18 76 25 66 16z m-351 -249 c16 -12 7 -62 -17 -94 -21 -29 -77
-60 -123 -68 -43 -8 -43 -7 -23 41 16 39 16 40 -40 19 -11 -4 1 6 27 23 32 21
48 39 53 61 5 23 13 31 33 34 33 4 73 -2 90 -16z m148 -155 c-7 -11 -122 -67
-156 -77 -21 -6 -20 -3 8 14 26 17 137 69 150 71 2 0 1 -4 -2 -8z m-546 -55
c0 -5 -78 -44 -112 -57 -51 -18 -29 1 35 30 60 28 77 34 77 27z m506 -38 c-33
-16 -61 -27 -63 -25 -5 4 98 55 112 55 6 0 -17 -13 -49 -30z m-576 -294 c0 -6
-88 -45 -98 -44 -6 0 88 48 96 49 1 0 2 -2 2 -5z"/>
<path d="M18545 4637 c-55 -35 -172 -110 -260 -168 -88 -58 -205 -134 -260
-169 -160 -101 -159 -109 5 -31 51 24 66 28 68 17 2 -8 -21 -77 -51 -153 -42
-106 -201 -549 -222 -620 -2 -6 -39 -34 -82 -62 -89 -58 -82 -66 15 -20 77 36
182 79 182 74 0 -2 -88 -61 -195 -131 -107 -70 -193 -129 -191 -132 3 -2 44
15 93 38 171 81 228 96 130 35 -36 -23 -46 -38 -64 -89 -12 -33 -20 -62 -18
-64 2 -2 45 10 97 27 105 35 238 62 238 49 0 -4 -5 -8 -11 -8 -6 0 -31 -14
-57 -32 -58 -39 -56 -37 -51 -42 2 -2 22 5 44 16 37 18 179 81 368 164 42 18
77 31 77 29 0 -2 -20 -16 -45 -31 -46 -26 -59 -45 -27 -40 9 2 42 7 72 10 96
12 110 16 110 36 0 37 30 99 79 167 58 79 76 138 46 149 -10 4 -45 2 -79 -5
-33 -6 -79 -14 -101 -16 -22 -3 -53 -7 -70 -10 -16 -3 -47 -7 -67 -10 -21 -4
-38 -5 -38 -3 0 2 45 133 100 292 55 159 98 291 96 293 -2 2 -39 -13 -82 -33
-103 -47 -102 -47 -80 -32 160 107 209 138 251 162 53 31 48 49 -5 21 -18 -9
-34 -14 -38 -11 -14 15 20 51 98 101 79 52 96 74 29 39 -43 -22 -189 -83 -189
-79 0 2 24 18 53 35 l52 32 47 134 c25 74 43 134 40 134 -4 0 -52 -28 -107
-63z m-295 -651 c0 -8 -95 -62 -127 -74 -54 -18 -38 -5 45 37 85 44 82 43 82
37z m-40 -181 c0 -7 -91 -51 -120 -59 -14 -3 7 10 45 29 78 38 75 37 75 30z"/>
<path d="M10872 3134 c-34 -24 -77 -34 -189 -44 -57 -5 -111 -14 -121 -19 -38
-20 -58 -182 -61 -483 -2 -182 -11 -304 -30 -382 -14 -56 -5 -161 19 -230 25
-73 58 -130 116 -202 31 -38 46 -66 49 -94 3 -22 7 -59 10 -82 5 -47 33 -91
59 -96 28 -6 64 26 75 65 6 21 11 70 11 108 0 50 5 78 17 95 26 38 36 41 62
17 31 -29 68 -112 120 -269 24 -70 47 -130 51 -133 5 -3 19 14 31 37 21 40 23
55 21 203 -1 88 2 166 7 174 14 22 64 15 126 -18 32 -17 61 -29 65 -26 4 2 10
24 12 47 3 24 28 95 55 158 55 124 59 136 67 190 10 65 10 65 -220 63 l-206
-3 -33 26 c-72 54 -46 77 88 75 91 -1 91 -2 119 -35 38 -46 65 -52 82 -18 33
65 48 168 34 241 -14 75 -64 115 -158 125 -105 12 -127 17 -160 37 -50 31 -26
41 94 40 121 -1 194 12 230 40 14 11 42 54 63 96 36 72 38 83 38 169 0 51 -4
97 -10 102 -5 5 -95 12 -200 16 -104 4 -212 11 -240 16 -68 12 -68 12 -93 -6z"/>
<path d="M18084 3120 c-81 -16 -95 -17 -145 -5 -17 5 -40 0 -65 -13 -22 -10
-44 -17 -51 -15 -7 3 -15 -8 -19 -23 -7 -28 2 -452 10 -491 19 -90 24 -503 8
-623 -5 -36 -8 -117 -7 -181 3 -107 14 -159 34 -159 4 0 6 -24 3 -52 -2 -29 4
-96 13 -148 9 -52 21 -133 26 -180 5 -47 10 -92 11 -100 1 -8 -2 -41 -6 -72
-9 -65 8 -108 43 -108 26 0 69 53 76 93 11 65 25 166 45 325 26 214 37 264 50
242 5 -7 6 -63 3 -124 -9 -180 22 -346 65 -346 7 0 21 8 31 17 15 15 20 41 25
148 9 179 17 257 28 278 16 30 102 111 116 108 25 -4 58 27 70 67 14 47 33 65
64 60 30 -4 55 -55 67 -138 17 -121 64 -180 115 -147 36 24 45 90 45 346 0
229 -8 298 -38 324 -19 17 -168 32 -321 32 l-105 0 0 165 c0 91 -4 209 -8 262
-10 118 -10 289 -1 369 6 54 5 61 -16 79 -13 11 -30 20 -39 21 -9 0 -23 2 -31
3 -8 2 -52 -4 -96 -14z"/>
<path d="M8685 3108 c-49 -11 -99 -18 -110 -17 -71 9 -132 3 -157 -16 -32 -24
-33 -27 -88 -215 -24 -80 -46 -149 -50 -153 -3 -4 -19 25 -35 64 -15 39 -38
81 -51 92 -20 17 -24 30 -24 79 0 49 -4 62 -28 89 -35 39 -101 49 -165 26 -23
-8 -55 -18 -72 -22 -16 -3 -51 -20 -76 -36 -44 -28 -148 -68 -178 -69 -8 0
-34 -9 -57 -20 -33 -17 -46 -31 -63 -71 -13 -28 -21 -66 -19 -87 1 -20 -4 -62
-11 -92 -10 -45 -10 -62 1 -95 11 -33 11 -57 0 -135 -6 -52 -12 -156 -13 -230
0 -168 -4 -244 -17 -390 -23 -244 -26 -381 -8 -442 14 -51 19 -56 48 -61 19
-3 42 1 54 8 29 19 79 13 106 -12 29 -27 88 -39 119 -23 13 7 38 26 56 43 26
24 37 29 62 24 26 -6 31 -3 35 16 41 197 47 264 48 496 1 132 5 238 10 235 4
-3 8 -11 8 -18 0 -12 67 -165 77 -176 2 -3 37 -5 76 -6 40 -1 101 -9 135 -18
61 -16 65 -16 100 2 21 10 52 38 70 61 17 23 32 39 33 34 0 -4 0 -44 -1 -88
-1 -108 15 -196 39 -216 11 -9 27 -49 40 -99 24 -97 37 -114 83 -111 18 1 72
3 119 5 47 2 102 9 122 15 20 7 41 10 46 7 11 -7 44 37 58 80 6 17 9 69 7 115
-3 61 1 94 12 120 14 32 14 40 1 65 -12 24 -13 34 -3 59 9 20 10 40 4 60 -5
17 -8 73 -7 125 2 69 -2 109 -15 145 -17 48 -17 148 -1 315 8 73 6 220 -4 365
-12 166 -20 183 -85 187 -116 6 -151 3 -231 -14z m219 -80 c3 -18 8 -89 11
-158 4 -69 9 -163 11 -210 6 -109 5 -152 -5 -220 -9 -58 -6 -148 7 -190 4 -14
6 -117 4 -230 -3 -113 -5 -235 -6 -272 -2 -106 -14 -69 -15 49 -1 58 -6 113
-11 122 -6 10 -10 -56 -10 -182 0 -146 -3 -198 -12 -195 -15 5 -16 10 -23 227
-4 102 -11 211 -16 241 -5 30 -10 74 -11 98 -3 76 -18 44 -19 -40 0 -46 -2
-112 -3 -148 -1 -36 -3 -136 -4 -222 -2 -143 -4 -158 -19 -158 -15 0 -18 9
-18 57 -1 100 -16 293 -25 316 -6 15 -9 -17 -10 -98 -4 -238 -5 -263 -12 -271
-5 -4 -8 6 -9 22 0 16 -2 38 -4 49 -2 11 -5 51 -6 88 -3 116 -19 84 -20 -40 0
-78 -3 -109 -9 -91 -13 43 -18 92 -26 248 -6 138 -22 233 -24 150 -2 -97 -13
-216 -21 -225 -9 -8 -15 27 -9 50 6 24 2 706 -4 712 -18 19 -57 -79 -71 -177
-8 -56 -64 -236 -97 -310 -23 -51 -41 -68 -90 -84 -16 -5 -18 2 -18 57 -1 133
-19 251 -37 234 -2 -3 -4 -61 -4 -129 l1 -123 -50 0 c-47 0 -50 2 -50 25 -1
24 -1 24 -14 -5 l-13 -30 -27 53 c-31 62 -96 262 -96 298 0 32 -17 64 -34 64
-21 0 -47 -162 -61 -375 -17 -273 -34 -467 -41 -474 -3 -3 -5 28 -4 69 3 83
-10 322 -17 330 -13 14 -20 -32 -18 -108 3 -90 -6 -385 -11 -379 -5 5 -16 320
-17 519 -2 168 -7 212 -22 196 -10 -9 -18 -227 -19 -505 0 -155 -4 -285 -8
-289 -9 -8 -9 -8 -12 141 -4 188 -19 609 -22 625 -1 8 -3 32 -3 53 -1 23 -5
36 -11 32 -6 -4 -10 -47 -9 -98 0 -114 -12 -421 -17 -426 -2 -2 -4 34 -4 80
-1 121 -10 232 -21 244 -10 10 -12 -11 -8 -140 6 -188 -5 -475 -17 -463 -2 3
-6 83 -9 179 -3 96 -8 183 -10 194 -2 11 -4 42 -4 70 -1 29 -5 45 -10 40 -5
-6 -11 -109 -15 -230 -3 -121 -7 -228 -9 -237 -6 -31 -13 -28 -13 5 0 18 -4
107 -8 199 -5 116 -4 189 4 241 9 51 9 80 2 93 -7 12 -6 25 1 41 7 17 7 46 -2
103 -11 74 -8 138 14 266 2 12 7 48 11 80 3 33 8 66 9 74 1 8 -6 25 -17 37
-18 19 -19 26 -8 58 7 22 10 57 6 86 -4 32 -2 59 7 81 15 34 49 71 70 74 7 1
39 5 72 9 33 5 65 9 70 10 23 3 45 18 45 30 0 23 44 50 123 74 90 28 107 22
107 -40 0 -47 15 -87 44 -119 13 -14 33 -59 46 -100 44 -148 50 -166 66 -188
19 -27 64 -29 88 -3 9 10 21 42 26 72 13 80 29 152 72 331 7 31 66 108 83 108
3 0 23 -9 45 -20 47 -24 85 -25 135 -5 37 16 122 31 182 34 29 1 33 -2 37 -31z
m-1207 -1545 c-2 -27 -3 -5 -3 47 0 52 1 74 3 48 2 -27 2 -69 0 -95z"/>
<path d="M10210 3100 c-50 -21 -133 -25 -195 -10 -93 23 -178 23 -260 1 -107
-29 -209 -68 -270 -103 -98 -56 -90 -32 -92 -271 -1 -117 -4 -250 -7 -297 -3
-64 1 -118 20 -220 13 -74 28 -169 33 -210 13 -107 39 -202 63 -227 31 -34 71
-206 63 -276 -6 -53 -4 -58 17 -66 50 -18 68 5 68 87 0 52 19 132 31 132 23 0
38 -50 42 -140 5 -100 19 -146 47 -155 30 -10 48 5 64 55 19 58 20 106 4 215
-13 95 -7 129 32 165 27 26 29 30 21 77 -12 81 -13 269 -1 328 14 66 27 75
113 75 64 0 65 0 76 -32 6 -18 28 -56 48 -85 21 -31 39 -71 42 -95 6 -38 32
-70 46 -56 22 22 38 129 43 298 7 243 7 242 -2 262 -6 12 0 20 22 32 42 22 54
78 67 311 3 55 8 118 11 140 4 32 2 44 -14 58 -29 26 -80 29 -132 7z m-145
-470 c11 -4 31 -11 45 -14 35 -8 54 -22 46 -34 -10 -16 -126 -4 -201 22 -64
22 -68 25 -45 33 27 11 125 7 155 -7z"/>
<path d="M4884 3103 c-40 -12 -298 -44 -379 -47 -107 -4 -203 -30 -317 -87
-46 -23 -70 -29 -125 -29 -41 0 -97 -9 -138 -21 -75 -23 -95 -25 -138 -14 -15
4 -40 2 -55 -4 -25 -10 -31 -24 -57 -114 -24 -82 -29 -121 -29 -202 0 -180 8
-262 28 -284 16 -17 17 -25 6 -53 -29 -80 -29 -85 -3 -134 24 -45 25 -55 20
-139 -3 -49 -13 -109 -23 -132 -15 -38 -15 -48 0 -136 9 -52 16 -125 16 -163
1 -98 13 -142 51 -176 27 -25 37 -29 68 -23 48 8 78 9 128 2 46 -6 100 14 160
60 45 33 55 55 58 132 2 36 11 97 20 134 12 44 14 72 8 78 -6 6 -5 32 4 72 7
34 13 77 13 95 0 27 3 32 25 32 14 0 56 9 94 19 38 11 98 22 134 26 60 7 68
10 94 44 28 34 29 40 28 126 -2 71 2 97 16 123 26 45 24 85 -5 119 -20 23 -33
28 -75 29 -29 1 -64 -2 -79 -6 -15 -5 -64 -18 -110 -30 -45 -11 -89 -23 -97
-26 -10 -4 -13 6 -12 47 l2 53 80 33 c44 17 87 30 95 26 31 -11 141 -1 196 18
44 16 74 19 132 16 67 -4 80 -2 133 24 32 16 81 53 110 81 69 71 100 134 105
217 2 36 6 79 10 95 8 39 -11 71 -63 101 -39 23 -89 30 -129 18z m106 -88 c0
-15 -11 -36 -25 -49 -29 -27 -32 -52 -9 -77 14 -15 13 -21 -7 -65 -42 -91 -68
-121 -127 -150 -45 -21 -75 -27 -142 -30 -239 -9 -288 -13 -340 -32 -97 -34
-159 -45 -175 -32 -25 21 -35 1 -35 -70 0 -38 -5 -91 -11 -118 -15 -62 -7 -95
26 -110 20 -9 32 -9 58 2 17 8 52 19 77 25 25 6 87 22 139 36 51 14 95 25 97
25 3 0 -5 -19 -17 -42 -17 -34 -20 -53 -16 -97 4 -36 3 -49 -3 -36 -5 11 -9
30 -9 43 -1 12 -5 22 -11 22 -6 0 -10 -35 -10 -84 0 -57 -4 -87 -13 -95 -12
-9 -107 -34 -189 -48 -25 -5 -28 -2 -28 23 0 16 -3 39 -6 52 -11 40 -24 23
-24 -33 0 -53 -1 -55 -35 -69 -31 -13 -35 -19 -35 -53 0 -21 -7 -69 -15 -107
-8 -38 -12 -87 -9 -108 4 -24 3 -38 -4 -38 -8 0 -11 82 -11 270 0 148 -3 274
-6 280 -10 16 -24 12 -24 -7 1 -23 -10 -755 -11 -768 0 -5 -4 -5 -10 1 -5 5
-10 70 -11 144 -2 152 -16 290 -30 305 -7 7 -8 -62 -3 -200 7 -214 0 -281 -10
-100 -3 55 -9 134 -13 175 -3 41 -6 98 -5 125 1 50 -25 178 -28 140 -2 -24 0
-92 5 -155 2 -25 4 -119 4 -210 0 -91 0 -188 1 -217 0 -28 -4 -54 -10 -58 -20
-12 -19 -27 -45 645 -4 105 -14 165 -24 137 -3 -9 -6 -176 -6 -372 0 -195 -3
-355 -6 -355 -3 0 -6 6 -6 13 0 6 -3 59 -7 117 -4 58 -9 143 -11 190 -7 130
-16 189 -26 165 -5 -14 -8 -1 -8 38 -1 32 -8 74 -17 95 -19 41 -20 78 -3 98
18 21 15 91 -4 112 -9 10 -17 34 -17 53 0 19 -6 59 -13 90 -19 78 -13 198 14
306 l23 91 28 -14 c41 -21 65 -20 155 9 45 14 110 29 145 33 34 4 109 24 165
45 167 63 263 79 330 55 38 -13 47 -13 79 0 31 13 250 59 297 63 12 1 17 -6
17 -24z m-1185 -1341 c5 -164 4 -234 -4 -238 -6 -4 -11 -1 -11 6 -1 27 -12
196 -19 283 -4 50 -4 92 0 95 5 3 11 25 15 48 4 24 8 41 10 40 1 -2 6 -107 9
-234z m182 -211 c-3 -10 -5 -2 -5 17 0 19 2 27 5 18 2 -10 2 -26 0 -35z"/>
<path d="M6362 3076 c-52 -19 -108 -34 -125 -34 -60 2 -122 -19 -150 -50 -12
-13 -20 -41 -23 -84 -2 -34 -11 -112 -19 -171 -19 -136 -19 -184 1 -222 12
-23 14 -49 9 -130 -4 -55 -8 -110 -10 -122 -7 -47 -8 -300 0 -336 5 -28 3 -49
-10 -78 -16 -34 -17 -46 -6 -92 8 -36 8 -74 2 -127 -10 -79 -8 -193 3 -246 5
-23 17 -35 52 -52 24 -12 55 -22 67 -22 12 0 90 23 172 51 152 52 177 56 315
49 69 -3 138 10 165 30 18 14 189 67 233 73 101 13 167 86 167 188 0 36 5 51
23 65 28 23 34 92 10 108 -14 8 -10 18 28 68 l45 58 -16 34 c-21 44 -61 61
-123 52 -26 -4 -58 -7 -72 -7 -44 1 -193 -41 -260 -72 -95 -45 -108 -48 -185
-47 -41 0 -81 -6 -96 -14 l-26 -13 2 136 c3 156 37 385 65 434 10 18 21 57 25
87 3 30 12 100 20 155 8 55 17 138 20 185 2 47 9 100 15 119 14 48 -8 64 -75
56 -64 -8 -63 -8 -110 -1 -31 5 -61 -2 -133 -28z m205 -46 l33 0 -6 -62 c-3
-35 -14 -135 -26 -223 -16 -129 -25 -167 -44 -197 -15 -24 -32 -82 -50 -175
-26 -131 -28 -156 -31 -483 -2 -190 -4 -362 -6 -382 -4 -72 -15 -21 -22 107
-4 72 -9 150 -10 175 -2 25 -5 129 -6 232 -1 139 -5 192 -15 205 -11 15 -14
-3 -15 -124 -1 -79 -3 -147 -4 -153 -1 -5 -3 -85 -4 -177 0 -91 -3 -164 -6
-161 -3 3 -8 65 -11 139 -4 74 -8 145 -9 159 -2 14 -3 44 -4 68 0 23 -5 42
-10 42 -4 0 -7 -12 -5 -27 6 -58 5 -354 -2 -451 -10 -148 -17 -129 -29 78 -4
63 -9 126 -12 140 -2 14 -7 102 -10 195 -12 377 -30 139 -27 -372 0 -129 -2
-163 -13 -163 -10 0 -13 22 -14 88 0 48 -2 107 -4 132 -10 130 -18 241 -20
295 -5 104 -4 102 -14 86 -5 -8 -9 -151 -9 -318 0 -168 -3 -307 -6 -310 -3 -4
-6 23 -7 58 0 35 -2 73 -5 84 -8 41 -9 705 -1 832 8 127 8 133 -14 162 -21 29
-22 32 -9 138 6 59 14 151 17 203 2 52 9 100 14 105 6 6 49 11 97 12 68 1 101
7 152 27 44 17 76 24 100 21 19 -3 50 -5 67 -5z m631 -1031 c3 -17 -37 -63
-75 -89 -21 -14 -23 -22 -24 -130 -1 -110 -12 -170 -30 -170 -8 0 -11 68 -11
245 0 136 1 141 25 153 33 17 111 11 115 -9z m-184 -216 c-6 -196 -8 -218 -22
-209 -7 4 -13 87 -25 334 0 6 -4 12 -9 12 -9 0 -9 4 -10 -197 -1 -84 -5 -153
-10 -153 -4 0 -8 19 -9 43 0 23 -2 59 -5 79 -6 53 -11 230 -6 249 2 10 11 14
25 12 12 -2 33 0 47 6 14 5 26 10 27 10 1 1 0 -83 -3 -186z m-135 -23 c0 -105
-4 -180 -10 -180 -5 0 -9 8 -9 18 -3 89 -13 243 -19 276 -7 41 -6 42 36 65 1
1 2 -80 2 -179z m-58 53 c1 -54 2 -131 3 -170 0 -40 -2 -73 -6 -73 -5 0 -8 39
-9 88 0 48 -2 96 -4 106 -3 18 -8 121 -6 139 1 4 6 7 11 7 6 0 10 -40 11 -97z
m-45 -109 c-1 -122 -5 -177 -13 -185 -7 -7 -14 -11 -17 -8 -2 2 -6 88 -10 191
-6 173 -5 187 11 190 10 2 21 0 24 -5 4 -5 6 -88 5 -183z m-140 140 c2 -42 6
-316 5 -349 -1 -11 -4 -15 -10 -10 -5 6 -12 66 -15 135 -4 69 -9 151 -12 182
-4 31 -4 64 0 73 11 29 30 10 32 -31z m54 -126 c0 -95 2 -182 4 -194 2 -11 0
-27 -5 -35 -6 -10 -9 -2 -10 26 0 22 -2 47 -3 55 -2 8 -7 84 -11 168 -6 134
-5 152 9 152 13 0 15 -23 16 -172z m-104 -60 c-1 -102 -5 -151 -14 -160 -9 -9
-12 -1 -12 42 -1 30 -3 108 -6 173 -5 91 -3 121 7 134 13 14 15 13 20 -13 3
-16 5 -95 5 -176z m558 196 c14 -5 24 -34 12 -34 -2 0 -11 -2 -18 -5 -10 -4
-14 2 -14 20 0 14 1 25 2 25 1 0 9 -3 18 -6z m-637 -190 c-1 -132 -4 -175 -14
-178 -10 -4 -13 8 -14 47 0 29 -3 88 -5 132 -11 170 -9 185 15 178 18 -5 19
-15 18 -179z"/>
<path d="M17065 3090 c-16 -11 -45 -20 -63 -20 -80 0 -132 -47 -197 -175 -22
-43 -59 -99 -82 -123 -24 -24 -43 -50 -43 -57 0 -54 -93 -283 -237 -585 -140
-293 -145 -320 -98 -495 15 -56 29 -141 32 -193 3 -51 9 -95 13 -97 14 -8 54
-9 78 -1 17 6 22 4 22 -10 0 -10 9 -28 21 -40 15 -16 24 -43 29 -91 10 -87 16
-100 49 -111 48 -17 55 -4 48 91 -5 73 -1 111 29 257 18 94 34 183 34 199 0
17 11 38 30 56 39 37 60 84 60 133 0 32 7 47 31 71 34 35 67 39 104 15 29 -19
101 -22 170 -6 88 21 104 21 120 6 8 -9 15 -25 16 -37 2 -78 10 -121 26 -139
16 -18 18 -40 18 -197 0 -175 0 -176 29 -231 26 -49 30 -69 36 -172 6 -120 14
-144 44 -132 21 8 40 44 57 112 7 29 22 62 32 73 20 21 20 39 1 170 -5 34 -2
53 10 71 8 13 40 93 70 176 30 84 66 173 80 197 l26 44 -14 104 c-7 58 -22
125 -33 149 -11 23 -27 79 -35 123 -19 101 -63 193 -173 365 -105 164 -148
247 -165 320 -19 83 -36 119 -78 161 -42 44 -55 47 -97 19z m-25 -794 c20 -52
17 -61 -18 -62 -18 0 -35 2 -37 5 -5 10 26 81 36 81 5 0 14 -11 19 -24z m-530
-677 c1 -13 1 -42 0 -64 -1 -33 -3 -36 -10 -19 -8 20 -14 88 -10 129 1 19 1
19 10 -1 4 -11 9 -32 10 -45z"/>
<path d="M12525 3082 c-4 -4 -133 -7 -288 -7 l-282 0 -65 -27 c-36 -15 -72
-37 -80 -50 -8 -12 -55 -62 -104 -112 -140 -143 -147 -179 -57 -313 107 -160
228 -261 356 -298 80 -23 124 -46 141 -71 17 -25 9 -53 -15 -56 -9 0 -23 -2
-31 -3 -30 -3 -94 26 -156 71 -106 75 -172 99 -261 95 -13 -1 -32 -10 -43 -21
-18 -18 -20 -33 -20 -189 0 -167 0 -169 25 -194 14 -13 63 -43 108 -65 100
-50 159 -98 186 -155 11 -23 30 -91 41 -152 22 -113 53 -195 73 -195 25 0 34
16 35 60 1 25 7 71 13 104 6 32 9 73 7 92 -2 25 6 43 30 73 33 42 62 53 62 26
0 -9 9 -41 21 -73 71 -192 68 -180 54 -225 -15 -49 -11 -116 11 -201 9 -33 16
-82 16 -109 -1 -45 0 -47 29 -47 21 0 29 5 29 18 2 59 41 261 76 387 60 214
159 512 180 541 36 47 55 111 59 199 5 123 -8 189 -42 220 -80 74 -209 143
-431 232 -61 25 -115 49 -118 55 -3 5 2 18 11 28 22 24 35 20 262 -97 102 -52
189 -90 197 -87 8 3 23 26 32 50 14 37 15 59 8 132 -15 152 -12 217 12 248
l21 28 -21 36 c-26 45 -64 69 -81 52z"/>
<path d="M15819 3057 c-33 -17 -60 -68 -65 -124 -6 -68 -29 -124 -96 -235 -67
-111 -97 -174 -100 -212 -1 -14 -4 -26 -6 -26 -2 0 -32 60 -67 133 -70 145
-105 255 -105 332 0 82 -44 131 -115 129 -69 -2 -176 -18 -200 -29 -16 -7 -54
-21 -83 -30 -29 -9 -61 -26 -72 -37 -18 -19 -17 -22 10 -126 49 -183 121 -378
287 -767 140 -328 229 -575 263 -725 7 -30 16 -62 21 -71 11 -21 46 -30 57
-15 11 14 42 170 42 213 l0 33 43 -6 c40 -6 46 -4 64 22 28 40 33 58 38 159 7
122 41 187 80 155 32 -27 62 12 88 115 9 33 18 92 21 130 9 100 16 126 41 160
45 61 99 159 125 229 15 39 53 127 85 194 52 115 95 248 95 296 0 12 -9 35
-19 53 l-20 31 -98 1 c-54 0 -109 2 -122 5 -13 3 -49 8 -80 12 -31 3 -63 8
-72 9 -9 2 -27 -2 -40 -8z"/>
<path d="M14435 3052 c-10 -2 -29 -11 -41 -19 -14 -9 -43 -13 -76 -12 -64 3
-94 -6 -103 -29 -19 -44 -43 -322 -44 -507 -1 -122 -8 -239 -17 -300 -22 -142
-22 -270 0 -294 10 -11 24 -45 33 -78 8 -32 20 -65 27 -73 7 -8 14 -43 14 -77
1 -34 15 -122 33 -195 29 -124 38 -236 27 -323 -2 -14 4 -21 21 -23 13 -2 27
0 31 5 5 4 12 62 16 128 4 66 12 133 19 150 8 19 11 62 8 120 -4 78 -2 94 14
114 l19 23 28 -61 c22 -50 27 -74 25 -130 -1 -37 1 -73 5 -79 9 -15 73 -15 82
0 9 14 8 200 -1 229 -5 13 6 46 33 97 37 73 41 89 71 307 18 127 34 241 36
255 2 14 7 57 11 95 3 39 8 79 10 90 2 11 7 77 10 146 7 140 4 154 -56 284
-21 44 -41 90 -45 103 -14 46 -45 63 -110 61 -33 -2 -69 -5 -80 -7z"/>
<path d="M13165 3041 c-85 -19 -222 -62 -272 -86 -28 -14 -66 -42 -83 -62 -32
-36 -32 -38 -26 -107 10 -102 21 -129 97 -242 37 -56 71 -115 75 -130 9 -34
30 -53 62 -54 19 0 22 5 23 45 1 25 3 50 4 55 1 6 3 30 4 55 1 62 26 85 91 85
40 0 51 -4 61 -22 16 -31 5 -137 -31 -279 -36 -140 -36 -170 -9 -325 12 -66
22 -164 23 -219 1 -58 7 -109 14 -122 15 -26 38 -135 47 -223 4 -36 14 -96 22
-133 13 -59 18 -68 35 -65 37 5 44 31 27 95 -15 58 -10 113 12 113 5 0 9 15 9
34 0 26 9 42 41 72 23 22 53 49 66 61 l24 23 9 -26 c6 -14 10 -52 10 -84 0
-42 5 -63 17 -76 17 -16 18 -14 30 42 6 32 33 113 58 178 51 129 66 221 47
290 -8 27 -8 45 -1 59 21 38 22 168 4 277 -10 58 -17 136 -17 173 1 64 18 137
33 137 13 0 59 -119 89 -235 40 -148 53 -175 85 -175 13 0 26 4 29 8 2 4 6 74
7 155 l2 147 34 26 c45 34 78 104 97 203 19 98 21 230 4 266 -14 32 -19 33
-213 39 -150 5 -196 9 -270 22 -58 9 -330 13 -370 5z"/>
<path d="M5608 2967 c-31 -13 -73 -34 -92 -45 -33 -20 -55 -26 -133 -36 -39
-5 -99 -41 -113 -67 -20 -37 -40 -217 -40 -359 0 -126 3 -148 19 -169 16 -21
17 -28 5 -56 -9 -22 -10 -43 -4 -71 8 -36 19 -300 25 -614 3 -135 16 -204 41
-214 26 -10 58 -7 80 8 11 8 38 18 60 21 21 4 45 11 53 15 8 4 21 0 32 -11 31
-31 85 -25 120 13 16 18 32 42 35 53 4 11 13 28 21 37 37 42 55 146 60 356 4
144 2 207 -6 215 -18 18 -13 62 11 93 20 25 23 44 30 186 3 87 9 166 12 175 2
10 8 52 11 93 3 41 13 89 21 107 10 21 13 54 10 103 -2 40 -1 84 4 99 9 32 -2
66 -26 75 -10 4 -54 9 -98 12 -70 4 -89 1 -138 -19z m172 -140 c0 -62 -4 -95
-14 -106 -9 -11 -15 -59 -20 -149 -3 -74 -8 -137 -10 -140 -2 -4 -7 -47 -10
-97 -8 -102 -24 -268 -36 -365 l-7 -65 -3 68 c-3 83 -3 84 -13 93 -4 4 -7 -86
-5 -202 2 -191 -3 -289 -19 -369 -11 -58 -19 3 -22 178 -1 95 -5 175 -9 179
-4 4 -8 -3 -8 -15 -1 -12 -4 -58 -7 -102 -3 -44 -6 -118 -6 -164 -1 -46 -4
-81 -8 -77 -5 4 -8 62 -9 129 -1 169 -14 350 -25 362 -5 5 -9 -2 -10 -20 0
-17 -2 -124 -3 -238 -2 -115 -6 -210 -9 -213 -6 -6 -16 259 -20 503 -2 162 -7
207 -22 192 -8 -9 -17 -276 -16 -526 0 -153 -4 -253 -10 -253 -5 0 -9 8 -9 18
0 9 -2 94 -5 187 -3 94 -7 256 -11 360 -3 105 -7 200 -9 210 -2 11 -4 34 -4
50 -1 20 -4 26 -10 17 -4 -7 -9 -81 -10 -165 -2 -84 -4 -185 -4 -224 -1 -40
-5 -73 -9 -73 -5 0 -8 33 -9 73 -1 102 -8 170 -20 182 -5 5 -9 23 -9 40 -1 16
-7 44 -14 60 -11 26 -11 35 6 67 l18 38 -36 40 -37 41 -3 117 c-3 143 9 276
28 304 16 24 115 58 170 58 23 0 47 8 65 23 25 20 107 60 141 69 7 2 31 2 53
0 l39 -4 0 -91z m-425 -1002 c3 -87 2 -155 -2 -151 -5 4 -9 31 -9 59 -1 29 -4
84 -7 122 -4 64 1 141 9 132 2 -2 6 -75 9 -162z m32 -222 c-3 -10 -5 -2 -5 17
0 19 2 27 5 18 2 -10 2 -26 0 -35z m5 -60 c-5 -59 -10 -63 -11 -10 -1 26 3 47
7 47 4 0 6 -17 4 -37z"/>
</g>
</svg>
